G04 #@! TF.GenerationSoftware,KiCad,Pcbnew,(6.0.8)*
G04 #@! TF.CreationDate,2022-11-04T15:43:21-05:00*
G04 #@! TF.ProjectId,MIKey,4d494b65-792e-46b6-9963-61645f706362,rev?*
G04 #@! TF.SameCoordinates,Original*
G04 #@! TF.FileFunction,Legend,Top*
G04 #@! TF.FilePolarity,Positive*
%FSLAX46Y46*%
G04 Gerber Fmt 4.6, Leading zero omitted, Abs format (unit mm)*
G04 Created by KiCad (PCBNEW (6.0.8)) date 2022-11-04 15:43:21*
%MOMM*%
%LPD*%
G01*
G04 APERTURE LIST*
%ADD10C,0.150000*%
%ADD11C,0.120000*%
G04 APERTURE END LIST*
D10*
G04 #@! TO.C,SEVEN1*
X259870949Y-132484761D02*
X260013806Y-132532380D01*
X260251901Y-132532380D01*
X260347139Y-132484761D01*
X260394758Y-132437142D01*
X260442377Y-132341904D01*
X260442377Y-132246666D01*
X260394758Y-132151428D01*
X260347139Y-132103809D01*
X260251901Y-132056190D01*
X260061425Y-132008571D01*
X259966187Y-131960952D01*
X259918568Y-131913333D01*
X259870949Y-131818095D01*
X259870949Y-131722857D01*
X259918568Y-131627619D01*
X259966187Y-131580000D01*
X260061425Y-131532380D01*
X260299520Y-131532380D01*
X260442377Y-131580000D01*
X260870949Y-132008571D02*
X261204282Y-132008571D01*
X261347139Y-132532380D02*
X260870949Y-132532380D01*
X260870949Y-131532380D01*
X261347139Y-131532380D01*
X261632854Y-131532380D02*
X261966187Y-132532380D01*
X262299520Y-131532380D01*
X262632854Y-132008571D02*
X262966187Y-132008571D01*
X263109044Y-132532380D02*
X262632854Y-132532380D01*
X262632854Y-131532380D01*
X263109044Y-131532380D01*
X263537616Y-132532380D02*
X263537616Y-131532380D01*
X264109044Y-132532380D01*
X264109044Y-131532380D01*
X265109044Y-132532380D02*
X264537616Y-132532380D01*
X264823330Y-132532380D02*
X264823330Y-131532380D01*
X264728092Y-131675238D01*
X264632854Y-131770476D01*
X264537616Y-131818095D01*
G04 #@! TO.C,FOUR1*
X180599044Y-132008571D02*
X180265711Y-132008571D01*
X180265711Y-132532380D02*
X180265711Y-131532380D01*
X180741901Y-131532380D01*
X181313330Y-131532380D02*
X181503806Y-131532380D01*
X181599044Y-131580000D01*
X181694282Y-131675238D01*
X181741901Y-131865714D01*
X181741901Y-132199047D01*
X181694282Y-132389523D01*
X181599044Y-132484761D01*
X181503806Y-132532380D01*
X181313330Y-132532380D01*
X181218092Y-132484761D01*
X181122854Y-132389523D01*
X181075235Y-132199047D01*
X181075235Y-131865714D01*
X181122854Y-131675238D01*
X181218092Y-131580000D01*
X181313330Y-131532380D01*
X182170473Y-131532380D02*
X182170473Y-132341904D01*
X182218092Y-132437142D01*
X182265711Y-132484761D01*
X182360949Y-132532380D01*
X182551425Y-132532380D01*
X182646663Y-132484761D01*
X182694282Y-132437142D01*
X182741901Y-132341904D01*
X182741901Y-131532380D01*
X183789520Y-132532380D02*
X183456187Y-132056190D01*
X183218092Y-132532380D02*
X183218092Y-131532380D01*
X183599044Y-131532380D01*
X183694282Y-131580000D01*
X183741901Y-131627619D01*
X183789520Y-131722857D01*
X183789520Y-131865714D01*
X183741901Y-131960952D01*
X183694282Y-132008571D01*
X183599044Y-132056190D01*
X183218092Y-132056190D01*
X184741901Y-132532380D02*
X184170473Y-132532380D01*
X184456187Y-132532380D02*
X184456187Y-131532380D01*
X184360949Y-131675238D01*
X184265711Y-131770476D01*
X184170473Y-131818095D01*
G04 #@! TO.C,F9*
X315496663Y-105338571D02*
X315163330Y-105338571D01*
X315163330Y-105862380D02*
X315163330Y-104862380D01*
X315639520Y-104862380D01*
X316068092Y-105862380D02*
X316258568Y-105862380D01*
X316353806Y-105814761D01*
X316401425Y-105767142D01*
X316496663Y-105624285D01*
X316544282Y-105433809D01*
X316544282Y-105052857D01*
X316496663Y-104957619D01*
X316449044Y-104910000D01*
X316353806Y-104862380D01*
X316163330Y-104862380D01*
X316068092Y-104910000D01*
X316020473Y-104957619D01*
X315972854Y-105052857D01*
X315972854Y-105290952D01*
X316020473Y-105386190D01*
X316068092Y-105433809D01*
X316163330Y-105481428D01*
X316353806Y-105481428D01*
X316449044Y-105433809D01*
X316496663Y-105386190D01*
X316544282Y-105290952D01*
G04 #@! TO.C,L_CTRL1*
X73676663Y-235502380D02*
X73200473Y-235502380D01*
X73200473Y-234502380D01*
X73771901Y-235597619D02*
X74533806Y-235597619D01*
X75343330Y-235407142D02*
X75295711Y-235454761D01*
X75152854Y-235502380D01*
X75057616Y-235502380D01*
X74914758Y-235454761D01*
X74819520Y-235359523D01*
X74771901Y-235264285D01*
X74724282Y-235073809D01*
X74724282Y-234930952D01*
X74771901Y-234740476D01*
X74819520Y-234645238D01*
X74914758Y-234550000D01*
X75057616Y-234502380D01*
X75152854Y-234502380D01*
X75295711Y-234550000D01*
X75343330Y-234597619D01*
X75629044Y-234502380D02*
X76200473Y-234502380D01*
X75914758Y-235502380D02*
X75914758Y-234502380D01*
X77105235Y-235502380D02*
X76771901Y-235026190D01*
X76533806Y-235502380D02*
X76533806Y-234502380D01*
X76914758Y-234502380D01*
X77009997Y-234550000D01*
X77057616Y-234597619D01*
X77105235Y-234692857D01*
X77105235Y-234835714D01*
X77057616Y-234930952D01*
X77009997Y-234978571D01*
X76914758Y-235026190D01*
X76533806Y-235026190D01*
X78009997Y-235502380D02*
X77533806Y-235502380D01*
X77533806Y-234502380D01*
X78867139Y-235502380D02*
X78295711Y-235502380D01*
X78581425Y-235502380D02*
X78581425Y-234502380D01*
X78486187Y-234645238D01*
X78390949Y-234740476D01*
X78295711Y-234788095D01*
G04 #@! TO.C,SEMI-COLON1*
X340190949Y-182554761D02*
X340333806Y-182602380D01*
X340571901Y-182602380D01*
X340667139Y-182554761D01*
X340714758Y-182507142D01*
X340762377Y-182411904D01*
X340762377Y-182316666D01*
X340714758Y-182221428D01*
X340667139Y-182173809D01*
X340571901Y-182126190D01*
X340381425Y-182078571D01*
X340286187Y-182030952D01*
X340238568Y-181983333D01*
X340190949Y-181888095D01*
X340190949Y-181792857D01*
X340238568Y-181697619D01*
X340286187Y-181650000D01*
X340381425Y-181602380D01*
X340619520Y-181602380D01*
X340762377Y-181650000D01*
X341190949Y-182078571D02*
X341524282Y-182078571D01*
X341667139Y-182602380D02*
X341190949Y-182602380D01*
X341190949Y-181602380D01*
X341667139Y-181602380D01*
X342095711Y-182602380D02*
X342095711Y-181602380D01*
X342429044Y-182316666D01*
X342762377Y-181602380D01*
X342762377Y-182602380D01*
X343238568Y-182602380D02*
X343238568Y-181602380D01*
X343714758Y-182221428D02*
X344476663Y-182221428D01*
X345524282Y-182507142D02*
X345476663Y-182554761D01*
X345333806Y-182602380D01*
X345238568Y-182602380D01*
X345095711Y-182554761D01*
X345000473Y-182459523D01*
X344952854Y-182364285D01*
X344905235Y-182173809D01*
X344905235Y-182030952D01*
X344952854Y-181840476D01*
X345000473Y-181745238D01*
X345095711Y-181650000D01*
X345238568Y-181602380D01*
X345333806Y-181602380D01*
X345476663Y-181650000D01*
X345524282Y-181697619D01*
X346143330Y-181602380D02*
X346333806Y-181602380D01*
X346429044Y-181650000D01*
X346524282Y-181745238D01*
X346571901Y-181935714D01*
X346571901Y-182269047D01*
X346524282Y-182459523D01*
X346429044Y-182554761D01*
X346333806Y-182602380D01*
X346143330Y-182602380D01*
X346048092Y-182554761D01*
X345952854Y-182459523D01*
X345905235Y-182269047D01*
X345905235Y-181935714D01*
X345952854Y-181745238D01*
X346048092Y-181650000D01*
X346143330Y-181602380D01*
X347476663Y-182602380D02*
X347000473Y-182602380D01*
X347000473Y-181602380D01*
X348000473Y-181602380D02*
X348190949Y-181602380D01*
X348286187Y-181650000D01*
X348381425Y-181745238D01*
X348429044Y-181935714D01*
X348429044Y-182269047D01*
X348381425Y-182459523D01*
X348286187Y-182554761D01*
X348190949Y-182602380D01*
X348000473Y-182602380D01*
X347905235Y-182554761D01*
X347809997Y-182459523D01*
X347762377Y-182269047D01*
X347762377Y-181935714D01*
X347809997Y-181745238D01*
X347905235Y-181650000D01*
X348000473Y-181602380D01*
X348857616Y-182602380D02*
X348857616Y-181602380D01*
X349429044Y-182602380D01*
X349429044Y-181602380D01*
X350429044Y-182602380D02*
X349857616Y-182602380D01*
X350143330Y-182602380D02*
X350143330Y-181602380D01*
X350048092Y-181745238D01*
X349952854Y-181840476D01*
X349857616Y-181888095D01*
G04 #@! TO.C,R_SHIFT1*
X407114758Y-209302380D02*
X406781425Y-208826190D01*
X406543330Y-209302380D02*
X406543330Y-208302380D01*
X406924282Y-208302380D01*
X407019520Y-208350000D01*
X407067139Y-208397619D01*
X407114758Y-208492857D01*
X407114758Y-208635714D01*
X407067139Y-208730952D01*
X407019520Y-208778571D01*
X406924282Y-208826190D01*
X406543330Y-208826190D01*
X407305235Y-209397619D02*
X408067139Y-209397619D01*
X408257616Y-209254761D02*
X408400473Y-209302380D01*
X408638568Y-209302380D01*
X408733806Y-209254761D01*
X408781425Y-209207142D01*
X408829044Y-209111904D01*
X408829044Y-209016666D01*
X408781425Y-208921428D01*
X408733806Y-208873809D01*
X408638568Y-208826190D01*
X408448092Y-208778571D01*
X408352854Y-208730952D01*
X408305235Y-208683333D01*
X408257616Y-208588095D01*
X408257616Y-208492857D01*
X408305235Y-208397619D01*
X408352854Y-208350000D01*
X408448092Y-208302380D01*
X408686187Y-208302380D01*
X408829044Y-208350000D01*
X409257616Y-209302380D02*
X409257616Y-208302380D01*
X409257616Y-208778571D02*
X409829044Y-208778571D01*
X409829044Y-209302380D02*
X409829044Y-208302380D01*
X410305235Y-209302380D02*
X410305235Y-208302380D01*
X411114758Y-208778571D02*
X410781425Y-208778571D01*
X410781425Y-209302380D02*
X410781425Y-208302380D01*
X411257616Y-208302380D01*
X411495711Y-208302380D02*
X412067139Y-208302380D01*
X411781425Y-209302380D02*
X411781425Y-208302380D01*
X412924282Y-209302380D02*
X412352854Y-209302380D01*
X412638568Y-209302380D02*
X412638568Y-208302380D01*
X412543330Y-208445238D01*
X412448092Y-208540476D01*
X412352854Y-208588095D01*
G04 #@! TO.C,F2*
X128806663Y-105338571D02*
X128473330Y-105338571D01*
X128473330Y-105862380D02*
X128473330Y-104862380D01*
X128949520Y-104862380D01*
X129282854Y-104957619D02*
X129330473Y-104910000D01*
X129425711Y-104862380D01*
X129663806Y-104862380D01*
X129759044Y-104910000D01*
X129806663Y-104957619D01*
X129854282Y-105052857D01*
X129854282Y-105148095D01*
X129806663Y-105290952D01*
X129235235Y-105862380D01*
X129854282Y-105862380D01*
G04 #@! TO.C,F12*
X395030473Y-105338571D02*
X394697139Y-105338571D01*
X394697139Y-105862380D02*
X394697139Y-104862380D01*
X395173330Y-104862380D01*
X396078092Y-105862380D02*
X395506663Y-105862380D01*
X395792377Y-105862380D02*
X395792377Y-104862380D01*
X395697139Y-105005238D01*
X395601901Y-105100476D01*
X395506663Y-105148095D01*
X396459044Y-104957619D02*
X396506663Y-104910000D01*
X396601901Y-104862380D01*
X396839997Y-104862380D01*
X396935235Y-104910000D01*
X396982854Y-104957619D01*
X397030473Y-105052857D01*
X397030473Y-105148095D01*
X396982854Y-105290952D01*
X396411425Y-105862380D01*
X397030473Y-105862380D01*
G04 #@! TO.C,COMMA/GTR_THN1*
X313733806Y-209007142D02*
X313686187Y-209054761D01*
X313543330Y-209102380D01*
X313448092Y-209102380D01*
X313305235Y-209054761D01*
X313209997Y-208959523D01*
X313162377Y-208864285D01*
X313114758Y-208673809D01*
X313114758Y-208530952D01*
X313162377Y-208340476D01*
X313209997Y-208245238D01*
X313305235Y-208150000D01*
X313448092Y-208102380D01*
X313543330Y-208102380D01*
X313686187Y-208150000D01*
X313733806Y-208197619D01*
X314352854Y-208102380D02*
X314543330Y-208102380D01*
X314638568Y-208150000D01*
X314733806Y-208245238D01*
X314781425Y-208435714D01*
X314781425Y-208769047D01*
X314733806Y-208959523D01*
X314638568Y-209054761D01*
X314543330Y-209102380D01*
X314352854Y-209102380D01*
X314257616Y-209054761D01*
X314162377Y-208959523D01*
X314114758Y-208769047D01*
X314114758Y-208435714D01*
X314162377Y-208245238D01*
X314257616Y-208150000D01*
X314352854Y-208102380D01*
X315209997Y-209102380D02*
X315209997Y-208102380D01*
X315543330Y-208816666D01*
X315876663Y-208102380D01*
X315876663Y-209102380D01*
X316352854Y-209102380D02*
X316352854Y-208102380D01*
X316686187Y-208816666D01*
X317019520Y-208102380D01*
X317019520Y-209102380D01*
X317448092Y-208816666D02*
X317924282Y-208816666D01*
X317352854Y-209102380D02*
X317686187Y-208102380D01*
X318019520Y-209102380D01*
X319067139Y-208054761D02*
X318209997Y-209340476D01*
X319924282Y-208150000D02*
X319829044Y-208102380D01*
X319686187Y-208102380D01*
X319543330Y-208150000D01*
X319448092Y-208245238D01*
X319400473Y-208340476D01*
X319352854Y-208530952D01*
X319352854Y-208673809D01*
X319400473Y-208864285D01*
X319448092Y-208959523D01*
X319543330Y-209054761D01*
X319686187Y-209102380D01*
X319781425Y-209102380D01*
X319924282Y-209054761D01*
X319971901Y-209007142D01*
X319971901Y-208673809D01*
X319781425Y-208673809D01*
X320257616Y-208102380D02*
X320829044Y-208102380D01*
X320543330Y-209102380D02*
X320543330Y-208102380D01*
X321733806Y-209102380D02*
X321400473Y-208626190D01*
X321162377Y-209102380D02*
X321162377Y-208102380D01*
X321543330Y-208102380D01*
X321638568Y-208150000D01*
X321686187Y-208197619D01*
X321733806Y-208292857D01*
X321733806Y-208435714D01*
X321686187Y-208530952D01*
X321638568Y-208578571D01*
X321543330Y-208626190D01*
X321162377Y-208626190D01*
X321924282Y-209197619D02*
X322686187Y-209197619D01*
X322781425Y-208102380D02*
X323352854Y-208102380D01*
X323067139Y-209102380D02*
X323067139Y-208102380D01*
X323686187Y-209102380D02*
X323686187Y-208102380D01*
X323686187Y-208578571D02*
X324257616Y-208578571D01*
X324257616Y-209102380D02*
X324257616Y-208102380D01*
X324733806Y-209102380D02*
X324733806Y-208102380D01*
X325305235Y-209102380D01*
X325305235Y-208102380D01*
X326305235Y-209102380D02*
X325733806Y-209102380D01*
X326019520Y-209102380D02*
X326019520Y-208102380D01*
X325924282Y-208245238D01*
X325829044Y-208340476D01*
X325733806Y-208388095D01*
G04 #@! TO.C,SIX1*
X234343806Y-132484761D02*
X234486663Y-132532380D01*
X234724758Y-132532380D01*
X234819997Y-132484761D01*
X234867616Y-132437142D01*
X234915235Y-132341904D01*
X234915235Y-132246666D01*
X234867616Y-132151428D01*
X234819997Y-132103809D01*
X234724758Y-132056190D01*
X234534282Y-132008571D01*
X234439044Y-131960952D01*
X234391425Y-131913333D01*
X234343806Y-131818095D01*
X234343806Y-131722857D01*
X234391425Y-131627619D01*
X234439044Y-131580000D01*
X234534282Y-131532380D01*
X234772377Y-131532380D01*
X234915235Y-131580000D01*
X235343806Y-132532380D02*
X235343806Y-131532380D01*
X235724758Y-131532380D02*
X236391425Y-132532380D01*
X236391425Y-131532380D02*
X235724758Y-132532380D01*
X237296187Y-132532380D02*
X236724758Y-132532380D01*
X237010473Y-132532380D02*
X237010473Y-131532380D01*
X236915235Y-131675238D01*
X236819997Y-131770476D01*
X236724758Y-131818095D01*
G04 #@! TO.C,O1*
X315258568Y-158202380D02*
X315449044Y-158202380D01*
X315544282Y-158250000D01*
X315639520Y-158345238D01*
X315687139Y-158535714D01*
X315687139Y-158869047D01*
X315639520Y-159059523D01*
X315544282Y-159154761D01*
X315449044Y-159202380D01*
X315258568Y-159202380D01*
X315163330Y-159154761D01*
X315068092Y-159059523D01*
X315020473Y-158869047D01*
X315020473Y-158535714D01*
X315068092Y-158345238D01*
X315163330Y-158250000D01*
X315258568Y-158202380D01*
X316639520Y-159202380D02*
X316068092Y-159202380D01*
X316353806Y-159202380D02*
X316353806Y-158202380D01*
X316258568Y-158345238D01*
X316163330Y-158440476D01*
X316068092Y-158488095D01*
G04 #@! TO.C,TWO1*
X127282854Y-131532380D02*
X127854282Y-131532380D01*
X127568568Y-132532380D02*
X127568568Y-131532380D01*
X128092377Y-131532380D02*
X128330473Y-132532380D01*
X128520949Y-131818095D01*
X128711425Y-132532380D01*
X128949520Y-131532380D01*
X129520949Y-131532380D02*
X129711425Y-131532380D01*
X129806663Y-131580000D01*
X129901901Y-131675238D01*
X129949520Y-131865714D01*
X129949520Y-132199047D01*
X129901901Y-132389523D01*
X129806663Y-132484761D01*
X129711425Y-132532380D01*
X129520949Y-132532380D01*
X129425711Y-132484761D01*
X129330473Y-132389523D01*
X129282854Y-132199047D01*
X129282854Y-131865714D01*
X129330473Y-131675238D01*
X129425711Y-131580000D01*
X129520949Y-131532380D01*
X130901901Y-132532380D02*
X130330473Y-132532380D01*
X130616187Y-132532380D02*
X130616187Y-131532380D01*
X130520949Y-131675238D01*
X130425711Y-131770476D01*
X130330473Y-131818095D01*
G04 #@! TO.C,L1*
X315663330Y-185872380D02*
X315187139Y-185872380D01*
X315187139Y-184872380D01*
X316520473Y-185872380D02*
X315949044Y-185872380D01*
X316234758Y-185872380D02*
X316234758Y-184872380D01*
X316139520Y-185015238D01*
X316044282Y-185110476D01*
X315949044Y-185158095D01*
G04 #@! TO.C,WINDOWS1*
X99971901Y-234702380D02*
X100209997Y-235702380D01*
X100400473Y-234988095D01*
X100590949Y-235702380D01*
X100829044Y-234702380D01*
X101209997Y-235702380D02*
X101209997Y-234702380D01*
X101686187Y-235702380D02*
X101686187Y-234702380D01*
X102257616Y-235702380D01*
X102257616Y-234702380D01*
X102733806Y-235702380D02*
X102733806Y-234702380D01*
X102971901Y-234702380D01*
X103114758Y-234750000D01*
X103209997Y-234845238D01*
X103257616Y-234940476D01*
X103305235Y-235130952D01*
X103305235Y-235273809D01*
X103257616Y-235464285D01*
X103209997Y-235559523D01*
X103114758Y-235654761D01*
X102971901Y-235702380D01*
X102733806Y-235702380D01*
X103924282Y-234702380D02*
X104114758Y-234702380D01*
X104209997Y-234750000D01*
X104305235Y-234845238D01*
X104352854Y-235035714D01*
X104352854Y-235369047D01*
X104305235Y-235559523D01*
X104209997Y-235654761D01*
X104114758Y-235702380D01*
X103924282Y-235702380D01*
X103829044Y-235654761D01*
X103733806Y-235559523D01*
X103686187Y-235369047D01*
X103686187Y-235035714D01*
X103733806Y-234845238D01*
X103829044Y-234750000D01*
X103924282Y-234702380D01*
X104686187Y-234702380D02*
X104924282Y-235702380D01*
X105114758Y-234988095D01*
X105305235Y-235702380D01*
X105543330Y-234702380D01*
X105876663Y-235654761D02*
X106019520Y-235702380D01*
X106257616Y-235702380D01*
X106352854Y-235654761D01*
X106400473Y-235607142D01*
X106448092Y-235511904D01*
X106448092Y-235416666D01*
X106400473Y-235321428D01*
X106352854Y-235273809D01*
X106257616Y-235226190D01*
X106067139Y-235178571D01*
X105971901Y-235130952D01*
X105924282Y-235083333D01*
X105876663Y-234988095D01*
X105876663Y-234892857D01*
X105924282Y-234797619D01*
X105971901Y-234750000D01*
X106067139Y-234702380D01*
X106305235Y-234702380D01*
X106448092Y-234750000D01*
X107400473Y-235702380D02*
X106829044Y-235702380D01*
X107114758Y-235702380D02*
X107114758Y-234702380D01*
X107019520Y-234845238D01*
X106924282Y-234940476D01*
X106829044Y-234988095D01*
G04 #@! TO.C,F1*
X102136663Y-105338571D02*
X101803330Y-105338571D01*
X101803330Y-105862380D02*
X101803330Y-104862380D01*
X102279520Y-104862380D01*
X103184282Y-105862380D02*
X102612854Y-105862380D01*
X102898568Y-105862380D02*
X102898568Y-104862380D01*
X102803330Y-105005238D01*
X102708092Y-105100476D01*
X102612854Y-105148095D01*
G04 #@! TO.C,F6*
X235486663Y-105338571D02*
X235153330Y-105338571D01*
X235153330Y-105862380D02*
X235153330Y-104862380D01*
X235629520Y-104862380D01*
X236439044Y-104862380D02*
X236248568Y-104862380D01*
X236153330Y-104910000D01*
X236105711Y-104957619D01*
X236010473Y-105100476D01*
X235962854Y-105290952D01*
X235962854Y-105671904D01*
X236010473Y-105767142D01*
X236058092Y-105814761D01*
X236153330Y-105862380D01*
X236343806Y-105862380D01*
X236439044Y-105814761D01*
X236486663Y-105767142D01*
X236534282Y-105671904D01*
X236534282Y-105433809D01*
X236486663Y-105338571D01*
X236439044Y-105290952D01*
X236343806Y-105243333D01*
X236153330Y-105243333D01*
X236058092Y-105290952D01*
X236010473Y-105338571D01*
X235962854Y-105433809D01*
G04 #@! TO.C,CAPSLOCK1*
X73609997Y-182407142D02*
X73562377Y-182454761D01*
X73419520Y-182502380D01*
X73324282Y-182502380D01*
X73181425Y-182454761D01*
X73086187Y-182359523D01*
X73038568Y-182264285D01*
X72990949Y-182073809D01*
X72990949Y-181930952D01*
X73038568Y-181740476D01*
X73086187Y-181645238D01*
X73181425Y-181550000D01*
X73324282Y-181502380D01*
X73419520Y-181502380D01*
X73562377Y-181550000D01*
X73609997Y-181597619D01*
X73990949Y-182216666D02*
X74467139Y-182216666D01*
X73895711Y-182502380D02*
X74229044Y-181502380D01*
X74562377Y-182502380D01*
X74895711Y-182502380D02*
X74895711Y-181502380D01*
X75276663Y-181502380D01*
X75371901Y-181550000D01*
X75419520Y-181597619D01*
X75467139Y-181692857D01*
X75467139Y-181835714D01*
X75419520Y-181930952D01*
X75371901Y-181978571D01*
X75276663Y-182026190D01*
X74895711Y-182026190D01*
X75848092Y-182454761D02*
X75990949Y-182502380D01*
X76229044Y-182502380D01*
X76324282Y-182454761D01*
X76371901Y-182407142D01*
X76419520Y-182311904D01*
X76419520Y-182216666D01*
X76371901Y-182121428D01*
X76324282Y-182073809D01*
X76229044Y-182026190D01*
X76038568Y-181978571D01*
X75943330Y-181930952D01*
X75895711Y-181883333D01*
X75848092Y-181788095D01*
X75848092Y-181692857D01*
X75895711Y-181597619D01*
X75943330Y-181550000D01*
X76038568Y-181502380D01*
X76276663Y-181502380D01*
X76419520Y-181550000D01*
X77324282Y-182502380D02*
X76848092Y-182502380D01*
X76848092Y-181502380D01*
X77848092Y-181502380D02*
X78038568Y-181502380D01*
X78133806Y-181550000D01*
X78229044Y-181645238D01*
X78276663Y-181835714D01*
X78276663Y-182169047D01*
X78229044Y-182359523D01*
X78133806Y-182454761D01*
X78038568Y-182502380D01*
X77848092Y-182502380D01*
X77752854Y-182454761D01*
X77657616Y-182359523D01*
X77609997Y-182169047D01*
X77609997Y-181835714D01*
X77657616Y-181645238D01*
X77752854Y-181550000D01*
X77848092Y-181502380D01*
X79276663Y-182407142D02*
X79229044Y-182454761D01*
X79086187Y-182502380D01*
X78990949Y-182502380D01*
X78848092Y-182454761D01*
X78752854Y-182359523D01*
X78705235Y-182264285D01*
X78657616Y-182073809D01*
X78657616Y-181930952D01*
X78705235Y-181740476D01*
X78752854Y-181645238D01*
X78848092Y-181550000D01*
X78990949Y-181502380D01*
X79086187Y-181502380D01*
X79229044Y-181550000D01*
X79276663Y-181597619D01*
X79705235Y-182502380D02*
X79705235Y-181502380D01*
X80276663Y-182502380D02*
X79848092Y-181930952D01*
X80276663Y-181502380D02*
X79705235Y-182073809D01*
X81229044Y-182502380D02*
X80657616Y-182502380D01*
X80943330Y-182502380D02*
X80943330Y-181502380D01*
X80848092Y-181645238D01*
X80752854Y-181740476D01*
X80657616Y-181788095D01*
G04 #@! TO.C,S1*
X128378092Y-185824761D02*
X128520949Y-185872380D01*
X128759044Y-185872380D01*
X128854282Y-185824761D01*
X128901901Y-185777142D01*
X128949520Y-185681904D01*
X128949520Y-185586666D01*
X128901901Y-185491428D01*
X128854282Y-185443809D01*
X128759044Y-185396190D01*
X128568568Y-185348571D01*
X128473330Y-185300952D01*
X128425711Y-185253333D01*
X128378092Y-185158095D01*
X128378092Y-185062857D01*
X128425711Y-184967619D01*
X128473330Y-184920000D01*
X128568568Y-184872380D01*
X128806663Y-184872380D01*
X128949520Y-184920000D01*
X129901901Y-185872380D02*
X129330473Y-185872380D01*
X129616187Y-185872380D02*
X129616187Y-184872380D01*
X129520949Y-185015238D01*
X129425711Y-185110476D01*
X129330473Y-185158095D01*
G04 #@! TO.C,F11*
X368360473Y-105338571D02*
X368027139Y-105338571D01*
X368027139Y-105862380D02*
X368027139Y-104862380D01*
X368503330Y-104862380D01*
X369408092Y-105862380D02*
X368836663Y-105862380D01*
X369122377Y-105862380D02*
X369122377Y-104862380D01*
X369027139Y-105005238D01*
X368931901Y-105100476D01*
X368836663Y-105148095D01*
X370360473Y-105862380D02*
X369789044Y-105862380D01*
X370074758Y-105862380D02*
X370074758Y-104862380D01*
X369979520Y-105005238D01*
X369884282Y-105100476D01*
X369789044Y-105148095D01*
G04 #@! TO.C,]1*
X395173330Y-159535714D02*
X395411425Y-159535714D01*
X395411425Y-158107142D01*
X395173330Y-158107142D01*
X396459044Y-159202380D02*
X395887616Y-159202380D01*
X396173330Y-159202380D02*
X396173330Y-158202380D01*
X396078092Y-158345238D01*
X395982854Y-158440476D01*
X395887616Y-158488095D01*
G04 #@! TO.C,RIGHT_ARROW1*
X420495711Y-262402380D02*
X420162377Y-261926190D01*
X419924282Y-262402380D02*
X419924282Y-261402380D01*
X420305235Y-261402380D01*
X420400473Y-261450000D01*
X420448092Y-261497619D01*
X420495711Y-261592857D01*
X420495711Y-261735714D01*
X420448092Y-261830952D01*
X420400473Y-261878571D01*
X420305235Y-261926190D01*
X419924282Y-261926190D01*
X420924282Y-262402380D02*
X420924282Y-261402380D01*
X421924282Y-261450000D02*
X421829044Y-261402380D01*
X421686187Y-261402380D01*
X421543330Y-261450000D01*
X421448092Y-261545238D01*
X421400473Y-261640476D01*
X421352854Y-261830952D01*
X421352854Y-261973809D01*
X421400473Y-262164285D01*
X421448092Y-262259523D01*
X421543330Y-262354761D01*
X421686187Y-262402380D01*
X421781425Y-262402380D01*
X421924282Y-262354761D01*
X421971901Y-262307142D01*
X421971901Y-261973809D01*
X421781425Y-261973809D01*
X422400473Y-262402380D02*
X422400473Y-261402380D01*
X422400473Y-261878571D02*
X422971901Y-261878571D01*
X422971901Y-262402380D02*
X422971901Y-261402380D01*
X423305235Y-261402380D02*
X423876663Y-261402380D01*
X423590949Y-262402380D02*
X423590949Y-261402380D01*
X423971901Y-262497619D02*
X424733806Y-262497619D01*
X424924282Y-262116666D02*
X425400473Y-262116666D01*
X424829044Y-262402380D02*
X425162377Y-261402380D01*
X425495711Y-262402380D01*
X426400473Y-262402380D02*
X426067139Y-261926190D01*
X425829044Y-262402380D02*
X425829044Y-261402380D01*
X426209997Y-261402380D01*
X426305235Y-261450000D01*
X426352854Y-261497619D01*
X426400473Y-261592857D01*
X426400473Y-261735714D01*
X426352854Y-261830952D01*
X426305235Y-261878571D01*
X426209997Y-261926190D01*
X425829044Y-261926190D01*
X427400473Y-262402380D02*
X427067139Y-261926190D01*
X426829044Y-262402380D02*
X426829044Y-261402380D01*
X427209997Y-261402380D01*
X427305235Y-261450000D01*
X427352854Y-261497619D01*
X427400473Y-261592857D01*
X427400473Y-261735714D01*
X427352854Y-261830952D01*
X427305235Y-261878571D01*
X427209997Y-261926190D01*
X426829044Y-261926190D01*
X428019520Y-261402380D02*
X428209997Y-261402380D01*
X428305235Y-261450000D01*
X428400473Y-261545238D01*
X428448092Y-261735714D01*
X428448092Y-262069047D01*
X428400473Y-262259523D01*
X428305235Y-262354761D01*
X428209997Y-262402380D01*
X428019520Y-262402380D01*
X427924282Y-262354761D01*
X427829044Y-262259523D01*
X427781425Y-262069047D01*
X427781425Y-261735714D01*
X427829044Y-261545238D01*
X427924282Y-261450000D01*
X428019520Y-261402380D01*
X428781425Y-261402380D02*
X429019520Y-262402380D01*
X429209997Y-261688095D01*
X429400473Y-262402380D01*
X429638568Y-261402380D01*
X430543330Y-262402380D02*
X429971901Y-262402380D01*
X430257616Y-262402380D02*
X430257616Y-261402380D01*
X430162377Y-261545238D01*
X430067139Y-261640476D01*
X429971901Y-261688095D01*
G04 #@! TO.C,K1*
X288421901Y-185872380D02*
X288421901Y-184872380D01*
X288993330Y-185872380D02*
X288564758Y-185300952D01*
X288993330Y-184872380D02*
X288421901Y-185443809D01*
X289945711Y-185872380D02*
X289374282Y-185872380D01*
X289659997Y-185872380D02*
X289659997Y-184872380D01*
X289564758Y-185015238D01*
X289469520Y-185110476D01*
X289374282Y-185158095D01*
G04 #@! TO.C,DOWN_ARROW1*
X393248092Y-262302380D02*
X393248092Y-261302380D01*
X393486187Y-261302380D01*
X393629044Y-261350000D01*
X393724282Y-261445238D01*
X393771901Y-261540476D01*
X393819520Y-261730952D01*
X393819520Y-261873809D01*
X393771901Y-262064285D01*
X393724282Y-262159523D01*
X393629044Y-262254761D01*
X393486187Y-262302380D01*
X393248092Y-262302380D01*
X394438568Y-261302380D02*
X394629044Y-261302380D01*
X394724282Y-261350000D01*
X394819520Y-261445238D01*
X394867139Y-261635714D01*
X394867139Y-261969047D01*
X394819520Y-262159523D01*
X394724282Y-262254761D01*
X394629044Y-262302380D01*
X394438568Y-262302380D01*
X394343330Y-262254761D01*
X394248092Y-262159523D01*
X394200473Y-261969047D01*
X394200473Y-261635714D01*
X394248092Y-261445238D01*
X394343330Y-261350000D01*
X394438568Y-261302380D01*
X395200473Y-261302380D02*
X395438568Y-262302380D01*
X395629044Y-261588095D01*
X395819520Y-262302380D01*
X396057616Y-261302380D01*
X396438568Y-262302380D02*
X396438568Y-261302380D01*
X397009997Y-262302380D01*
X397009997Y-261302380D01*
X397248092Y-262397619D02*
X398009997Y-262397619D01*
X398200473Y-262016666D02*
X398676663Y-262016666D01*
X398105235Y-262302380D02*
X398438568Y-261302380D01*
X398771901Y-262302380D01*
X399676663Y-262302380D02*
X399343330Y-261826190D01*
X399105235Y-262302380D02*
X399105235Y-261302380D01*
X399486187Y-261302380D01*
X399581425Y-261350000D01*
X399629044Y-261397619D01*
X399676663Y-261492857D01*
X399676663Y-261635714D01*
X399629044Y-261730952D01*
X399581425Y-261778571D01*
X399486187Y-261826190D01*
X399105235Y-261826190D01*
X400676663Y-262302380D02*
X400343330Y-261826190D01*
X400105235Y-262302380D02*
X400105235Y-261302380D01*
X400486187Y-261302380D01*
X400581425Y-261350000D01*
X400629044Y-261397619D01*
X400676663Y-261492857D01*
X400676663Y-261635714D01*
X400629044Y-261730952D01*
X400581425Y-261778571D01*
X400486187Y-261826190D01*
X400105235Y-261826190D01*
X401295711Y-261302380D02*
X401486187Y-261302380D01*
X401581425Y-261350000D01*
X401676663Y-261445238D01*
X401724282Y-261635714D01*
X401724282Y-261969047D01*
X401676663Y-262159523D01*
X401581425Y-262254761D01*
X401486187Y-262302380D01*
X401295711Y-262302380D01*
X401200473Y-262254761D01*
X401105235Y-262159523D01*
X401057616Y-261969047D01*
X401057616Y-261635714D01*
X401105235Y-261445238D01*
X401200473Y-261350000D01*
X401295711Y-261302380D01*
X402057616Y-261302380D02*
X402295711Y-262302380D01*
X402486187Y-261588095D01*
X402676663Y-262302380D01*
X402914758Y-261302380D01*
X403819520Y-262302380D02*
X403248092Y-262302380D01*
X403533806Y-262302380D02*
X403533806Y-261302380D01*
X403438568Y-261445238D01*
X403343330Y-261540476D01*
X403248092Y-261588095D01*
G04 #@! TO.C,J1*
X262156663Y-184872380D02*
X262156663Y-185586666D01*
X262109044Y-185729523D01*
X262013806Y-185824761D01*
X261870949Y-185872380D01*
X261775711Y-185872380D01*
X263156663Y-185872380D02*
X262585235Y-185872380D01*
X262870949Y-185872380D02*
X262870949Y-184872380D01*
X262775711Y-185015238D01*
X262680473Y-185110476D01*
X262585235Y-185158095D01*
G04 #@! TO.C,G1*
X208935711Y-184920000D02*
X208840473Y-184872380D01*
X208697616Y-184872380D01*
X208554758Y-184920000D01*
X208459520Y-185015238D01*
X208411901Y-185110476D01*
X208364282Y-185300952D01*
X208364282Y-185443809D01*
X208411901Y-185634285D01*
X208459520Y-185729523D01*
X208554758Y-185824761D01*
X208697616Y-185872380D01*
X208792854Y-185872380D01*
X208935711Y-185824761D01*
X208983330Y-185777142D01*
X208983330Y-185443809D01*
X208792854Y-185443809D01*
X209935711Y-185872380D02*
X209364282Y-185872380D01*
X209649997Y-185872380D02*
X209649997Y-184872380D01*
X209554758Y-185015238D01*
X209459520Y-185110476D01*
X209364282Y-185158095D01*
G04 #@! TO.C,H1*
X235058092Y-185872380D02*
X235058092Y-184872380D01*
X235058092Y-185348571D02*
X235629520Y-185348571D01*
X235629520Y-185872380D02*
X235629520Y-184872380D01*
X236629520Y-185872380D02*
X236058092Y-185872380D01*
X236343806Y-185872380D02*
X236343806Y-184872380D01*
X236248568Y-185015238D01*
X236153330Y-185110476D01*
X236058092Y-185158095D01*
G04 #@! TO.C,SPACE_BAR1*
X219657616Y-235354761D02*
X219800473Y-235402380D01*
X220038568Y-235402380D01*
X220133806Y-235354761D01*
X220181425Y-235307142D01*
X220229044Y-235211904D01*
X220229044Y-235116666D01*
X220181425Y-235021428D01*
X220133806Y-234973809D01*
X220038568Y-234926190D01*
X219848092Y-234878571D01*
X219752854Y-234830952D01*
X219705235Y-234783333D01*
X219657616Y-234688095D01*
X219657616Y-234592857D01*
X219705235Y-234497619D01*
X219752854Y-234450000D01*
X219848092Y-234402380D01*
X220086187Y-234402380D01*
X220229044Y-234450000D01*
X220657616Y-235402380D02*
X220657616Y-234402380D01*
X221038568Y-234402380D01*
X221133806Y-234450000D01*
X221181425Y-234497619D01*
X221229044Y-234592857D01*
X221229044Y-234735714D01*
X221181425Y-234830952D01*
X221133806Y-234878571D01*
X221038568Y-234926190D01*
X220657616Y-234926190D01*
X221609997Y-235116666D02*
X222086187Y-235116666D01*
X221514758Y-235402380D02*
X221848092Y-234402380D01*
X222181425Y-235402380D01*
X223086187Y-235307142D02*
X223038568Y-235354761D01*
X222895711Y-235402380D01*
X222800473Y-235402380D01*
X222657616Y-235354761D01*
X222562377Y-235259523D01*
X222514758Y-235164285D01*
X222467139Y-234973809D01*
X222467139Y-234830952D01*
X222514758Y-234640476D01*
X222562377Y-234545238D01*
X222657616Y-234450000D01*
X222800473Y-234402380D01*
X222895711Y-234402380D01*
X223038568Y-234450000D01*
X223086187Y-234497619D01*
X223514758Y-234878571D02*
X223848092Y-234878571D01*
X223990949Y-235402380D02*
X223514758Y-235402380D01*
X223514758Y-234402380D01*
X223990949Y-234402380D01*
X224181425Y-235497619D02*
X224943330Y-235497619D01*
X225514758Y-234878571D02*
X225657616Y-234926190D01*
X225705235Y-234973809D01*
X225752854Y-235069047D01*
X225752854Y-235211904D01*
X225705235Y-235307142D01*
X225657616Y-235354761D01*
X225562377Y-235402380D01*
X225181425Y-235402380D01*
X225181425Y-234402380D01*
X225514758Y-234402380D01*
X225609997Y-234450000D01*
X225657616Y-234497619D01*
X225705235Y-234592857D01*
X225705235Y-234688095D01*
X225657616Y-234783333D01*
X225609997Y-234830952D01*
X225514758Y-234878571D01*
X225181425Y-234878571D01*
X226133806Y-235116666D02*
X226609997Y-235116666D01*
X226038568Y-235402380D02*
X226371901Y-234402380D01*
X226705235Y-235402380D01*
X227609997Y-235402380D02*
X227276663Y-234926190D01*
X227038568Y-235402380D02*
X227038568Y-234402380D01*
X227419520Y-234402380D01*
X227514758Y-234450000D01*
X227562377Y-234497619D01*
X227609997Y-234592857D01*
X227609997Y-234735714D01*
X227562377Y-234830952D01*
X227514758Y-234878571D01*
X227419520Y-234926190D01*
X227038568Y-234926190D01*
X228562377Y-235402380D02*
X227990949Y-235402380D01*
X228276663Y-235402380D02*
X228276663Y-234402380D01*
X228181425Y-234545238D01*
X228086187Y-234640476D01*
X227990949Y-234688095D01*
G04 #@! TO.C,U5*
X261728092Y-158202380D02*
X261728092Y-159011904D01*
X261775711Y-159107142D01*
X261823330Y-159154761D01*
X261918568Y-159202380D01*
X262109044Y-159202380D01*
X262204282Y-159154761D01*
X262251901Y-159107142D01*
X262299520Y-159011904D01*
X262299520Y-158202380D01*
X263251901Y-158202380D02*
X262775711Y-158202380D01*
X262728092Y-158678571D01*
X262775711Y-158630952D01*
X262870949Y-158583333D01*
X263109044Y-158583333D01*
X263204282Y-158630952D01*
X263251901Y-158678571D01*
X263299520Y-158773809D01*
X263299520Y-159011904D01*
X263251901Y-159107142D01*
X263204282Y-159154761D01*
X263109044Y-159202380D01*
X262870949Y-159202380D01*
X262775711Y-159154761D01*
X262728092Y-159107142D01*
G04 #@! TO.C,L_SHIFT1*
X86914758Y-209002380D02*
X86438568Y-209002380D01*
X86438568Y-208002380D01*
X87009997Y-209097619D02*
X87771901Y-209097619D01*
X87962377Y-208954761D02*
X88105235Y-209002380D01*
X88343330Y-209002380D01*
X88438568Y-208954761D01*
X88486187Y-208907142D01*
X88533806Y-208811904D01*
X88533806Y-208716666D01*
X88486187Y-208621428D01*
X88438568Y-208573809D01*
X88343330Y-208526190D01*
X88152854Y-208478571D01*
X88057616Y-208430952D01*
X88009997Y-208383333D01*
X87962377Y-208288095D01*
X87962377Y-208192857D01*
X88009997Y-208097619D01*
X88057616Y-208050000D01*
X88152854Y-208002380D01*
X88390949Y-208002380D01*
X88533806Y-208050000D01*
X88962377Y-209002380D02*
X88962377Y-208002380D01*
X88962377Y-208478571D02*
X89533806Y-208478571D01*
X89533806Y-209002380D02*
X89533806Y-208002380D01*
X90009997Y-209002380D02*
X90009997Y-208002380D01*
X90819520Y-208478571D02*
X90486187Y-208478571D01*
X90486187Y-209002380D02*
X90486187Y-208002380D01*
X90962377Y-208002380D01*
X91200473Y-208002380D02*
X91771901Y-208002380D01*
X91486187Y-209002380D02*
X91486187Y-208002380D01*
X92629044Y-209002380D02*
X92057616Y-209002380D01*
X92343330Y-209002380D02*
X92343330Y-208002380D01*
X92248092Y-208145238D01*
X92152854Y-208240476D01*
X92057616Y-208288095D01*
G04 #@! TO.C,APOSTROPHE1*
X366614758Y-182116666D02*
X367090949Y-182116666D01*
X366519520Y-182402380D02*
X366852854Y-181402380D01*
X367186187Y-182402380D01*
X367519520Y-182402380D02*
X367519520Y-181402380D01*
X367900473Y-181402380D01*
X367995711Y-181450000D01*
X368043330Y-181497619D01*
X368090949Y-181592857D01*
X368090949Y-181735714D01*
X368043330Y-181830952D01*
X367995711Y-181878571D01*
X367900473Y-181926190D01*
X367519520Y-181926190D01*
X368709997Y-181402380D02*
X368900473Y-181402380D01*
X368995711Y-181450000D01*
X369090949Y-181545238D01*
X369138568Y-181735714D01*
X369138568Y-182069047D01*
X369090949Y-182259523D01*
X368995711Y-182354761D01*
X368900473Y-182402380D01*
X368709997Y-182402380D01*
X368614758Y-182354761D01*
X368519520Y-182259523D01*
X368471901Y-182069047D01*
X368471901Y-181735714D01*
X368519520Y-181545238D01*
X368614758Y-181450000D01*
X368709997Y-181402380D01*
X369519520Y-182354761D02*
X369662377Y-182402380D01*
X369900473Y-182402380D01*
X369995711Y-182354761D01*
X370043330Y-182307142D01*
X370090949Y-182211904D01*
X370090949Y-182116666D01*
X370043330Y-182021428D01*
X369995711Y-181973809D01*
X369900473Y-181926190D01*
X369709997Y-181878571D01*
X369614758Y-181830952D01*
X369567139Y-181783333D01*
X369519520Y-181688095D01*
X369519520Y-181592857D01*
X369567139Y-181497619D01*
X369614758Y-181450000D01*
X369709997Y-181402380D01*
X369948092Y-181402380D01*
X370090949Y-181450000D01*
X370376663Y-181402380D02*
X370948092Y-181402380D01*
X370662377Y-182402380D02*
X370662377Y-181402380D01*
X371852854Y-182402380D02*
X371519520Y-181926190D01*
X371281425Y-182402380D02*
X371281425Y-181402380D01*
X371662377Y-181402380D01*
X371757616Y-181450000D01*
X371805235Y-181497619D01*
X371852854Y-181592857D01*
X371852854Y-181735714D01*
X371805235Y-181830952D01*
X371757616Y-181878571D01*
X371662377Y-181926190D01*
X371281425Y-181926190D01*
X372471901Y-181402380D02*
X372662377Y-181402380D01*
X372757616Y-181450000D01*
X372852854Y-181545238D01*
X372900473Y-181735714D01*
X372900473Y-182069047D01*
X372852854Y-182259523D01*
X372757616Y-182354761D01*
X372662377Y-182402380D01*
X372471901Y-182402380D01*
X372376663Y-182354761D01*
X372281425Y-182259523D01*
X372233806Y-182069047D01*
X372233806Y-181735714D01*
X372281425Y-181545238D01*
X372376663Y-181450000D01*
X372471901Y-181402380D01*
X373329044Y-182402380D02*
X373329044Y-181402380D01*
X373709997Y-181402380D01*
X373805235Y-181450000D01*
X373852854Y-181497619D01*
X373900473Y-181592857D01*
X373900473Y-181735714D01*
X373852854Y-181830952D01*
X373805235Y-181878571D01*
X373709997Y-181926190D01*
X373329044Y-181926190D01*
X374329044Y-182402380D02*
X374329044Y-181402380D01*
X374329044Y-181878571D02*
X374900473Y-181878571D01*
X374900473Y-182402380D02*
X374900473Y-181402380D01*
X375376663Y-181878571D02*
X375709997Y-181878571D01*
X375852854Y-182402380D02*
X375376663Y-182402380D01*
X375376663Y-181402380D01*
X375852854Y-181402380D01*
X376805235Y-182402380D02*
X376233806Y-182402380D01*
X376519520Y-182402380D02*
X376519520Y-181402380D01*
X376424282Y-181545238D01*
X376329044Y-181640476D01*
X376233806Y-181688095D01*
G04 #@! TO.C,I1*
X288683806Y-159202380D02*
X288683806Y-158202380D01*
X289683806Y-159202380D02*
X289112377Y-159202380D01*
X289398092Y-159202380D02*
X289398092Y-158202380D01*
X289302854Y-158345238D01*
X289207616Y-158440476D01*
X289112377Y-158488095D01*
G04 #@! TO.C,REF\u002A\u002A*
X154366663Y-239212380D02*
X154033330Y-238736190D01*
X153795235Y-239212380D02*
X153795235Y-238212380D01*
X154176187Y-238212380D01*
X154271425Y-238260000D01*
X154319044Y-238307619D01*
X154366663Y-238402857D01*
X154366663Y-238545714D01*
X154319044Y-238640952D01*
X154271425Y-238688571D01*
X154176187Y-238736190D01*
X153795235Y-238736190D01*
X154795235Y-238688571D02*
X155128568Y-238688571D01*
X155271425Y-239212380D02*
X154795235Y-239212380D01*
X154795235Y-238212380D01*
X155271425Y-238212380D01*
X156033330Y-238688571D02*
X155699997Y-238688571D01*
X155699997Y-239212380D02*
X155699997Y-238212380D01*
X156176187Y-238212380D01*
X156699997Y-238212380D02*
X156699997Y-238450476D01*
X156461901Y-238355238D02*
X156699997Y-238450476D01*
X156938092Y-238355238D01*
X156557139Y-238640952D02*
X156699997Y-238450476D01*
X156842854Y-238640952D01*
X157461901Y-238212380D02*
X157461901Y-238450476D01*
X157223806Y-238355238D02*
X157461901Y-238450476D01*
X157699997Y-238355238D01*
X157319044Y-238640952D02*
X157461901Y-238450476D01*
X157604758Y-238640952D01*
G04 #@! TO.C,W1*
X128235235Y-158202380D02*
X128473330Y-159202380D01*
X128663806Y-158488095D01*
X128854282Y-159202380D01*
X129092377Y-158202380D01*
X129997139Y-159202380D02*
X129425711Y-159202380D01*
X129711425Y-159202380D02*
X129711425Y-158202380D01*
X129616187Y-158345238D01*
X129520949Y-158440476D01*
X129425711Y-158488095D01*
G04 #@! TO.C,B1*
X235415235Y-212018571D02*
X235558092Y-212066190D01*
X235605711Y-212113809D01*
X235653330Y-212209047D01*
X235653330Y-212351904D01*
X235605711Y-212447142D01*
X235558092Y-212494761D01*
X235462854Y-212542380D01*
X235081901Y-212542380D01*
X235081901Y-211542380D01*
X235415235Y-211542380D01*
X235510473Y-211590000D01*
X235558092Y-211637619D01*
X235605711Y-211732857D01*
X235605711Y-211828095D01*
X235558092Y-211923333D01*
X235510473Y-211970952D01*
X235415235Y-212018571D01*
X235081901Y-212018571D01*
X236605711Y-212542380D02*
X236034282Y-212542380D01*
X236319997Y-212542380D02*
X236319997Y-211542380D01*
X236224758Y-211685238D01*
X236129520Y-211780476D01*
X236034282Y-211828095D01*
G04 #@! TO.C,EQUALS1*
X393362377Y-128578571D02*
X393695711Y-128578571D01*
X393838568Y-129102380D02*
X393362377Y-129102380D01*
X393362377Y-128102380D01*
X393838568Y-128102380D01*
X394933806Y-129197619D02*
X394838568Y-129150000D01*
X394743330Y-129054761D01*
X394600473Y-128911904D01*
X394505235Y-128864285D01*
X394409997Y-128864285D01*
X394457616Y-129102380D02*
X394362377Y-129054761D01*
X394267139Y-128959523D01*
X394219520Y-128769047D01*
X394219520Y-128435714D01*
X394267139Y-128245238D01*
X394362377Y-128150000D01*
X394457616Y-128102380D01*
X394648092Y-128102380D01*
X394743330Y-128150000D01*
X394838568Y-128245238D01*
X394886187Y-128435714D01*
X394886187Y-128769047D01*
X394838568Y-128959523D01*
X394743330Y-129054761D01*
X394648092Y-129102380D01*
X394457616Y-129102380D01*
X395314758Y-128102380D02*
X395314758Y-128911904D01*
X395362377Y-129007142D01*
X395409997Y-129054761D01*
X395505235Y-129102380D01*
X395695711Y-129102380D01*
X395790949Y-129054761D01*
X395838568Y-129007142D01*
X395886187Y-128911904D01*
X395886187Y-128102380D01*
X396314758Y-128816666D02*
X396790949Y-128816666D01*
X396219520Y-129102380D02*
X396552854Y-128102380D01*
X396886187Y-129102380D01*
X397695711Y-129102380D02*
X397219520Y-129102380D01*
X397219520Y-128102380D01*
X397981425Y-129054761D02*
X398124282Y-129102380D01*
X398362377Y-129102380D01*
X398457616Y-129054761D01*
X398505235Y-129007142D01*
X398552854Y-128911904D01*
X398552854Y-128816666D01*
X398505235Y-128721428D01*
X398457616Y-128673809D01*
X398362377Y-128626190D01*
X398171901Y-128578571D01*
X398076663Y-128530952D01*
X398029044Y-128483333D01*
X397981425Y-128388095D01*
X397981425Y-128292857D01*
X398029044Y-128197619D01*
X398076663Y-128150000D01*
X398171901Y-128102380D01*
X398409997Y-128102380D01*
X398552854Y-128150000D01*
X399505235Y-129102380D02*
X398933806Y-129102380D01*
X399219520Y-129102380D02*
X399219520Y-128102380D01*
X399124282Y-128245238D01*
X399029044Y-128340476D01*
X398933806Y-128388095D01*
G04 #@! TO.C,A1*
X101755711Y-185586666D02*
X102231901Y-185586666D01*
X101660473Y-185872380D02*
X101993806Y-184872380D01*
X102327139Y-185872380D01*
X103184282Y-185872380D02*
X102612854Y-185872380D01*
X102898568Y-185872380D02*
X102898568Y-184872380D01*
X102803330Y-185015238D01*
X102708092Y-185110476D01*
X102612854Y-185158095D01*
G04 #@! TO.C,ZERO1*
X340214282Y-131532380D02*
X340880949Y-131532380D01*
X340214282Y-132532380D01*
X340880949Y-132532380D01*
X341261901Y-132008571D02*
X341595235Y-132008571D01*
X341738092Y-132532380D02*
X341261901Y-132532380D01*
X341261901Y-131532380D01*
X341738092Y-131532380D01*
X342738092Y-132532380D02*
X342404758Y-132056190D01*
X342166663Y-132532380D02*
X342166663Y-131532380D01*
X342547616Y-131532380D01*
X342642854Y-131580000D01*
X342690473Y-131627619D01*
X342738092Y-131722857D01*
X342738092Y-131865714D01*
X342690473Y-131960952D01*
X342642854Y-132008571D01*
X342547616Y-132056190D01*
X342166663Y-132056190D01*
X343357139Y-131532380D02*
X343547616Y-131532380D01*
X343642854Y-131580000D01*
X343738092Y-131675238D01*
X343785711Y-131865714D01*
X343785711Y-132199047D01*
X343738092Y-132389523D01*
X343642854Y-132484761D01*
X343547616Y-132532380D01*
X343357139Y-132532380D01*
X343261901Y-132484761D01*
X343166663Y-132389523D01*
X343119044Y-132199047D01*
X343119044Y-131865714D01*
X343166663Y-131675238D01*
X343261901Y-131580000D01*
X343357139Y-131532380D01*
X344738092Y-132532380D02*
X344166663Y-132532380D01*
X344452377Y-132532380D02*
X344452377Y-131532380D01*
X344357139Y-131675238D01*
X344261901Y-131770476D01*
X344166663Y-131818095D01*
G04 #@! TO.C,EIGHT1*
X286826663Y-132008571D02*
X287159997Y-132008571D01*
X287302854Y-132532380D02*
X286826663Y-132532380D01*
X286826663Y-131532380D01*
X287302854Y-131532380D01*
X287731425Y-132532380D02*
X287731425Y-131532380D01*
X288731425Y-131580000D02*
X288636187Y-131532380D01*
X288493330Y-131532380D01*
X288350473Y-131580000D01*
X288255235Y-131675238D01*
X288207616Y-131770476D01*
X288159997Y-131960952D01*
X288159997Y-132103809D01*
X288207616Y-132294285D01*
X288255235Y-132389523D01*
X288350473Y-132484761D01*
X288493330Y-132532380D01*
X288588568Y-132532380D01*
X288731425Y-132484761D01*
X288779044Y-132437142D01*
X288779044Y-132103809D01*
X288588568Y-132103809D01*
X289207616Y-132532380D02*
X289207616Y-131532380D01*
X289207616Y-132008571D02*
X289779044Y-132008571D01*
X289779044Y-132532380D02*
X289779044Y-131532380D01*
X290112377Y-131532380D02*
X290683806Y-131532380D01*
X290398092Y-132532380D02*
X290398092Y-131532380D01*
X291540949Y-132532380D02*
X290969520Y-132532380D01*
X291255235Y-132532380D02*
X291255235Y-131532380D01*
X291159997Y-131675238D01*
X291064758Y-131770476D01*
X290969520Y-131818095D01*
G04 #@! TO.C,F13*
X181670473Y-185348571D02*
X181337139Y-185348571D01*
X181337139Y-185872380D02*
X181337139Y-184872380D01*
X181813330Y-184872380D01*
X182718092Y-185872380D02*
X182146663Y-185872380D01*
X182432377Y-185872380D02*
X182432377Y-184872380D01*
X182337139Y-185015238D01*
X182241901Y-185110476D01*
X182146663Y-185158095D01*
X183051425Y-184872380D02*
X183670473Y-184872380D01*
X183337139Y-185253333D01*
X183479997Y-185253333D01*
X183575235Y-185300952D01*
X183622854Y-185348571D01*
X183670473Y-185443809D01*
X183670473Y-185681904D01*
X183622854Y-185777142D01*
X183575235Y-185824761D01*
X183479997Y-185872380D01*
X183194282Y-185872380D01*
X183099044Y-185824761D01*
X183051425Y-185777142D01*
G04 #@! TO.C,TAB1*
X74109520Y-158202380D02*
X74680949Y-158202380D01*
X74395235Y-159202380D02*
X74395235Y-158202380D01*
X74966663Y-158916666D02*
X75442854Y-158916666D01*
X74871425Y-159202380D02*
X75204758Y-158202380D01*
X75538092Y-159202380D01*
X76204758Y-158678571D02*
X76347616Y-158726190D01*
X76395235Y-158773809D01*
X76442854Y-158869047D01*
X76442854Y-159011904D01*
X76395235Y-159107142D01*
X76347616Y-159154761D01*
X76252377Y-159202380D01*
X75871425Y-159202380D01*
X75871425Y-158202380D01*
X76204758Y-158202380D01*
X76299997Y-158250000D01*
X76347616Y-158297619D01*
X76395235Y-158392857D01*
X76395235Y-158488095D01*
X76347616Y-158583333D01*
X76299997Y-158630952D01*
X76204758Y-158678571D01*
X75871425Y-158678571D01*
X77395235Y-159202380D02*
X76823806Y-159202380D01*
X77109520Y-159202380D02*
X77109520Y-158202380D01*
X77014282Y-158345238D01*
X76919044Y-158440476D01*
X76823806Y-158488095D01*
G04 #@! TO.C,MACRO_1*
X166567139Y-262302380D02*
X166567139Y-261302380D01*
X166900473Y-262016666D01*
X167233806Y-261302380D01*
X167233806Y-262302380D01*
X167662377Y-262016666D02*
X168138568Y-262016666D01*
X167567139Y-262302380D02*
X167900473Y-261302380D01*
X168233806Y-262302380D01*
X169138568Y-262207142D02*
X169090949Y-262254761D01*
X168948092Y-262302380D01*
X168852854Y-262302380D01*
X168709997Y-262254761D01*
X168614758Y-262159523D01*
X168567139Y-262064285D01*
X168519520Y-261873809D01*
X168519520Y-261730952D01*
X168567139Y-261540476D01*
X168614758Y-261445238D01*
X168709997Y-261350000D01*
X168852854Y-261302380D01*
X168948092Y-261302380D01*
X169090949Y-261350000D01*
X169138568Y-261397619D01*
X170138568Y-262302380D02*
X169805235Y-261826190D01*
X169567139Y-262302380D02*
X169567139Y-261302380D01*
X169948092Y-261302380D01*
X170043330Y-261350000D01*
X170090949Y-261397619D01*
X170138568Y-261492857D01*
X170138568Y-261635714D01*
X170090949Y-261730952D01*
X170043330Y-261778571D01*
X169948092Y-261826190D01*
X169567139Y-261826190D01*
X170757616Y-261302380D02*
X170948092Y-261302380D01*
X171043330Y-261350000D01*
X171138568Y-261445238D01*
X171186187Y-261635714D01*
X171186187Y-261969047D01*
X171138568Y-262159523D01*
X171043330Y-262254761D01*
X170948092Y-262302380D01*
X170757616Y-262302380D01*
X170662377Y-262254761D01*
X170567139Y-262159523D01*
X170519520Y-261969047D01*
X170519520Y-261635714D01*
X170567139Y-261445238D01*
X170662377Y-261350000D01*
X170757616Y-261302380D01*
X171376663Y-262397619D02*
X172138568Y-262397619D01*
X172900473Y-262302380D02*
X172329044Y-262302380D01*
X172614758Y-262302380D02*
X172614758Y-261302380D01*
X172519520Y-261445238D01*
X172424282Y-261540476D01*
X172329044Y-261588095D01*
G04 #@! TO.C,PERIOD/LSS_THN1*
X340167139Y-209002380D02*
X340167139Y-208002380D01*
X340548092Y-208002380D01*
X340643330Y-208050000D01*
X340690949Y-208097619D01*
X340738568Y-208192857D01*
X340738568Y-208335714D01*
X340690949Y-208430952D01*
X340643330Y-208478571D01*
X340548092Y-208526190D01*
X340167139Y-208526190D01*
X341167139Y-208478571D02*
X341500473Y-208478571D01*
X341643330Y-209002380D02*
X341167139Y-209002380D01*
X341167139Y-208002380D01*
X341643330Y-208002380D01*
X342643330Y-209002380D02*
X342309997Y-208526190D01*
X342071901Y-209002380D02*
X342071901Y-208002380D01*
X342452854Y-208002380D01*
X342548092Y-208050000D01*
X342595711Y-208097619D01*
X342643330Y-208192857D01*
X342643330Y-208335714D01*
X342595711Y-208430952D01*
X342548092Y-208478571D01*
X342452854Y-208526190D01*
X342071901Y-208526190D01*
X343071901Y-209002380D02*
X343071901Y-208002380D01*
X343738568Y-208002380D02*
X343929044Y-208002380D01*
X344024282Y-208050000D01*
X344119520Y-208145238D01*
X344167139Y-208335714D01*
X344167139Y-208669047D01*
X344119520Y-208859523D01*
X344024282Y-208954761D01*
X343929044Y-209002380D01*
X343738568Y-209002380D01*
X343643330Y-208954761D01*
X343548092Y-208859523D01*
X343500473Y-208669047D01*
X343500473Y-208335714D01*
X343548092Y-208145238D01*
X343643330Y-208050000D01*
X343738568Y-208002380D01*
X344595711Y-209002380D02*
X344595711Y-208002380D01*
X344833806Y-208002380D01*
X344976663Y-208050000D01*
X345071901Y-208145238D01*
X345119520Y-208240476D01*
X345167139Y-208430952D01*
X345167139Y-208573809D01*
X345119520Y-208764285D01*
X345071901Y-208859523D01*
X344976663Y-208954761D01*
X344833806Y-209002380D01*
X344595711Y-209002380D01*
X346309997Y-207954761D02*
X345452854Y-209240476D01*
X347119520Y-209002380D02*
X346643330Y-209002380D01*
X346643330Y-208002380D01*
X347405235Y-208954761D02*
X347548092Y-209002380D01*
X347786187Y-209002380D01*
X347881425Y-208954761D01*
X347929044Y-208907142D01*
X347976663Y-208811904D01*
X347976663Y-208716666D01*
X347929044Y-208621428D01*
X347881425Y-208573809D01*
X347786187Y-208526190D01*
X347595711Y-208478571D01*
X347500473Y-208430952D01*
X347452854Y-208383333D01*
X347405235Y-208288095D01*
X347405235Y-208192857D01*
X347452854Y-208097619D01*
X347500473Y-208050000D01*
X347595711Y-208002380D01*
X347833806Y-208002380D01*
X347976663Y-208050000D01*
X348357616Y-208954761D02*
X348500473Y-209002380D01*
X348738568Y-209002380D01*
X348833806Y-208954761D01*
X348881425Y-208907142D01*
X348929044Y-208811904D01*
X348929044Y-208716666D01*
X348881425Y-208621428D01*
X348833806Y-208573809D01*
X348738568Y-208526190D01*
X348548092Y-208478571D01*
X348452854Y-208430952D01*
X348405235Y-208383333D01*
X348357616Y-208288095D01*
X348357616Y-208192857D01*
X348405235Y-208097619D01*
X348452854Y-208050000D01*
X348548092Y-208002380D01*
X348786187Y-208002380D01*
X348929044Y-208050000D01*
X349119520Y-209097619D02*
X349881425Y-209097619D01*
X349976663Y-208002380D02*
X350548092Y-208002380D01*
X350262377Y-209002380D02*
X350262377Y-208002380D01*
X350881425Y-209002380D02*
X350881425Y-208002380D01*
X350881425Y-208478571D02*
X351452854Y-208478571D01*
X351452854Y-209002380D02*
X351452854Y-208002380D01*
X351929044Y-209002380D02*
X351929044Y-208002380D01*
X352500473Y-209002380D01*
X352500473Y-208002380D01*
X353500473Y-209002380D02*
X352929044Y-209002380D01*
X353214758Y-209002380D02*
X353214758Y-208002380D01*
X353119520Y-208145238D01*
X353024282Y-208240476D01*
X352929044Y-208288095D01*
G04 #@! TO.C,X1*
X155000473Y-211542380D02*
X155667139Y-212542380D01*
X155667139Y-211542380D02*
X155000473Y-212542380D01*
X156571901Y-212542380D02*
X156000473Y-212542380D01*
X156286187Y-212542380D02*
X156286187Y-211542380D01*
X156190949Y-211685238D01*
X156095711Y-211780476D01*
X156000473Y-211828095D01*
G04 #@! TO.C,C1*
X182313330Y-212447142D02*
X182265711Y-212494761D01*
X182122854Y-212542380D01*
X182027616Y-212542380D01*
X181884758Y-212494761D01*
X181789520Y-212399523D01*
X181741901Y-212304285D01*
X181694282Y-212113809D01*
X181694282Y-211970952D01*
X181741901Y-211780476D01*
X181789520Y-211685238D01*
X181884758Y-211590000D01*
X182027616Y-211542380D01*
X182122854Y-211542380D01*
X182265711Y-211590000D01*
X182313330Y-211637619D01*
X183265711Y-212542380D02*
X182694282Y-212542380D01*
X182979997Y-212542380D02*
X182979997Y-211542380D01*
X182884758Y-211685238D01*
X182789520Y-211780476D01*
X182694282Y-211828095D01*
G04 #@! TO.C,Y1*
X235343806Y-158726190D02*
X235343806Y-159202380D01*
X235010473Y-158202380D02*
X235343806Y-158726190D01*
X235677139Y-158202380D01*
X236534282Y-159202380D02*
X235962854Y-159202380D01*
X236248568Y-159202380D02*
X236248568Y-158202380D01*
X236153330Y-158345238D01*
X236058092Y-158440476D01*
X235962854Y-158488095D01*
G04 #@! TO.C,F8*
X288826663Y-105338571D02*
X288493330Y-105338571D01*
X288493330Y-105862380D02*
X288493330Y-104862380D01*
X288969520Y-104862380D01*
X289493330Y-105290952D02*
X289398092Y-105243333D01*
X289350473Y-105195714D01*
X289302854Y-105100476D01*
X289302854Y-105052857D01*
X289350473Y-104957619D01*
X289398092Y-104910000D01*
X289493330Y-104862380D01*
X289683806Y-104862380D01*
X289779044Y-104910000D01*
X289826663Y-104957619D01*
X289874282Y-105052857D01*
X289874282Y-105100476D01*
X289826663Y-105195714D01*
X289779044Y-105243333D01*
X289683806Y-105290952D01*
X289493330Y-105290952D01*
X289398092Y-105338571D01*
X289350473Y-105386190D01*
X289302854Y-105481428D01*
X289302854Y-105671904D01*
X289350473Y-105767142D01*
X289398092Y-105814761D01*
X289493330Y-105862380D01*
X289683806Y-105862380D01*
X289779044Y-105814761D01*
X289826663Y-105767142D01*
X289874282Y-105671904D01*
X289874282Y-105481428D01*
X289826663Y-105386190D01*
X289779044Y-105338571D01*
X289683806Y-105290952D01*
G04 #@! TO.C,D1*
X155071901Y-185872380D02*
X155071901Y-184872380D01*
X155309997Y-184872380D01*
X155452854Y-184920000D01*
X155548092Y-185015238D01*
X155595711Y-185110476D01*
X155643330Y-185300952D01*
X155643330Y-185443809D01*
X155595711Y-185634285D01*
X155548092Y-185729523D01*
X155452854Y-185824761D01*
X155309997Y-185872380D01*
X155071901Y-185872380D01*
X156595711Y-185872380D02*
X156024282Y-185872380D01*
X156309997Y-185872380D02*
X156309997Y-184872380D01*
X156214758Y-185015238D01*
X156119520Y-185110476D01*
X156024282Y-185158095D01*
G04 #@! TO.C,MACRO_3*
X273167139Y-262502380D02*
X273167139Y-261502380D01*
X273500473Y-262216666D01*
X273833806Y-261502380D01*
X273833806Y-262502380D01*
X274262377Y-262216666D02*
X274738568Y-262216666D01*
X274167139Y-262502380D02*
X274500473Y-261502380D01*
X274833806Y-262502380D01*
X275738568Y-262407142D02*
X275690949Y-262454761D01*
X275548092Y-262502380D01*
X275452854Y-262502380D01*
X275309997Y-262454761D01*
X275214758Y-262359523D01*
X275167139Y-262264285D01*
X275119520Y-262073809D01*
X275119520Y-261930952D01*
X275167139Y-261740476D01*
X275214758Y-261645238D01*
X275309997Y-261550000D01*
X275452854Y-261502380D01*
X275548092Y-261502380D01*
X275690949Y-261550000D01*
X275738568Y-261597619D01*
X276738568Y-262502380D02*
X276405235Y-262026190D01*
X276167139Y-262502380D02*
X276167139Y-261502380D01*
X276548092Y-261502380D01*
X276643330Y-261550000D01*
X276690949Y-261597619D01*
X276738568Y-261692857D01*
X276738568Y-261835714D01*
X276690949Y-261930952D01*
X276643330Y-261978571D01*
X276548092Y-262026190D01*
X276167139Y-262026190D01*
X277357616Y-261502380D02*
X277548092Y-261502380D01*
X277643330Y-261550000D01*
X277738568Y-261645238D01*
X277786187Y-261835714D01*
X277786187Y-262169047D01*
X277738568Y-262359523D01*
X277643330Y-262454761D01*
X277548092Y-262502380D01*
X277357616Y-262502380D01*
X277262377Y-262454761D01*
X277167139Y-262359523D01*
X277119520Y-262169047D01*
X277119520Y-261835714D01*
X277167139Y-261645238D01*
X277262377Y-261550000D01*
X277357616Y-261502380D01*
X277976663Y-262597619D02*
X278738568Y-262597619D01*
X278881425Y-261502380D02*
X279500473Y-261502380D01*
X279167139Y-261883333D01*
X279309997Y-261883333D01*
X279405235Y-261930952D01*
X279452854Y-261978571D01*
X279500473Y-262073809D01*
X279500473Y-262311904D01*
X279452854Y-262407142D01*
X279405235Y-262454761D01*
X279309997Y-262502380D01*
X279024282Y-262502380D01*
X278929044Y-262454761D01*
X278881425Y-262407142D01*
G04 #@! TO.C,BACKSPACE1*
X420619520Y-128378571D02*
X420762377Y-128426190D01*
X420809997Y-128473809D01*
X420857616Y-128569047D01*
X420857616Y-128711904D01*
X420809997Y-128807142D01*
X420762377Y-128854761D01*
X420667139Y-128902380D01*
X420286187Y-128902380D01*
X420286187Y-127902380D01*
X420619520Y-127902380D01*
X420714758Y-127950000D01*
X420762377Y-127997619D01*
X420809997Y-128092857D01*
X420809997Y-128188095D01*
X420762377Y-128283333D01*
X420714758Y-128330952D01*
X420619520Y-128378571D01*
X420286187Y-128378571D01*
X421238568Y-128616666D02*
X421714758Y-128616666D01*
X421143330Y-128902380D02*
X421476663Y-127902380D01*
X421809997Y-128902380D01*
X422714758Y-128807142D02*
X422667139Y-128854761D01*
X422524282Y-128902380D01*
X422429044Y-128902380D01*
X422286187Y-128854761D01*
X422190949Y-128759523D01*
X422143330Y-128664285D01*
X422095711Y-128473809D01*
X422095711Y-128330952D01*
X422143330Y-128140476D01*
X422190949Y-128045238D01*
X422286187Y-127950000D01*
X422429044Y-127902380D01*
X422524282Y-127902380D01*
X422667139Y-127950000D01*
X422714758Y-127997619D01*
X423143330Y-128902380D02*
X423143330Y-127902380D01*
X423714758Y-128902380D02*
X423286187Y-128330952D01*
X423714758Y-127902380D02*
X423143330Y-128473809D01*
X424095711Y-128854761D02*
X424238568Y-128902380D01*
X424476663Y-128902380D01*
X424571901Y-128854761D01*
X424619520Y-128807142D01*
X424667139Y-128711904D01*
X424667139Y-128616666D01*
X424619520Y-128521428D01*
X424571901Y-128473809D01*
X424476663Y-128426190D01*
X424286187Y-128378571D01*
X424190949Y-128330952D01*
X424143330Y-128283333D01*
X424095711Y-128188095D01*
X424095711Y-128092857D01*
X424143330Y-127997619D01*
X424190949Y-127950000D01*
X424286187Y-127902380D01*
X424524282Y-127902380D01*
X424667139Y-127950000D01*
X425095711Y-128902380D02*
X425095711Y-127902380D01*
X425476663Y-127902380D01*
X425571901Y-127950000D01*
X425619520Y-127997619D01*
X425667139Y-128092857D01*
X425667139Y-128235714D01*
X425619520Y-128330952D01*
X425571901Y-128378571D01*
X425476663Y-128426190D01*
X425095711Y-128426190D01*
X426048092Y-128616666D02*
X426524282Y-128616666D01*
X425952854Y-128902380D02*
X426286187Y-127902380D01*
X426619520Y-128902380D01*
X427524282Y-128807142D02*
X427476663Y-128854761D01*
X427333806Y-128902380D01*
X427238568Y-128902380D01*
X427095711Y-128854761D01*
X427000473Y-128759523D01*
X426952854Y-128664285D01*
X426905235Y-128473809D01*
X426905235Y-128330952D01*
X426952854Y-128140476D01*
X427000473Y-128045238D01*
X427095711Y-127950000D01*
X427238568Y-127902380D01*
X427333806Y-127902380D01*
X427476663Y-127950000D01*
X427524282Y-127997619D01*
X427952854Y-128378571D02*
X428286187Y-128378571D01*
X428429044Y-128902380D02*
X427952854Y-128902380D01*
X427952854Y-127902380D01*
X428429044Y-127902380D01*
X429381425Y-128902380D02*
X428809997Y-128902380D01*
X429095711Y-128902380D02*
X429095711Y-127902380D01*
X429000473Y-128045238D01*
X428905235Y-128140476D01*
X428809997Y-128188095D01*
G04 #@! TO.C,T1*
X208388092Y-158202380D02*
X208959520Y-158202380D01*
X208673806Y-159202380D02*
X208673806Y-158202380D01*
X209816663Y-159202380D02*
X209245235Y-159202380D01*
X209530949Y-159202380D02*
X209530949Y-158202380D01*
X209435711Y-158345238D01*
X209340473Y-158440476D01*
X209245235Y-158488095D01*
G04 #@! TO.C,MINUS1*
X366598568Y-132532380D02*
X366598568Y-131532380D01*
X366931901Y-132246666D01*
X367265235Y-131532380D01*
X367265235Y-132532380D01*
X367741425Y-132532380D02*
X367741425Y-131532380D01*
X368217616Y-132532380D02*
X368217616Y-131532380D01*
X368789044Y-132532380D01*
X368789044Y-131532380D01*
X369265235Y-131532380D02*
X369265235Y-132341904D01*
X369312854Y-132437142D01*
X369360473Y-132484761D01*
X369455711Y-132532380D01*
X369646187Y-132532380D01*
X369741425Y-132484761D01*
X369789044Y-132437142D01*
X369836663Y-132341904D01*
X369836663Y-131532380D01*
X370265235Y-132484761D02*
X370408092Y-132532380D01*
X370646187Y-132532380D01*
X370741425Y-132484761D01*
X370789044Y-132437142D01*
X370836663Y-132341904D01*
X370836663Y-132246666D01*
X370789044Y-132151428D01*
X370741425Y-132103809D01*
X370646187Y-132056190D01*
X370455711Y-132008571D01*
X370360473Y-131960952D01*
X370312854Y-131913333D01*
X370265235Y-131818095D01*
X370265235Y-131722857D01*
X370312854Y-131627619D01*
X370360473Y-131580000D01*
X370455711Y-131532380D01*
X370693806Y-131532380D01*
X370836663Y-131580000D01*
X371789044Y-132532380D02*
X371217616Y-132532380D01*
X371503330Y-132532380D02*
X371503330Y-131532380D01*
X371408092Y-131675238D01*
X371312854Y-131770476D01*
X371217616Y-131818095D01*
G04 #@! TO.C,/1*
X369122377Y-211494761D02*
X368265235Y-212780476D01*
X369979520Y-212542380D02*
X369408092Y-212542380D01*
X369693806Y-212542380D02*
X369693806Y-211542380D01*
X369598568Y-211685238D01*
X369503330Y-211780476D01*
X369408092Y-211828095D01*
G04 #@! TO.C,M1*
X288350473Y-212542380D02*
X288350473Y-211542380D01*
X288683806Y-212256666D01*
X289017139Y-211542380D01*
X289017139Y-212542380D01*
X290017139Y-212542380D02*
X289445711Y-212542380D01*
X289731425Y-212542380D02*
X289731425Y-211542380D01*
X289636187Y-211685238D01*
X289540949Y-211780476D01*
X289445711Y-211828095D01*
G04 #@! TO.C,UP_ARROW1*
X393443330Y-234802380D02*
X393443330Y-235611904D01*
X393490949Y-235707142D01*
X393538568Y-235754761D01*
X393633806Y-235802380D01*
X393824282Y-235802380D01*
X393919520Y-235754761D01*
X393967139Y-235707142D01*
X394014758Y-235611904D01*
X394014758Y-234802380D01*
X394490949Y-235802380D02*
X394490949Y-234802380D01*
X394871901Y-234802380D01*
X394967139Y-234850000D01*
X395014758Y-234897619D01*
X395062377Y-234992857D01*
X395062377Y-235135714D01*
X395014758Y-235230952D01*
X394967139Y-235278571D01*
X394871901Y-235326190D01*
X394490949Y-235326190D01*
X395252854Y-235897619D02*
X396014758Y-235897619D01*
X396205235Y-235516666D02*
X396681425Y-235516666D01*
X396109997Y-235802380D02*
X396443330Y-234802380D01*
X396776663Y-235802380D01*
X397681425Y-235802380D02*
X397348092Y-235326190D01*
X397109997Y-235802380D02*
X397109997Y-234802380D01*
X397490949Y-234802380D01*
X397586187Y-234850000D01*
X397633806Y-234897619D01*
X397681425Y-234992857D01*
X397681425Y-235135714D01*
X397633806Y-235230952D01*
X397586187Y-235278571D01*
X397490949Y-235326190D01*
X397109997Y-235326190D01*
X398681425Y-235802380D02*
X398348092Y-235326190D01*
X398109997Y-235802380D02*
X398109997Y-234802380D01*
X398490949Y-234802380D01*
X398586187Y-234850000D01*
X398633806Y-234897619D01*
X398681425Y-234992857D01*
X398681425Y-235135714D01*
X398633806Y-235230952D01*
X398586187Y-235278571D01*
X398490949Y-235326190D01*
X398109997Y-235326190D01*
X399300473Y-234802380D02*
X399490949Y-234802380D01*
X399586187Y-234850000D01*
X399681425Y-234945238D01*
X399729044Y-235135714D01*
X399729044Y-235469047D01*
X399681425Y-235659523D01*
X399586187Y-235754761D01*
X399490949Y-235802380D01*
X399300473Y-235802380D01*
X399205235Y-235754761D01*
X399109997Y-235659523D01*
X399062377Y-235469047D01*
X399062377Y-235135714D01*
X399109997Y-234945238D01*
X399205235Y-234850000D01*
X399300473Y-234802380D01*
X400062377Y-234802380D02*
X400300473Y-235802380D01*
X400490949Y-235088095D01*
X400681425Y-235802380D01*
X400919520Y-234802380D01*
X401824282Y-235802380D02*
X401252854Y-235802380D01*
X401538568Y-235802380D02*
X401538568Y-234802380D01*
X401443330Y-234945238D01*
X401348092Y-235040476D01*
X401252854Y-235088095D01*
G04 #@! TO.C,F7*
X262156663Y-105338571D02*
X261823330Y-105338571D01*
X261823330Y-105862380D02*
X261823330Y-104862380D01*
X262299520Y-104862380D01*
X262585235Y-104862380D02*
X263251901Y-104862380D01*
X262823330Y-105862380D01*
G04 #@! TO.C,Z1*
X128330473Y-211542380D02*
X128997139Y-211542380D01*
X128330473Y-212542380D01*
X128997139Y-212542380D01*
X129901901Y-212542380D02*
X129330473Y-212542380D01*
X129616187Y-212542380D02*
X129616187Y-211542380D01*
X129520949Y-211685238D01*
X129425711Y-211780476D01*
X129330473Y-211828095D01*
G04 #@! TO.C,MACRO_2*
X219867139Y-262102380D02*
X219867139Y-261102380D01*
X220200473Y-261816666D01*
X220533806Y-261102380D01*
X220533806Y-262102380D01*
X220962377Y-261816666D02*
X221438568Y-261816666D01*
X220867139Y-262102380D02*
X221200473Y-261102380D01*
X221533806Y-262102380D01*
X222438568Y-262007142D02*
X222390949Y-262054761D01*
X222248092Y-262102380D01*
X222152854Y-262102380D01*
X222009997Y-262054761D01*
X221914758Y-261959523D01*
X221867139Y-261864285D01*
X221819520Y-261673809D01*
X221819520Y-261530952D01*
X221867139Y-261340476D01*
X221914758Y-261245238D01*
X222009997Y-261150000D01*
X222152854Y-261102380D01*
X222248092Y-261102380D01*
X222390949Y-261150000D01*
X222438568Y-261197619D01*
X223438568Y-262102380D02*
X223105235Y-261626190D01*
X222867139Y-262102380D02*
X222867139Y-261102380D01*
X223248092Y-261102380D01*
X223343330Y-261150000D01*
X223390949Y-261197619D01*
X223438568Y-261292857D01*
X223438568Y-261435714D01*
X223390949Y-261530952D01*
X223343330Y-261578571D01*
X223248092Y-261626190D01*
X222867139Y-261626190D01*
X224057616Y-261102380D02*
X224248092Y-261102380D01*
X224343330Y-261150000D01*
X224438568Y-261245238D01*
X224486187Y-261435714D01*
X224486187Y-261769047D01*
X224438568Y-261959523D01*
X224343330Y-262054761D01*
X224248092Y-262102380D01*
X224057616Y-262102380D01*
X223962377Y-262054761D01*
X223867139Y-261959523D01*
X223819520Y-261769047D01*
X223819520Y-261435714D01*
X223867139Y-261245238D01*
X223962377Y-261150000D01*
X224057616Y-261102380D01*
X224676663Y-262197619D02*
X225438568Y-262197619D01*
X225629044Y-261197619D02*
X225676663Y-261150000D01*
X225771901Y-261102380D01*
X226009997Y-261102380D01*
X226105235Y-261150000D01*
X226152854Y-261197619D01*
X226200473Y-261292857D01*
X226200473Y-261388095D01*
X226152854Y-261530952D01*
X225581425Y-262102380D01*
X226200473Y-262102380D01*
G04 #@! TO.C,F4*
X182146663Y-105338571D02*
X181813330Y-105338571D01*
X181813330Y-105862380D02*
X181813330Y-104862380D01*
X182289520Y-104862380D01*
X183099044Y-105195714D02*
X183099044Y-105862380D01*
X182860949Y-104814761D02*
X182622854Y-105529047D01*
X183241901Y-105529047D01*
G04 #@! TO.C,Q1*
X102374758Y-159297619D02*
X102279520Y-159250000D01*
X102184282Y-159154761D01*
X102041425Y-159011904D01*
X101946187Y-158964285D01*
X101850949Y-158964285D01*
X101898568Y-159202380D02*
X101803330Y-159154761D01*
X101708092Y-159059523D01*
X101660473Y-158869047D01*
X101660473Y-158535714D01*
X101708092Y-158345238D01*
X101803330Y-158250000D01*
X101898568Y-158202380D01*
X102089044Y-158202380D01*
X102184282Y-158250000D01*
X102279520Y-158345238D01*
X102327139Y-158535714D01*
X102327139Y-158869047D01*
X102279520Y-159059523D01*
X102184282Y-159154761D01*
X102089044Y-159202380D01*
X101898568Y-159202380D01*
X103279520Y-159202380D02*
X102708092Y-159202380D01*
X102993806Y-159202380D02*
X102993806Y-158202380D01*
X102898568Y-158345238D01*
X102803330Y-158440476D01*
X102708092Y-158488095D01*
G04 #@! TO.C,BACK_TICK/TILDE1*
X73576663Y-128378571D02*
X73719520Y-128426190D01*
X73767139Y-128473809D01*
X73814758Y-128569047D01*
X73814758Y-128711904D01*
X73767139Y-128807142D01*
X73719520Y-128854761D01*
X73624282Y-128902380D01*
X73243330Y-128902380D01*
X73243330Y-127902380D01*
X73576663Y-127902380D01*
X73671901Y-127950000D01*
X73719520Y-127997619D01*
X73767139Y-128092857D01*
X73767139Y-128188095D01*
X73719520Y-128283333D01*
X73671901Y-128330952D01*
X73576663Y-128378571D01*
X73243330Y-128378571D01*
X74195711Y-128616666D02*
X74671901Y-128616666D01*
X74100473Y-128902380D02*
X74433806Y-127902380D01*
X74767139Y-128902380D01*
X75671901Y-128807142D02*
X75624282Y-128854761D01*
X75481425Y-128902380D01*
X75386187Y-128902380D01*
X75243330Y-128854761D01*
X75148092Y-128759523D01*
X75100473Y-128664285D01*
X75052854Y-128473809D01*
X75052854Y-128330952D01*
X75100473Y-128140476D01*
X75148092Y-128045238D01*
X75243330Y-127950000D01*
X75386187Y-127902380D01*
X75481425Y-127902380D01*
X75624282Y-127950000D01*
X75671901Y-127997619D01*
X76100473Y-128902380D02*
X76100473Y-127902380D01*
X76671901Y-128902380D02*
X76243330Y-128330952D01*
X76671901Y-127902380D02*
X76100473Y-128473809D01*
X76862377Y-128997619D02*
X77624282Y-128997619D01*
X77719520Y-127902380D02*
X78290949Y-127902380D01*
X78005235Y-128902380D02*
X78005235Y-127902380D01*
X78624282Y-128902380D02*
X78624282Y-127902380D01*
X79671901Y-128807142D02*
X79624282Y-128854761D01*
X79481425Y-128902380D01*
X79386187Y-128902380D01*
X79243330Y-128854761D01*
X79148092Y-128759523D01*
X79100473Y-128664285D01*
X79052854Y-128473809D01*
X79052854Y-128330952D01*
X79100473Y-128140476D01*
X79148092Y-128045238D01*
X79243330Y-127950000D01*
X79386187Y-127902380D01*
X79481425Y-127902380D01*
X79624282Y-127950000D01*
X79671901Y-127997619D01*
X80100473Y-128902380D02*
X80100473Y-127902380D01*
X80671901Y-128902380D02*
X80243330Y-128330952D01*
X80671901Y-127902380D02*
X80100473Y-128473809D01*
X81814758Y-127854761D02*
X80957616Y-129140476D01*
X82005235Y-127902380D02*
X82576663Y-127902380D01*
X82290949Y-128902380D02*
X82290949Y-127902380D01*
X82909997Y-128902380D02*
X82909997Y-127902380D01*
X83862377Y-128902380D02*
X83386187Y-128902380D01*
X83386187Y-127902380D01*
X84195711Y-128902380D02*
X84195711Y-127902380D01*
X84433806Y-127902380D01*
X84576663Y-127950000D01*
X84671901Y-128045238D01*
X84719520Y-128140476D01*
X84767139Y-128330952D01*
X84767139Y-128473809D01*
X84719520Y-128664285D01*
X84671901Y-128759523D01*
X84576663Y-128854761D01*
X84433806Y-128902380D01*
X84195711Y-128902380D01*
X85195711Y-128378571D02*
X85529044Y-128378571D01*
X85671901Y-128902380D02*
X85195711Y-128902380D01*
X85195711Y-127902380D01*
X85671901Y-127902380D01*
X86624282Y-128902380D02*
X86052854Y-128902380D01*
X86338568Y-128902380D02*
X86338568Y-127902380D01*
X86243330Y-128045238D01*
X86148092Y-128140476D01*
X86052854Y-128188095D01*
G04 #@! TO.C,NINE1*
X313853806Y-132532380D02*
X313853806Y-131532380D01*
X314425235Y-132532380D01*
X314425235Y-131532380D01*
X314901425Y-132532380D02*
X314901425Y-131532380D01*
X315377616Y-132532380D02*
X315377616Y-131532380D01*
X315949044Y-132532380D01*
X315949044Y-131532380D01*
X316425235Y-132008571D02*
X316758568Y-132008571D01*
X316901425Y-132532380D02*
X316425235Y-132532380D01*
X316425235Y-131532380D01*
X316901425Y-131532380D01*
X317853806Y-132532380D02*
X317282377Y-132532380D01*
X317568092Y-132532380D02*
X317568092Y-131532380D01*
X317472854Y-131675238D01*
X317377616Y-131770476D01*
X317282377Y-131818095D01*
G04 #@! TO.C,N1*
X261728092Y-212542380D02*
X261728092Y-211542380D01*
X262299520Y-212542380D01*
X262299520Y-211542380D01*
X263299520Y-212542380D02*
X262728092Y-212542380D01*
X263013806Y-212542380D02*
X263013806Y-211542380D01*
X262918568Y-211685238D01*
X262823330Y-211780476D01*
X262728092Y-211828095D01*
G04 #@! TO.C,THREE1*
X153119520Y-131532380D02*
X153690949Y-131532380D01*
X153405235Y-132532380D02*
X153405235Y-131532380D01*
X154024282Y-132532380D02*
X154024282Y-131532380D01*
X154024282Y-132008571D02*
X154595711Y-132008571D01*
X154595711Y-132532380D02*
X154595711Y-131532380D01*
X155643330Y-132532380D02*
X155309997Y-132056190D01*
X155071901Y-132532380D02*
X155071901Y-131532380D01*
X155452854Y-131532380D01*
X155548092Y-131580000D01*
X155595711Y-131627619D01*
X155643330Y-131722857D01*
X155643330Y-131865714D01*
X155595711Y-131960952D01*
X155548092Y-132008571D01*
X155452854Y-132056190D01*
X155071901Y-132056190D01*
X156071901Y-132008571D02*
X156405235Y-132008571D01*
X156548092Y-132532380D02*
X156071901Y-132532380D01*
X156071901Y-131532380D01*
X156548092Y-131532380D01*
X156976663Y-132008571D02*
X157309997Y-132008571D01*
X157452854Y-132532380D02*
X156976663Y-132532380D01*
X156976663Y-131532380D01*
X157452854Y-131532380D01*
X158405235Y-132532380D02*
X157833806Y-132532380D01*
X158119520Y-132532380D02*
X158119520Y-131532380D01*
X158024282Y-131675238D01*
X157929044Y-131770476D01*
X157833806Y-131818095D01*
G04 #@! TO.C,ENTER1*
X406627377Y-185348571D02*
X406960711Y-185348571D01*
X407103568Y-185872380D02*
X406627377Y-185872380D01*
X406627377Y-184872380D01*
X407103568Y-184872380D01*
X407532139Y-185872380D02*
X407532139Y-184872380D01*
X408103568Y-185872380D01*
X408103568Y-184872380D01*
X408436901Y-184872380D02*
X409008330Y-184872380D01*
X408722616Y-185872380D02*
X408722616Y-184872380D01*
X409341663Y-185348571D02*
X409674997Y-185348571D01*
X409817854Y-185872380D02*
X409341663Y-185872380D01*
X409341663Y-184872380D01*
X409817854Y-184872380D01*
X410817854Y-185872380D02*
X410484520Y-185396190D01*
X410246425Y-185872380D02*
X410246425Y-184872380D01*
X410627377Y-184872380D01*
X410722616Y-184920000D01*
X410770235Y-184967619D01*
X410817854Y-185062857D01*
X410817854Y-185205714D01*
X410770235Y-185300952D01*
X410722616Y-185348571D01*
X410627377Y-185396190D01*
X410246425Y-185396190D01*
X411770235Y-185872380D02*
X411198806Y-185872380D01*
X411484520Y-185872380D02*
X411484520Y-184872380D01*
X411389282Y-185015238D01*
X411294044Y-185110476D01*
X411198806Y-185158095D01*
G04 #@! TO.C,R2*
X182313330Y-159202380D02*
X181979997Y-158726190D01*
X181741901Y-159202380D02*
X181741901Y-158202380D01*
X182122854Y-158202380D01*
X182218092Y-158250000D01*
X182265711Y-158297619D01*
X182313330Y-158392857D01*
X182313330Y-158535714D01*
X182265711Y-158630952D01*
X182218092Y-158678571D01*
X182122854Y-158726190D01*
X181741901Y-158726190D01*
X182694282Y-158297619D02*
X182741901Y-158250000D01*
X182837139Y-158202380D01*
X183075235Y-158202380D01*
X183170473Y-158250000D01*
X183218092Y-158297619D01*
X183265711Y-158392857D01*
X183265711Y-158488095D01*
X183218092Y-158630952D01*
X182646663Y-159202380D01*
X183265711Y-159202380D01*
G04 #@! TO.C,ONE1*
X100922377Y-131532380D02*
X101112854Y-131532380D01*
X101208092Y-131580000D01*
X101303330Y-131675238D01*
X101350949Y-131865714D01*
X101350949Y-132199047D01*
X101303330Y-132389523D01*
X101208092Y-132484761D01*
X101112854Y-132532380D01*
X100922377Y-132532380D01*
X100827139Y-132484761D01*
X100731901Y-132389523D01*
X100684282Y-132199047D01*
X100684282Y-131865714D01*
X100731901Y-131675238D01*
X100827139Y-131580000D01*
X100922377Y-131532380D01*
X101779520Y-132532380D02*
X101779520Y-131532380D01*
X102350949Y-132532380D01*
X102350949Y-131532380D01*
X102827139Y-132008571D02*
X103160473Y-132008571D01*
X103303330Y-132532380D02*
X102827139Y-132532380D01*
X102827139Y-131532380D01*
X103303330Y-131532380D01*
X104255711Y-132532380D02*
X103684282Y-132532380D01*
X103969997Y-132532380D02*
X103969997Y-131532380D01*
X103874758Y-131675238D01*
X103779520Y-131770476D01*
X103684282Y-131818095D01*
G04 #@! TO.C,R_ALT1*
X314068092Y-239212380D02*
X313734758Y-238736190D01*
X313496663Y-239212380D02*
X313496663Y-238212380D01*
X313877616Y-238212380D01*
X313972854Y-238260000D01*
X314020473Y-238307619D01*
X314068092Y-238402857D01*
X314068092Y-238545714D01*
X314020473Y-238640952D01*
X313972854Y-238688571D01*
X313877616Y-238736190D01*
X313496663Y-238736190D01*
X314258568Y-239307619D02*
X315020473Y-239307619D01*
X315210949Y-238926666D02*
X315687139Y-238926666D01*
X315115711Y-239212380D02*
X315449044Y-238212380D01*
X315782377Y-239212380D01*
X316591901Y-239212380D02*
X316115711Y-239212380D01*
X316115711Y-238212380D01*
X316782377Y-238212380D02*
X317353806Y-238212380D01*
X317068092Y-239212380D02*
X317068092Y-238212380D01*
X318210949Y-239212380D02*
X317639520Y-239212380D01*
X317925235Y-239212380D02*
X317925235Y-238212380D01*
X317829997Y-238355238D01*
X317734758Y-238450476D01*
X317639520Y-238498095D01*
G04 #@! TO.C,V1*
X208340473Y-211542380D02*
X208673806Y-212542380D01*
X209007139Y-211542380D01*
X209864282Y-212542380D02*
X209292854Y-212542380D01*
X209578568Y-212542380D02*
X209578568Y-211542380D01*
X209483330Y-211685238D01*
X209388092Y-211780476D01*
X209292854Y-211828095D01*
G04 #@! TO.C,E1*
X155119520Y-158678571D02*
X155452854Y-158678571D01*
X155595711Y-159202380D02*
X155119520Y-159202380D01*
X155119520Y-158202380D01*
X155595711Y-158202380D01*
X156548092Y-159202380D02*
X155976663Y-159202380D01*
X156262377Y-159202380D02*
X156262377Y-158202380D01*
X156167139Y-158345238D01*
X156071901Y-158440476D01*
X155976663Y-158488095D01*
G04 #@! TO.C,R_CTRL1*
X353776663Y-235702380D02*
X353443330Y-235226190D01*
X353205235Y-235702380D02*
X353205235Y-234702380D01*
X353586187Y-234702380D01*
X353681425Y-234750000D01*
X353729044Y-234797619D01*
X353776663Y-234892857D01*
X353776663Y-235035714D01*
X353729044Y-235130952D01*
X353681425Y-235178571D01*
X353586187Y-235226190D01*
X353205235Y-235226190D01*
X353967139Y-235797619D02*
X354729044Y-235797619D01*
X355538568Y-235607142D02*
X355490949Y-235654761D01*
X355348092Y-235702380D01*
X355252854Y-235702380D01*
X355109997Y-235654761D01*
X355014758Y-235559523D01*
X354967139Y-235464285D01*
X354919520Y-235273809D01*
X354919520Y-235130952D01*
X354967139Y-234940476D01*
X355014758Y-234845238D01*
X355109997Y-234750000D01*
X355252854Y-234702380D01*
X355348092Y-234702380D01*
X355490949Y-234750000D01*
X355538568Y-234797619D01*
X355824282Y-234702380D02*
X356395711Y-234702380D01*
X356109997Y-235702380D02*
X356109997Y-234702380D01*
X357300473Y-235702380D02*
X356967139Y-235226190D01*
X356729044Y-235702380D02*
X356729044Y-234702380D01*
X357109997Y-234702380D01*
X357205235Y-234750000D01*
X357252854Y-234797619D01*
X357300473Y-234892857D01*
X357300473Y-235035714D01*
X357252854Y-235130952D01*
X357205235Y-235178571D01*
X357109997Y-235226190D01*
X356729044Y-235226190D01*
X358205235Y-235702380D02*
X357729044Y-235702380D01*
X357729044Y-234702380D01*
X359062377Y-235702380D02*
X358490949Y-235702380D01*
X358776663Y-235702380D02*
X358776663Y-234702380D01*
X358681425Y-234845238D01*
X358586187Y-234940476D01*
X358490949Y-234988095D01*
G04 #@! TO.C,F3*
X155476663Y-105338571D02*
X155143330Y-105338571D01*
X155143330Y-105862380D02*
X155143330Y-104862380D01*
X155619520Y-104862380D01*
X155905235Y-104862380D02*
X156524282Y-104862380D01*
X156190949Y-105243333D01*
X156333806Y-105243333D01*
X156429044Y-105290952D01*
X156476663Y-105338571D01*
X156524282Y-105433809D01*
X156524282Y-105671904D01*
X156476663Y-105767142D01*
X156429044Y-105814761D01*
X156333806Y-105862380D01*
X156048092Y-105862380D01*
X155952854Y-105814761D01*
X155905235Y-105767142D01*
G04 #@! TO.C,[1*
X368884282Y-159535714D02*
X368646187Y-159535714D01*
X368646187Y-158107142D01*
X368884282Y-158107142D01*
X369789044Y-159202380D02*
X369217616Y-159202380D01*
X369503330Y-159202380D02*
X369503330Y-158202380D01*
X369408092Y-158345238D01*
X369312854Y-158440476D01*
X369217616Y-158488095D01*
G04 #@! TO.C,DEL1*
X420914758Y-105862380D02*
X420914758Y-104862380D01*
X421152854Y-104862380D01*
X421295711Y-104910000D01*
X421390949Y-105005238D01*
X421438568Y-105100476D01*
X421486187Y-105290952D01*
X421486187Y-105433809D01*
X421438568Y-105624285D01*
X421390949Y-105719523D01*
X421295711Y-105814761D01*
X421152854Y-105862380D01*
X420914758Y-105862380D01*
X421914758Y-105338571D02*
X422248092Y-105338571D01*
X422390949Y-105862380D02*
X421914758Y-105862380D01*
X421914758Y-104862380D01*
X422390949Y-104862380D01*
X423295711Y-105862380D02*
X422819520Y-105862380D01*
X422819520Y-104862380D01*
X424152854Y-105862380D02*
X423581425Y-105862380D01*
X423867139Y-105862380D02*
X423867139Y-104862380D01*
X423771901Y-105005238D01*
X423676663Y-105100476D01*
X423581425Y-105148095D01*
G04 #@! TO.C,\u005C1*
X421605235Y-158107142D02*
X422462377Y-159392857D01*
X423129044Y-159202380D02*
X422557616Y-159202380D01*
X422843330Y-159202380D02*
X422843330Y-158202380D01*
X422748092Y-158345238D01*
X422652854Y-158440476D01*
X422557616Y-158488095D01*
G04 #@! TO.C,L_ALT1*
X127378092Y-239212380D02*
X126901901Y-239212380D01*
X126901901Y-238212380D01*
X127473330Y-239307619D02*
X128235235Y-239307619D01*
X128425711Y-238926666D02*
X128901901Y-238926666D01*
X128330473Y-239212380D02*
X128663806Y-238212380D01*
X128997139Y-239212380D01*
X129806663Y-239212380D02*
X129330473Y-239212380D01*
X129330473Y-238212380D01*
X129997139Y-238212380D02*
X130568568Y-238212380D01*
X130282854Y-239212380D02*
X130282854Y-238212380D01*
X131425711Y-239212380D02*
X130854282Y-239212380D01*
X131139997Y-239212380D02*
X131139997Y-238212380D01*
X131044758Y-238355238D01*
X130949520Y-238450476D01*
X130854282Y-238498095D01*
G04 #@! TO.C,P1*
X341761901Y-159202380D02*
X341761901Y-158202380D01*
X342142854Y-158202380D01*
X342238092Y-158250000D01*
X342285711Y-158297619D01*
X342333330Y-158392857D01*
X342333330Y-158535714D01*
X342285711Y-158630952D01*
X342238092Y-158678571D01*
X342142854Y-158726190D01*
X341761901Y-158726190D01*
X343285711Y-159202380D02*
X342714282Y-159202380D01*
X342999997Y-159202380D02*
X342999997Y-158202380D01*
X342904758Y-158345238D01*
X342809520Y-158440476D01*
X342714282Y-158488095D01*
G04 #@! TO.C,F10*
X341690473Y-105338571D02*
X341357139Y-105338571D01*
X341357139Y-105862380D02*
X341357139Y-104862380D01*
X341833330Y-104862380D01*
X342738092Y-105862380D02*
X342166663Y-105862380D01*
X342452377Y-105862380D02*
X342452377Y-104862380D01*
X342357139Y-105005238D01*
X342261901Y-105100476D01*
X342166663Y-105148095D01*
X343357139Y-104862380D02*
X343452377Y-104862380D01*
X343547616Y-104910000D01*
X343595235Y-104957619D01*
X343642854Y-105052857D01*
X343690473Y-105243333D01*
X343690473Y-105481428D01*
X343642854Y-105671904D01*
X343595235Y-105767142D01*
X343547616Y-105814761D01*
X343452377Y-105862380D01*
X343357139Y-105862380D01*
X343261901Y-105814761D01*
X343214282Y-105767142D01*
X343166663Y-105671904D01*
X343119044Y-105481428D01*
X343119044Y-105243333D01*
X343166663Y-105052857D01*
X343214282Y-104957619D01*
X343261901Y-104910000D01*
X343357139Y-104862380D01*
G04 #@! TO.C,ESC1*
X74133330Y-105338571D02*
X74466663Y-105338571D01*
X74609520Y-105862380D02*
X74133330Y-105862380D01*
X74133330Y-104862380D01*
X74609520Y-104862380D01*
X74990473Y-105814761D02*
X75133330Y-105862380D01*
X75371425Y-105862380D01*
X75466663Y-105814761D01*
X75514282Y-105767142D01*
X75561901Y-105671904D01*
X75561901Y-105576666D01*
X75514282Y-105481428D01*
X75466663Y-105433809D01*
X75371425Y-105386190D01*
X75180949Y-105338571D01*
X75085711Y-105290952D01*
X75038092Y-105243333D01*
X74990473Y-105148095D01*
X74990473Y-105052857D01*
X75038092Y-104957619D01*
X75085711Y-104910000D01*
X75180949Y-104862380D01*
X75419044Y-104862380D01*
X75561901Y-104910000D01*
X76561901Y-105767142D02*
X76514282Y-105814761D01*
X76371425Y-105862380D01*
X76276187Y-105862380D01*
X76133330Y-105814761D01*
X76038092Y-105719523D01*
X75990473Y-105624285D01*
X75942854Y-105433809D01*
X75942854Y-105290952D01*
X75990473Y-105100476D01*
X76038092Y-105005238D01*
X76133330Y-104910000D01*
X76276187Y-104862380D01*
X76371425Y-104862380D01*
X76514282Y-104910000D01*
X76561901Y-104957619D01*
X77514282Y-105862380D02*
X76942854Y-105862380D01*
X77228568Y-105862380D02*
X77228568Y-104862380D01*
X77133330Y-105005238D01*
X77038092Y-105100476D01*
X76942854Y-105148095D01*
G04 #@! TO.C,F5*
X208816663Y-105338571D02*
X208483330Y-105338571D01*
X208483330Y-105862380D02*
X208483330Y-104862380D01*
X208959520Y-104862380D01*
X209816663Y-104862380D02*
X209340473Y-104862380D01*
X209292854Y-105338571D01*
X209340473Y-105290952D01*
X209435711Y-105243333D01*
X209673806Y-105243333D01*
X209769044Y-105290952D01*
X209816663Y-105338571D01*
X209864282Y-105433809D01*
X209864282Y-105671904D01*
X209816663Y-105767142D01*
X209769044Y-105814761D01*
X209673806Y-105862380D01*
X209435711Y-105862380D01*
X209340473Y-105814761D01*
X209292854Y-105767142D01*
G04 #@! TO.C,REF\u002A\u002A*
X288266663Y-239282380D02*
X287933330Y-238806190D01*
X287695235Y-239282380D02*
X287695235Y-238282380D01*
X288076187Y-238282380D01*
X288171425Y-238330000D01*
X288219044Y-238377619D01*
X288266663Y-238472857D01*
X288266663Y-238615714D01*
X288219044Y-238710952D01*
X288171425Y-238758571D01*
X288076187Y-238806190D01*
X287695235Y-238806190D01*
X288695235Y-238758571D02*
X289028568Y-238758571D01*
X289171425Y-239282380D02*
X288695235Y-239282380D01*
X288695235Y-238282380D01*
X289171425Y-238282380D01*
X289933330Y-238758571D02*
X289599997Y-238758571D01*
X289599997Y-239282380D02*
X289599997Y-238282380D01*
X290076187Y-238282380D01*
X290599997Y-238282380D02*
X290599997Y-238520476D01*
X290361901Y-238425238D02*
X290599997Y-238520476D01*
X290838092Y-238425238D01*
X290457139Y-238710952D02*
X290599997Y-238520476D01*
X290742854Y-238710952D01*
X291361901Y-238282380D02*
X291361901Y-238520476D01*
X291123806Y-238425238D02*
X291361901Y-238520476D01*
X291599997Y-238425238D01*
X291219044Y-238710952D02*
X291361901Y-238520476D01*
X291504758Y-238710952D01*
G04 #@! TO.C,LEFT_ARROW1*
X366876663Y-262402380D02*
X366400473Y-262402380D01*
X366400473Y-261402380D01*
X367209997Y-261878571D02*
X367543330Y-261878571D01*
X367686187Y-262402380D02*
X367209997Y-262402380D01*
X367209997Y-261402380D01*
X367686187Y-261402380D01*
X368448092Y-261878571D02*
X368114758Y-261878571D01*
X368114758Y-262402380D02*
X368114758Y-261402380D01*
X368590949Y-261402380D01*
X368829044Y-261402380D02*
X369400473Y-261402380D01*
X369114758Y-262402380D02*
X369114758Y-261402380D01*
X369495711Y-262497619D02*
X370257616Y-262497619D01*
X370448092Y-262116666D02*
X370924282Y-262116666D01*
X370352854Y-262402380D02*
X370686187Y-261402380D01*
X371019520Y-262402380D01*
X371924282Y-262402380D02*
X371590949Y-261926190D01*
X371352854Y-262402380D02*
X371352854Y-261402380D01*
X371733806Y-261402380D01*
X371829044Y-261450000D01*
X371876663Y-261497619D01*
X371924282Y-261592857D01*
X371924282Y-261735714D01*
X371876663Y-261830952D01*
X371829044Y-261878571D01*
X371733806Y-261926190D01*
X371352854Y-261926190D01*
X372924282Y-262402380D02*
X372590949Y-261926190D01*
X372352854Y-262402380D02*
X372352854Y-261402380D01*
X372733806Y-261402380D01*
X372829044Y-261450000D01*
X372876663Y-261497619D01*
X372924282Y-261592857D01*
X372924282Y-261735714D01*
X372876663Y-261830952D01*
X372829044Y-261878571D01*
X372733806Y-261926190D01*
X372352854Y-261926190D01*
X373543330Y-261402380D02*
X373733806Y-261402380D01*
X373829044Y-261450000D01*
X373924282Y-261545238D01*
X373971901Y-261735714D01*
X373971901Y-262069047D01*
X373924282Y-262259523D01*
X373829044Y-262354761D01*
X373733806Y-262402380D01*
X373543330Y-262402380D01*
X373448092Y-262354761D01*
X373352854Y-262259523D01*
X373305235Y-262069047D01*
X373305235Y-261735714D01*
X373352854Y-261545238D01*
X373448092Y-261450000D01*
X373543330Y-261402380D01*
X374305235Y-261402380D02*
X374543330Y-262402380D01*
X374733806Y-261688095D01*
X374924282Y-262402380D01*
X375162377Y-261402380D01*
X376067139Y-262402380D02*
X375495711Y-262402380D01*
X375781425Y-262402380D02*
X375781425Y-261402380D01*
X375686187Y-261545238D01*
X375590949Y-261640476D01*
X375495711Y-261688095D01*
G04 #@! TO.C,FIVE1*
X207697616Y-132008571D02*
X207364282Y-132008571D01*
X207364282Y-132532380D02*
X207364282Y-131532380D01*
X207840473Y-131532380D01*
X208221425Y-132532380D02*
X208221425Y-131532380D01*
X208554758Y-131532380D02*
X208888092Y-132532380D01*
X209221425Y-131532380D01*
X209554758Y-132008571D02*
X209888092Y-132008571D01*
X210030949Y-132532380D02*
X209554758Y-132532380D01*
X209554758Y-131532380D01*
X210030949Y-131532380D01*
X210983330Y-132532380D02*
X210411901Y-132532380D01*
X210697616Y-132532380D02*
X210697616Y-131532380D01*
X210602377Y-131675238D01*
X210507139Y-131770476D01*
X210411901Y-131818095D01*
G04 #@! TO.C,U3*
X324518092Y-65142380D02*
X324518092Y-65951904D01*
X324565711Y-66047142D01*
X324613330Y-66094761D01*
X324708568Y-66142380D01*
X324899044Y-66142380D01*
X324994282Y-66094761D01*
X325041901Y-66047142D01*
X325089520Y-65951904D01*
X325089520Y-65142380D01*
X325470473Y-65142380D02*
X326089520Y-65142380D01*
X325756187Y-65523333D01*
X325899044Y-65523333D01*
X325994282Y-65570952D01*
X326041901Y-65618571D01*
X326089520Y-65713809D01*
X326089520Y-65951904D01*
X326041901Y-66047142D01*
X325994282Y-66094761D01*
X325899044Y-66142380D01*
X325613330Y-66142380D01*
X325518092Y-66094761D01*
X325470473Y-66047142D01*
G04 #@! TO.C,U4*
X94562377Y-61111904D02*
X95371901Y-61111904D01*
X95467139Y-61064285D01*
X95514758Y-61016666D01*
X95562377Y-60921428D01*
X95562377Y-60730952D01*
X95514758Y-60635714D01*
X95467139Y-60588095D01*
X95371901Y-60540476D01*
X94562377Y-60540476D01*
X94895711Y-59635714D02*
X95562377Y-59635714D01*
X94514758Y-59873809D02*
X95229044Y-60111904D01*
X95229044Y-59492857D01*
X111741215Y-48136903D02*
X111768152Y-48217715D01*
X111848964Y-48298528D01*
X111956714Y-48352402D01*
X112064464Y-48352402D01*
X112145276Y-48325465D01*
X112279963Y-48244653D01*
X112360775Y-48163841D01*
X112441587Y-48029154D01*
X112468525Y-47948341D01*
X112468525Y-47840592D01*
X112414650Y-47732842D01*
X112360775Y-47678967D01*
X112253025Y-47625093D01*
X112199151Y-47625093D01*
X112010589Y-47813654D01*
X112118338Y-47921404D01*
X112010589Y-47328781D02*
X111444903Y-47894467D01*
X111229404Y-47678967D01*
X111202467Y-47598155D01*
X111202467Y-47544280D01*
X111229404Y-47463468D01*
X111310216Y-47382656D01*
X111391029Y-47355719D01*
X111444903Y-47355719D01*
X111525716Y-47382656D01*
X111741215Y-47598155D01*
X110960030Y-47301844D02*
X110906155Y-47301844D01*
X110825343Y-47274906D01*
X110690656Y-47140219D01*
X110663719Y-47059407D01*
X110663719Y-47005532D01*
X110690656Y-46924720D01*
X110744531Y-46870845D01*
X110852281Y-46816971D01*
X111498778Y-46816971D01*
X111148592Y-46466784D01*
X109643770Y-76195211D02*
X109374396Y-75925837D01*
X109859269Y-76087462D02*
X109105022Y-76464585D01*
X109482146Y-75710338D01*
X109293584Y-75521776D02*
X108727899Y-76087462D01*
X108593212Y-75952775D01*
X108539337Y-75845025D01*
X108539337Y-75737276D01*
X108566274Y-75656463D01*
X108647086Y-75521776D01*
X108727899Y-75440964D01*
X108862586Y-75360152D01*
X108943398Y-75333215D01*
X109051147Y-75333215D01*
X109158897Y-75387089D01*
X109293584Y-75521776D01*
X108350775Y-74686717D02*
X108404650Y-74686717D01*
X108512399Y-74740592D01*
X108566274Y-74794467D01*
X108620149Y-74902216D01*
X108620149Y-75009966D01*
X108593212Y-75090778D01*
X108512399Y-75225465D01*
X108431587Y-75306277D01*
X108296900Y-75387089D01*
X108216088Y-75414027D01*
X108108338Y-75414027D01*
X108000589Y-75360152D01*
X107946714Y-75306277D01*
X107892839Y-75198528D01*
X107892839Y-75144653D01*
X108350775Y-74471218D02*
X107919777Y-74040219D01*
X107246342Y-74605905D02*
X107623465Y-73851658D01*
X106869218Y-74228781D01*
X106923093Y-73151285D02*
X106842281Y-73609221D01*
X107246342Y-73474534D02*
X106680656Y-74040219D01*
X106465157Y-73824720D01*
X106438220Y-73743908D01*
X106438220Y-73690033D01*
X106465157Y-73609221D01*
X106545969Y-73528409D01*
X106626781Y-73501471D01*
X106680656Y-73501471D01*
X106761468Y-73528409D01*
X106976968Y-73743908D01*
X106384345Y-73205160D02*
X106195783Y-73016598D01*
X106411282Y-72639475D02*
X106680656Y-72908849D01*
X106114971Y-73474534D01*
X105845597Y-73205160D01*
X105683972Y-72504788D02*
X105872534Y-72693349D01*
X106168846Y-72397038D02*
X105603160Y-72962723D01*
X105333786Y-72693349D01*
X71370589Y-48252277D02*
X71397526Y-48333089D01*
X71478338Y-48413902D01*
X71586088Y-48467776D01*
X71693838Y-48467776D01*
X71774650Y-48440839D01*
X71909337Y-48360027D01*
X71990149Y-48279215D01*
X72070961Y-48144528D01*
X72097899Y-48063715D01*
X72097899Y-47955966D01*
X72044024Y-47848216D01*
X71990149Y-47794341D01*
X71882399Y-47740467D01*
X71828525Y-47740467D01*
X71639963Y-47929028D01*
X71747712Y-48036778D01*
X71639963Y-47444155D02*
X71074277Y-48009841D01*
X70858778Y-47794341D01*
X70831841Y-47713529D01*
X70831841Y-47659654D01*
X70858778Y-47578842D01*
X70939590Y-47498030D01*
X71020403Y-47471093D01*
X71074277Y-47471093D01*
X71155090Y-47498030D01*
X71370589Y-47713529D01*
X70777966Y-46582158D02*
X71101215Y-46905407D01*
X70939590Y-46743783D02*
X70373905Y-47309468D01*
X70508592Y-47282531D01*
X70616342Y-47282531D01*
X70697154Y-47309468D01*
X69700470Y-46636033D02*
X69969844Y-46905407D01*
X70266155Y-46662971D01*
X70212281Y-46662971D01*
X70131468Y-46636033D01*
X69996781Y-46501346D01*
X69969844Y-46420534D01*
X69969844Y-46366659D01*
X69996781Y-46285847D01*
X70131468Y-46151160D01*
X70212281Y-46124223D01*
X70266155Y-46124223D01*
X70346968Y-46151160D01*
X70481655Y-46285847D01*
X70508592Y-46366659D01*
X70508592Y-46420534D01*
X69233806Y-67645238D02*
X69271901Y-67530952D01*
X69271901Y-67340476D01*
X69233806Y-67264285D01*
X69195711Y-67226190D01*
X69119520Y-67188095D01*
X69043330Y-67188095D01*
X68967139Y-67226190D01*
X68929044Y-67264285D01*
X68890949Y-67340476D01*
X68852854Y-67492857D01*
X68814758Y-67569047D01*
X68776663Y-67607142D01*
X68700473Y-67645238D01*
X68624282Y-67645238D01*
X68548092Y-67607142D01*
X68509997Y-67569047D01*
X68471901Y-67492857D01*
X68471901Y-67302380D01*
X68509997Y-67188095D01*
X68471901Y-66921428D02*
X69271901Y-66730952D01*
X68700473Y-66578571D01*
X69271901Y-66426190D01*
X68471901Y-66235714D01*
X69271901Y-65930952D02*
X68471901Y-65930952D01*
X68471901Y-65740476D01*
X68509997Y-65626190D01*
X68586187Y-65550000D01*
X68662377Y-65511904D01*
X68814758Y-65473809D01*
X68929044Y-65473809D01*
X69081425Y-65511904D01*
X69157616Y-65550000D01*
X69233806Y-65626190D01*
X69271901Y-65740476D01*
X69271901Y-65930952D01*
X69271901Y-65130952D02*
X68471901Y-65130952D01*
X68471901Y-64597619D02*
X68471901Y-64445238D01*
X68509997Y-64369047D01*
X68586187Y-64292857D01*
X68738568Y-64254761D01*
X69005235Y-64254761D01*
X69157616Y-64292857D01*
X69233806Y-64369047D01*
X69271901Y-64445238D01*
X69271901Y-64597619D01*
X69233806Y-64673809D01*
X69157616Y-64750000D01*
X69005235Y-64788095D01*
X68738568Y-64788095D01*
X68586187Y-64750000D01*
X68509997Y-64673809D01*
X68471901Y-64597619D01*
X86610589Y-48252277D02*
X86637526Y-48333089D01*
X86718338Y-48413902D01*
X86826088Y-48467776D01*
X86933838Y-48467776D01*
X87014650Y-48440839D01*
X87149337Y-48360027D01*
X87230149Y-48279215D01*
X87310961Y-48144528D01*
X87337899Y-48063715D01*
X87337899Y-47955966D01*
X87284024Y-47848216D01*
X87230149Y-47794341D01*
X87122399Y-47740467D01*
X87068525Y-47740467D01*
X86879963Y-47929028D01*
X86987712Y-48036778D01*
X86879963Y-47444155D02*
X86314277Y-48009841D01*
X86098778Y-47794341D01*
X86071841Y-47713529D01*
X86071841Y-47659654D01*
X86098778Y-47578842D01*
X86179590Y-47498030D01*
X86260403Y-47471093D01*
X86314277Y-47471093D01*
X86395090Y-47498030D01*
X86610589Y-47713529D01*
X86017966Y-46582158D02*
X86341215Y-46905407D01*
X86179590Y-46743783D02*
X85613905Y-47309468D01*
X85748592Y-47282531D01*
X85856342Y-47282531D01*
X85937154Y-47309468D01*
X85102094Y-46797658D02*
X85048220Y-46743783D01*
X85021282Y-46662971D01*
X85021282Y-46609096D01*
X85048220Y-46528284D01*
X85129032Y-46393597D01*
X85263719Y-46258910D01*
X85398406Y-46178097D01*
X85479218Y-46151160D01*
X85533093Y-46151160D01*
X85613905Y-46178097D01*
X85667780Y-46231972D01*
X85694717Y-46312784D01*
X85694717Y-46366659D01*
X85667780Y-46447471D01*
X85586968Y-46582158D01*
X85452281Y-46716845D01*
X85317594Y-46797658D01*
X85236781Y-46824595D01*
X85182907Y-46824595D01*
X85102094Y-46797658D01*
X78990589Y-74360277D02*
X79017526Y-74441089D01*
X79098338Y-74521902D01*
X79206088Y-74575776D01*
X79313838Y-74575776D01*
X79394650Y-74548839D01*
X79529337Y-74468027D01*
X79610149Y-74387215D01*
X79690961Y-74252528D01*
X79717899Y-74171715D01*
X79717899Y-74063966D01*
X79664024Y-73956216D01*
X79610149Y-73902341D01*
X79502399Y-73848467D01*
X79448525Y-73848467D01*
X79259963Y-74037028D01*
X79367712Y-74144778D01*
X79259963Y-73552155D02*
X78694277Y-74117841D01*
X78478778Y-73902341D01*
X78451841Y-73821529D01*
X78451841Y-73767654D01*
X78478778Y-73686842D01*
X78559590Y-73606030D01*
X78640403Y-73579093D01*
X78694277Y-73579093D01*
X78775090Y-73606030D01*
X78990589Y-73821529D01*
X78397966Y-72690158D02*
X78721215Y-73013407D01*
X78559590Y-72851783D02*
X77993905Y-73417468D01*
X78128592Y-73390531D01*
X78236342Y-73390531D01*
X78317154Y-73417468D01*
X77751468Y-72690158D02*
X77778406Y-72770971D01*
X77778406Y-72824845D01*
X77751468Y-72905658D01*
X77724531Y-72932595D01*
X77643719Y-72959532D01*
X77589844Y-72959532D01*
X77509032Y-72932595D01*
X77401282Y-72824845D01*
X77374345Y-72744033D01*
X77374345Y-72690158D01*
X77401282Y-72609346D01*
X77428220Y-72582409D01*
X77509032Y-72555471D01*
X77562907Y-72555471D01*
X77643719Y-72582409D01*
X77751468Y-72690158D01*
X77832281Y-72717096D01*
X77886155Y-72717096D01*
X77966968Y-72690158D01*
X78074717Y-72582409D01*
X78101655Y-72501597D01*
X78101655Y-72447722D01*
X78074717Y-72366910D01*
X77966968Y-72259160D01*
X77886155Y-72232223D01*
X77832281Y-72232223D01*
X77751468Y-72259160D01*
X77643719Y-72366910D01*
X77616781Y-72447722D01*
X77616781Y-72501597D01*
X77643719Y-72582409D01*
X96531215Y-48336903D02*
X96558152Y-48417715D01*
X96638964Y-48498528D01*
X96746714Y-48552402D01*
X96854464Y-48552402D01*
X96935276Y-48525465D01*
X97069963Y-48444653D01*
X97150775Y-48363841D01*
X97231587Y-48229154D01*
X97258525Y-48148341D01*
X97258525Y-48040592D01*
X97204650Y-47932842D01*
X97150775Y-47878967D01*
X97043025Y-47825093D01*
X96989151Y-47825093D01*
X96800589Y-48013654D01*
X96908338Y-48121404D01*
X96800589Y-47528781D02*
X96234903Y-48094467D01*
X96019404Y-47878967D01*
X95992467Y-47798155D01*
X95992467Y-47744280D01*
X96019404Y-47663468D01*
X96100216Y-47582656D01*
X96181029Y-47555719D01*
X96234903Y-47555719D01*
X96315716Y-47582656D01*
X96531215Y-47798155D01*
X95723093Y-47582656D02*
X95345969Y-47205532D01*
X96154091Y-46882284D01*
X91421215Y-48236903D02*
X91448152Y-48317715D01*
X91528964Y-48398528D01*
X91636714Y-48452402D01*
X91744464Y-48452402D01*
X91825276Y-48425465D01*
X91959963Y-48344653D01*
X92040775Y-48263841D01*
X92121587Y-48129154D01*
X92148525Y-48048341D01*
X92148525Y-47940592D01*
X92094650Y-47832842D01*
X92040775Y-47778967D01*
X91933025Y-47725093D01*
X91879151Y-47725093D01*
X91690589Y-47913654D01*
X91798338Y-48021404D01*
X91690589Y-47428781D02*
X91124903Y-47994467D01*
X90909404Y-47778967D01*
X90882467Y-47698155D01*
X90882467Y-47644280D01*
X90909404Y-47563468D01*
X90990216Y-47482656D01*
X91071029Y-47455719D01*
X91124903Y-47455719D01*
X91205716Y-47482656D01*
X91421215Y-47698155D01*
X91097966Y-46836158D02*
X90990216Y-46728409D01*
X90909404Y-46701471D01*
X90855529Y-46701471D01*
X90720842Y-46728409D01*
X90586155Y-46809221D01*
X90370656Y-47024720D01*
X90343719Y-47105532D01*
X90343719Y-47159407D01*
X90370656Y-47240219D01*
X90478406Y-47347969D01*
X90559218Y-47374906D01*
X90613093Y-47374906D01*
X90693905Y-47347969D01*
X90828592Y-47213282D01*
X90855529Y-47132470D01*
X90855529Y-47078595D01*
X90828592Y-46997783D01*
X90720842Y-46890033D01*
X90640030Y-46863096D01*
X90586155Y-46863096D01*
X90505343Y-46890033D01*
X109201215Y-48236903D02*
X109228152Y-48317715D01*
X109308964Y-48398528D01*
X109416714Y-48452402D01*
X109524464Y-48452402D01*
X109605276Y-48425465D01*
X109739963Y-48344653D01*
X109820775Y-48263841D01*
X109901587Y-48129154D01*
X109928525Y-48048341D01*
X109928525Y-47940592D01*
X109874650Y-47832842D01*
X109820775Y-47778967D01*
X109713025Y-47725093D01*
X109659151Y-47725093D01*
X109470589Y-47913654D01*
X109578338Y-48021404D01*
X109470589Y-47428781D02*
X108904903Y-47994467D01*
X108689404Y-47778967D01*
X108662467Y-47698155D01*
X108662467Y-47644280D01*
X108689404Y-47563468D01*
X108770216Y-47482656D01*
X108851029Y-47455719D01*
X108904903Y-47455719D01*
X108985716Y-47482656D01*
X109201215Y-47698155D01*
X108393093Y-47482656D02*
X108042907Y-47132470D01*
X108446968Y-47105532D01*
X108366155Y-47024720D01*
X108339218Y-46943908D01*
X108339218Y-46890033D01*
X108366155Y-46809221D01*
X108500842Y-46674534D01*
X108581655Y-46647597D01*
X108635529Y-46647597D01*
X108716342Y-46674534D01*
X108877966Y-46836158D01*
X108904903Y-46916971D01*
X108904903Y-46970845D01*
X73910589Y-74360277D02*
X73937526Y-74441089D01*
X74018338Y-74521902D01*
X74126088Y-74575776D01*
X74233838Y-74575776D01*
X74314650Y-74548839D01*
X74449337Y-74468027D01*
X74530149Y-74387215D01*
X74610961Y-74252528D01*
X74637899Y-74171715D01*
X74637899Y-74063966D01*
X74584024Y-73956216D01*
X74530149Y-73902341D01*
X74422399Y-73848467D01*
X74368525Y-73848467D01*
X74179963Y-74037028D01*
X74287712Y-74144778D01*
X74179963Y-73552155D02*
X73614277Y-74117841D01*
X73398778Y-73902341D01*
X73371841Y-73821529D01*
X73371841Y-73767654D01*
X73398778Y-73686842D01*
X73479590Y-73606030D01*
X73560403Y-73579093D01*
X73614277Y-73579093D01*
X73695090Y-73606030D01*
X73910589Y-73821529D01*
X73317966Y-72690158D02*
X73641215Y-73013407D01*
X73479590Y-72851783D02*
X72913905Y-73417468D01*
X73048592Y-73390531D01*
X73156342Y-73390531D01*
X73237154Y-73417468D01*
X72563719Y-73067282D02*
X72186595Y-72690158D01*
X72994717Y-72366910D01*
X81530589Y-48106277D02*
X81557526Y-48187089D01*
X81638338Y-48267902D01*
X81746088Y-48321776D01*
X81853838Y-48321776D01*
X81934650Y-48294839D01*
X82069337Y-48214027D01*
X82150149Y-48133215D01*
X82230961Y-47998528D01*
X82257899Y-47917715D01*
X82257899Y-47809966D01*
X82204024Y-47702216D01*
X82150149Y-47648341D01*
X82042399Y-47594467D01*
X81988525Y-47594467D01*
X81799963Y-47783028D01*
X81907712Y-47890778D01*
X81799963Y-47298155D02*
X81234277Y-47863841D01*
X81018778Y-47648341D01*
X80991841Y-47567529D01*
X80991841Y-47513654D01*
X81018778Y-47432842D01*
X81099590Y-47352030D01*
X81180403Y-47325093D01*
X81234277Y-47325093D01*
X81315090Y-47352030D01*
X81530589Y-47567529D01*
X80937966Y-46436158D02*
X81261215Y-46759407D01*
X81099590Y-46597783D02*
X80533905Y-47163468D01*
X80668592Y-47136531D01*
X80776342Y-47136531D01*
X80857154Y-47163468D01*
X80210656Y-46732470D02*
X80156781Y-46732470D01*
X80075969Y-46705532D01*
X79941282Y-46570845D01*
X79914345Y-46490033D01*
X79914345Y-46436158D01*
X79941282Y-46355346D01*
X79995157Y-46301471D01*
X80102907Y-46247597D01*
X80749404Y-46247597D01*
X80399218Y-45897410D01*
X76208152Y-48263841D02*
X76235090Y-48344653D01*
X76315902Y-48425465D01*
X76423651Y-48479340D01*
X76531401Y-48479340D01*
X76612213Y-48452402D01*
X76746900Y-48371590D01*
X76827712Y-48290778D01*
X76908525Y-48156091D01*
X76935462Y-48075279D01*
X76935462Y-47967529D01*
X76881587Y-47859780D01*
X76827712Y-47805905D01*
X76719963Y-47752030D01*
X76666088Y-47752030D01*
X76477526Y-47940592D01*
X76585276Y-48048341D01*
X76477526Y-47455719D02*
X75911841Y-48021404D01*
X76154277Y-47132470D01*
X75588592Y-47698155D01*
X75884903Y-46863096D02*
X75319218Y-47428781D01*
X75184531Y-47294094D01*
X75130656Y-47186345D01*
X75130656Y-47078595D01*
X75157594Y-46997783D01*
X75238406Y-46863096D01*
X75319218Y-46782284D01*
X75453905Y-46701471D01*
X75534717Y-46674534D01*
X75642467Y-46674534D01*
X75750216Y-46728409D01*
X75884903Y-46863096D01*
X84070589Y-74360277D02*
X84097526Y-74441089D01*
X84178338Y-74521902D01*
X84286088Y-74575776D01*
X84393838Y-74575776D01*
X84474650Y-74548839D01*
X84609337Y-74468027D01*
X84690149Y-74387215D01*
X84770961Y-74252528D01*
X84797899Y-74171715D01*
X84797899Y-74063966D01*
X84744024Y-73956216D01*
X84690149Y-73902341D01*
X84582399Y-73848467D01*
X84528525Y-73848467D01*
X84339963Y-74037028D01*
X84447712Y-74144778D01*
X84339963Y-73552155D02*
X83774277Y-74117841D01*
X83558778Y-73902341D01*
X83531841Y-73821529D01*
X83531841Y-73767654D01*
X83558778Y-73686842D01*
X83639590Y-73606030D01*
X83720403Y-73579093D01*
X83774277Y-73579093D01*
X83855090Y-73606030D01*
X84070589Y-73821529D01*
X83289404Y-73525218D02*
X83235529Y-73525218D01*
X83154717Y-73498280D01*
X83020030Y-73363593D01*
X82993093Y-73282781D01*
X82993093Y-73228906D01*
X83020030Y-73148094D01*
X83073905Y-73094219D01*
X83181655Y-73040345D01*
X83828152Y-73040345D01*
X83477966Y-72690158D01*
X82562094Y-72905658D02*
X82508220Y-72851783D01*
X82481282Y-72770971D01*
X82481282Y-72717096D01*
X82508220Y-72636284D01*
X82589032Y-72501597D01*
X82723719Y-72366910D01*
X82858406Y-72286097D01*
X82939218Y-72259160D01*
X82993093Y-72259160D01*
X83073905Y-72286097D01*
X83127780Y-72339972D01*
X83154717Y-72420784D01*
X83154717Y-72474659D01*
X83127780Y-72555471D01*
X83046968Y-72690158D01*
X82912281Y-72824845D01*
X82777594Y-72905658D01*
X82696781Y-72932595D01*
X82642907Y-72932595D01*
X82562094Y-72905658D01*
X69233806Y-56459523D02*
X69271901Y-56345238D01*
X69271901Y-56154761D01*
X69233806Y-56078571D01*
X69195711Y-56040476D01*
X69119520Y-56002380D01*
X69043330Y-56002380D01*
X68967139Y-56040476D01*
X68929044Y-56078571D01*
X68890949Y-56154761D01*
X68852854Y-56307142D01*
X68814758Y-56383333D01*
X68776663Y-56421428D01*
X68700473Y-56459523D01*
X68624282Y-56459523D01*
X68548092Y-56421428D01*
X68509997Y-56383333D01*
X68471901Y-56307142D01*
X68471901Y-56116666D01*
X68509997Y-56002380D01*
X68471901Y-55735714D02*
X69271901Y-55545238D01*
X68700473Y-55392857D01*
X69271901Y-55240476D01*
X68471901Y-55050000D01*
X69195711Y-54288095D02*
X69233806Y-54326190D01*
X69271901Y-54440476D01*
X69271901Y-54516666D01*
X69233806Y-54630952D01*
X69157616Y-54707142D01*
X69081425Y-54745238D01*
X68929044Y-54783333D01*
X68814758Y-54783333D01*
X68662377Y-54745238D01*
X68586187Y-54707142D01*
X68509997Y-54630952D01*
X68471901Y-54516666D01*
X68471901Y-54440476D01*
X68509997Y-54326190D01*
X68548092Y-54288095D01*
X69271901Y-53564285D02*
X69271901Y-53945238D01*
X68471901Y-53945238D01*
X69271901Y-53297619D02*
X68471901Y-53297619D01*
X69271901Y-52840476D02*
X68814758Y-53183333D01*
X68471901Y-52840476D02*
X68929044Y-53297619D01*
X99041215Y-48236903D02*
X99068152Y-48317715D01*
X99148964Y-48398528D01*
X99256714Y-48452402D01*
X99364464Y-48452402D01*
X99445276Y-48425465D01*
X99579963Y-48344653D01*
X99660775Y-48263841D01*
X99741587Y-48129154D01*
X99768525Y-48048341D01*
X99768525Y-47940592D01*
X99714650Y-47832842D01*
X99660775Y-47778967D01*
X99553025Y-47725093D01*
X99499151Y-47725093D01*
X99310589Y-47913654D01*
X99418338Y-48021404D01*
X99310589Y-47428781D02*
X98744903Y-47994467D01*
X98529404Y-47778967D01*
X98502467Y-47698155D01*
X98502467Y-47644280D01*
X98529404Y-47563468D01*
X98610216Y-47482656D01*
X98691029Y-47455719D01*
X98744903Y-47455719D01*
X98825716Y-47482656D01*
X99041215Y-47698155D01*
X97936781Y-47186345D02*
X98044531Y-47294094D01*
X98125343Y-47321032D01*
X98179218Y-47321032D01*
X98313905Y-47294094D01*
X98448592Y-47213282D01*
X98664091Y-46997783D01*
X98691029Y-46916971D01*
X98691029Y-46863096D01*
X98664091Y-46782284D01*
X98556342Y-46674534D01*
X98475529Y-46647597D01*
X98421655Y-46647597D01*
X98340842Y-46674534D01*
X98206155Y-46809221D01*
X98179218Y-46890033D01*
X98179218Y-46943908D01*
X98206155Y-47024720D01*
X98313905Y-47132470D01*
X98394717Y-47159407D01*
X98448592Y-47159407D01*
X98529404Y-47132470D01*
X88908152Y-48263841D02*
X88935090Y-48344653D01*
X89015902Y-48425465D01*
X89123651Y-48479340D01*
X89231401Y-48479340D01*
X89312213Y-48452402D01*
X89446900Y-48371590D01*
X89527712Y-48290778D01*
X89608525Y-48156091D01*
X89635462Y-48075279D01*
X89635462Y-47967529D01*
X89581587Y-47859780D01*
X89527712Y-47805905D01*
X89419963Y-47752030D01*
X89366088Y-47752030D01*
X89177526Y-47940592D01*
X89285276Y-48048341D01*
X89177526Y-47455719D02*
X88611841Y-48021404D01*
X88854277Y-47132470D01*
X88288592Y-47698155D01*
X88584903Y-46863096D02*
X88019218Y-47428781D01*
X87884531Y-47294094D01*
X87830656Y-47186345D01*
X87830656Y-47078595D01*
X87857594Y-46997783D01*
X87938406Y-46863096D01*
X88019218Y-46782284D01*
X88153905Y-46701471D01*
X88234717Y-46674534D01*
X88342467Y-46674534D01*
X88450216Y-46728409D01*
X88584903Y-46863096D01*
X101608152Y-48263841D02*
X101635090Y-48344653D01*
X101715902Y-48425465D01*
X101823651Y-48479340D01*
X101931401Y-48479340D01*
X102012213Y-48452402D01*
X102146900Y-48371590D01*
X102227712Y-48290778D01*
X102308525Y-48156091D01*
X102335462Y-48075279D01*
X102335462Y-47967529D01*
X102281587Y-47859780D01*
X102227712Y-47805905D01*
X102119963Y-47752030D01*
X102066088Y-47752030D01*
X101877526Y-47940592D01*
X101985276Y-48048341D01*
X101877526Y-47455719D02*
X101311841Y-48021404D01*
X101554277Y-47132470D01*
X100988592Y-47698155D01*
X101284903Y-46863096D02*
X100719218Y-47428781D01*
X100584531Y-47294094D01*
X100530656Y-47186345D01*
X100530656Y-47078595D01*
X100557594Y-46997783D01*
X100638406Y-46863096D01*
X100719218Y-46782284D01*
X100853905Y-46701471D01*
X100934717Y-46674534D01*
X101042467Y-46674534D01*
X101150216Y-46728409D01*
X101284903Y-46863096D01*
X113468305Y-75827868D02*
X113118119Y-75477682D01*
X113522180Y-75450744D01*
X113441367Y-75369932D01*
X113414430Y-75289120D01*
X113414430Y-75235245D01*
X113441367Y-75154433D01*
X113576054Y-75019746D01*
X113656867Y-74992809D01*
X113710741Y-74992809D01*
X113791554Y-75019746D01*
X113953178Y-75181370D01*
X113980115Y-75262183D01*
X113980115Y-75316057D01*
X112956494Y-75316057D02*
X113333618Y-74561810D01*
X112579371Y-74938934D01*
X112444684Y-74804247D02*
X112094497Y-74454061D01*
X112498558Y-74427123D01*
X112417746Y-74346311D01*
X112390809Y-74265499D01*
X112390809Y-74211624D01*
X112417746Y-74130812D01*
X112552433Y-73996125D01*
X112633245Y-73969187D01*
X112687120Y-73969187D01*
X112767932Y-73996125D01*
X112929557Y-74157749D01*
X112956494Y-74238561D01*
X112956494Y-74292436D01*
X112606308Y-73726751D02*
X112175309Y-73295752D01*
X111690436Y-73511251D02*
X111501874Y-73322690D01*
X111717374Y-72945566D02*
X111986748Y-73214940D01*
X111421062Y-73780625D01*
X111151688Y-73511251D01*
X111474937Y-72703129D02*
X110909252Y-73268815D01*
X111151688Y-72379881D01*
X110586003Y-72945566D01*
X114308152Y-48263841D02*
X114335090Y-48344653D01*
X114415902Y-48425465D01*
X114523651Y-48479340D01*
X114631401Y-48479340D01*
X114712213Y-48452402D01*
X114846900Y-48371590D01*
X114927712Y-48290778D01*
X115008525Y-48156091D01*
X115035462Y-48075279D01*
X115035462Y-47967529D01*
X114981587Y-47859780D01*
X114927712Y-47805905D01*
X114819963Y-47752030D01*
X114766088Y-47752030D01*
X114577526Y-47940592D01*
X114685276Y-48048341D01*
X114577526Y-47455719D02*
X114011841Y-48021404D01*
X114254277Y-47132470D01*
X113688592Y-47698155D01*
X113984903Y-46863096D02*
X113419218Y-47428781D01*
X113284531Y-47294094D01*
X113230656Y-47186345D01*
X113230656Y-47078595D01*
X113257594Y-46997783D01*
X113338406Y-46863096D01*
X113419218Y-46782284D01*
X113553905Y-46701471D01*
X113634717Y-46674534D01*
X113742467Y-46674534D01*
X113850216Y-46728409D01*
X113984903Y-46863096D01*
X99300589Y-74360277D02*
X99327526Y-74441089D01*
X99408338Y-74521902D01*
X99516088Y-74575776D01*
X99623838Y-74575776D01*
X99704650Y-74548839D01*
X99839337Y-74468027D01*
X99920149Y-74387215D01*
X100000961Y-74252528D01*
X100027899Y-74171715D01*
X100027899Y-74063966D01*
X99974024Y-73956216D01*
X99920149Y-73902341D01*
X99812399Y-73848467D01*
X99758525Y-73848467D01*
X99569963Y-74037028D01*
X99677712Y-74144778D01*
X99569963Y-73552155D02*
X99004277Y-74117841D01*
X98788778Y-73902341D01*
X98761841Y-73821529D01*
X98761841Y-73767654D01*
X98788778Y-73686842D01*
X98869590Y-73606030D01*
X98950403Y-73579093D01*
X99004277Y-73579093D01*
X99085090Y-73606030D01*
X99300589Y-73821529D01*
X98519404Y-73525218D02*
X98465529Y-73525218D01*
X98384717Y-73498280D01*
X98250030Y-73363593D01*
X98223093Y-73282781D01*
X98223093Y-73228906D01*
X98250030Y-73148094D01*
X98303905Y-73094219D01*
X98411655Y-73040345D01*
X99058152Y-73040345D01*
X98707966Y-72690158D01*
X97953719Y-73067282D02*
X97576595Y-72690158D01*
X98384717Y-72366910D01*
X104121215Y-48236903D02*
X104148152Y-48317715D01*
X104228964Y-48398528D01*
X104336714Y-48452402D01*
X104444464Y-48452402D01*
X104525276Y-48425465D01*
X104659963Y-48344653D01*
X104740775Y-48263841D01*
X104821587Y-48129154D01*
X104848525Y-48048341D01*
X104848525Y-47940592D01*
X104794650Y-47832842D01*
X104740775Y-47778967D01*
X104633025Y-47725093D01*
X104579151Y-47725093D01*
X104390589Y-47913654D01*
X104498338Y-48021404D01*
X104390589Y-47428781D02*
X103824903Y-47994467D01*
X103609404Y-47778967D01*
X103582467Y-47698155D01*
X103582467Y-47644280D01*
X103609404Y-47563468D01*
X103690216Y-47482656D01*
X103771029Y-47455719D01*
X103824903Y-47455719D01*
X103905716Y-47482656D01*
X104121215Y-47698155D01*
X102989844Y-47159407D02*
X103259218Y-47428781D01*
X103555529Y-47186345D01*
X103501655Y-47186345D01*
X103420842Y-47159407D01*
X103286155Y-47024720D01*
X103259218Y-46943908D01*
X103259218Y-46890033D01*
X103286155Y-46809221D01*
X103420842Y-46674534D01*
X103501655Y-46647597D01*
X103555529Y-46647597D01*
X103636342Y-46674534D01*
X103771029Y-46809221D01*
X103797966Y-46890033D01*
X103797966Y-46943908D01*
X71370589Y-74360277D02*
X71397526Y-74441089D01*
X71478338Y-74521902D01*
X71586088Y-74575776D01*
X71693838Y-74575776D01*
X71774650Y-74548839D01*
X71909337Y-74468027D01*
X71990149Y-74387215D01*
X72070961Y-74252528D01*
X72097899Y-74171715D01*
X72097899Y-74063966D01*
X72044024Y-73956216D01*
X71990149Y-73902341D01*
X71882399Y-73848467D01*
X71828525Y-73848467D01*
X71639963Y-74037028D01*
X71747712Y-74144778D01*
X71639963Y-73552155D02*
X71074277Y-74117841D01*
X70858778Y-73902341D01*
X70831841Y-73821529D01*
X70831841Y-73767654D01*
X70858778Y-73686842D01*
X70939590Y-73606030D01*
X71020403Y-73579093D01*
X71074277Y-73579093D01*
X71155090Y-73606030D01*
X71370589Y-73821529D01*
X70777966Y-72690158D02*
X71101215Y-73013407D01*
X70939590Y-72851783D02*
X70373905Y-73417468D01*
X70508592Y-73390531D01*
X70616342Y-73390531D01*
X70697154Y-73417468D01*
X69727407Y-72770971D02*
X69835157Y-72878720D01*
X69915969Y-72905658D01*
X69969844Y-72905658D01*
X70104531Y-72878720D01*
X70239218Y-72797908D01*
X70454717Y-72582409D01*
X70481655Y-72501597D01*
X70481655Y-72447722D01*
X70454717Y-72366910D01*
X70346968Y-72259160D01*
X70266155Y-72232223D01*
X70212281Y-72232223D01*
X70131468Y-72259160D01*
X69996781Y-72393847D01*
X69969844Y-72474659D01*
X69969844Y-72528534D01*
X69996781Y-72609346D01*
X70104531Y-72717096D01*
X70185343Y-72744033D01*
X70239218Y-72744033D01*
X70320030Y-72717096D01*
X109400589Y-74260152D02*
X109050403Y-73909966D01*
X109454464Y-73883028D01*
X109373651Y-73802216D01*
X109346714Y-73721404D01*
X109346714Y-73667529D01*
X109373651Y-73586717D01*
X109508338Y-73452030D01*
X109589151Y-73425093D01*
X109643025Y-73425093D01*
X109723838Y-73452030D01*
X109885462Y-73613654D01*
X109912399Y-73694467D01*
X109912399Y-73748341D01*
X108888778Y-73748341D02*
X109265902Y-72994094D01*
X108511655Y-73371218D01*
X108376968Y-73236531D02*
X108026781Y-72886345D01*
X108430842Y-72859407D01*
X108350030Y-72778595D01*
X108323093Y-72697783D01*
X108323093Y-72643908D01*
X108350030Y-72563096D01*
X108484717Y-72428409D01*
X108565529Y-72401471D01*
X108619404Y-72401471D01*
X108700216Y-72428409D01*
X108861841Y-72590033D01*
X108888778Y-72670845D01*
X108888778Y-72724720D01*
X116831215Y-48136903D02*
X116858152Y-48217715D01*
X116938964Y-48298528D01*
X117046714Y-48352402D01*
X117154464Y-48352402D01*
X117235276Y-48325465D01*
X117369963Y-48244653D01*
X117450775Y-48163841D01*
X117531587Y-48029154D01*
X117558525Y-47948341D01*
X117558525Y-47840592D01*
X117504650Y-47732842D01*
X117450775Y-47678967D01*
X117343025Y-47625093D01*
X117289151Y-47625093D01*
X117100589Y-47813654D01*
X117208338Y-47921404D01*
X117100589Y-47328781D02*
X116534903Y-47894467D01*
X116319404Y-47678967D01*
X116292467Y-47598155D01*
X116292467Y-47544280D01*
X116319404Y-47463468D01*
X116400216Y-47382656D01*
X116481029Y-47355719D01*
X116534903Y-47355719D01*
X116615716Y-47382656D01*
X116831215Y-47598155D01*
X116238592Y-46466784D02*
X116561841Y-46790033D01*
X116400216Y-46628409D02*
X115834531Y-47194094D01*
X115969218Y-47167157D01*
X116076968Y-47167157D01*
X116157780Y-47194094D01*
X102550961Y-74306402D02*
X102281587Y-74037028D01*
X102766460Y-74198653D02*
X102012213Y-74575776D01*
X102389337Y-73821529D01*
X101365716Y-73875404D02*
X101392653Y-73956216D01*
X101473465Y-74037028D01*
X101581215Y-74090903D01*
X101688964Y-74090903D01*
X101769777Y-74063966D01*
X101904464Y-73983154D01*
X101985276Y-73902341D01*
X102066088Y-73767654D01*
X102093025Y-73686842D01*
X102093025Y-73579093D01*
X102039151Y-73471343D01*
X101985276Y-73417468D01*
X101877526Y-73363593D01*
X101823651Y-73363593D01*
X101635090Y-73552155D01*
X101742839Y-73659905D01*
X101635090Y-73067282D02*
X101069404Y-73632967D01*
X101311841Y-72744033D01*
X100746155Y-73309719D01*
X101042467Y-72474659D02*
X100476781Y-73040345D01*
X100342094Y-72905658D01*
X100288220Y-72797908D01*
X100288220Y-72690158D01*
X100315157Y-72609346D01*
X100395969Y-72474659D01*
X100476781Y-72393847D01*
X100611468Y-72313035D01*
X100692281Y-72286097D01*
X100800030Y-72286097D01*
X100907780Y-72339972D01*
X101042467Y-72474659D01*
X78990589Y-48252277D02*
X79017526Y-48333089D01*
X79098338Y-48413902D01*
X79206088Y-48467776D01*
X79313838Y-48467776D01*
X79394650Y-48440839D01*
X79529337Y-48360027D01*
X79610149Y-48279215D01*
X79690961Y-48144528D01*
X79717899Y-48063715D01*
X79717899Y-47955966D01*
X79664024Y-47848216D01*
X79610149Y-47794341D01*
X79502399Y-47740467D01*
X79448525Y-47740467D01*
X79259963Y-47929028D01*
X79367712Y-48036778D01*
X79259963Y-47444155D02*
X78694277Y-48009841D01*
X78478778Y-47794341D01*
X78451841Y-47713529D01*
X78451841Y-47659654D01*
X78478778Y-47578842D01*
X78559590Y-47498030D01*
X78640403Y-47471093D01*
X78694277Y-47471093D01*
X78775090Y-47498030D01*
X78990589Y-47713529D01*
X78397966Y-46582158D02*
X78721215Y-46905407D01*
X78559590Y-46743783D02*
X77993905Y-47309468D01*
X78128592Y-47282531D01*
X78236342Y-47282531D01*
X78317154Y-47309468D01*
X77643719Y-46959282D02*
X77293533Y-46609096D01*
X77697594Y-46582158D01*
X77616781Y-46501346D01*
X77589844Y-46420534D01*
X77589844Y-46366659D01*
X77616781Y-46285847D01*
X77751468Y-46151160D01*
X77832281Y-46124223D01*
X77886155Y-46124223D01*
X77966968Y-46151160D01*
X78128592Y-46312784D01*
X78155529Y-46393597D01*
X78155529Y-46447471D01*
X120037306Y-74996870D02*
X120414430Y-74242622D01*
X119660183Y-74619746D01*
X119552433Y-73973248D02*
X119498558Y-73865499D01*
X119498558Y-73811624D01*
X119525496Y-73730812D01*
X119606308Y-73650000D01*
X119687120Y-73623062D01*
X119740995Y-73623062D01*
X119821807Y-73650000D01*
X120037306Y-73865499D01*
X119471621Y-74431184D01*
X119283059Y-74242622D01*
X119256122Y-74161810D01*
X119256122Y-74107935D01*
X119283059Y-74027123D01*
X119336934Y-73973248D01*
X119417746Y-73946311D01*
X119471621Y-73946311D01*
X119552433Y-73973248D01*
X119740995Y-74161810D01*
X118905935Y-73865499D02*
X119363871Y-73407563D01*
X119390809Y-73326751D01*
X119390809Y-73272876D01*
X119363871Y-73192064D01*
X119256122Y-73084314D01*
X119175309Y-73057377D01*
X119121435Y-73057377D01*
X119040622Y-73084314D01*
X118582687Y-73542250D01*
X118878998Y-72761065D02*
X118825123Y-72653316D01*
X118690436Y-72518629D01*
X118609624Y-72491691D01*
X118555749Y-72491691D01*
X118474937Y-72518629D01*
X118421062Y-72572503D01*
X118394125Y-72653316D01*
X118394125Y-72707190D01*
X118421062Y-72788003D01*
X118501874Y-72922690D01*
X118528812Y-73003502D01*
X118528812Y-73057377D01*
X118501874Y-73138189D01*
X118448000Y-73192064D01*
X118367187Y-73219001D01*
X118313313Y-73219001D01*
X118232500Y-73192064D01*
X118097813Y-73057377D01*
X118043939Y-72949627D01*
X81530589Y-74360277D02*
X81557526Y-74441089D01*
X81638338Y-74521902D01*
X81746088Y-74575776D01*
X81853838Y-74575776D01*
X81934650Y-74548839D01*
X82069337Y-74468027D01*
X82150149Y-74387215D01*
X82230961Y-74252528D01*
X82257899Y-74171715D01*
X82257899Y-74063966D01*
X82204024Y-73956216D01*
X82150149Y-73902341D01*
X82042399Y-73848467D01*
X81988525Y-73848467D01*
X81799963Y-74037028D01*
X81907712Y-74144778D01*
X81799963Y-73552155D02*
X81234277Y-74117841D01*
X81018778Y-73902341D01*
X80991841Y-73821529D01*
X80991841Y-73767654D01*
X81018778Y-73686842D01*
X81099590Y-73606030D01*
X81180403Y-73579093D01*
X81234277Y-73579093D01*
X81315090Y-73606030D01*
X81530589Y-73821529D01*
X80937966Y-72690158D02*
X81261215Y-73013407D01*
X81099590Y-72851783D02*
X80533905Y-73417468D01*
X80668592Y-73390531D01*
X80776342Y-73390531D01*
X80857154Y-73417468D01*
X80668592Y-72420784D02*
X80560842Y-72313035D01*
X80480030Y-72286097D01*
X80426155Y-72286097D01*
X80291468Y-72313035D01*
X80156781Y-72393847D01*
X79941282Y-72609346D01*
X79914345Y-72690158D01*
X79914345Y-72744033D01*
X79941282Y-72824845D01*
X80049032Y-72932595D01*
X80129844Y-72959532D01*
X80183719Y-72959532D01*
X80264531Y-72932595D01*
X80399218Y-72797908D01*
X80426155Y-72717096D01*
X80426155Y-72663221D01*
X80399218Y-72582409D01*
X80291468Y-72474659D01*
X80210656Y-72447722D01*
X80156781Y-72447722D01*
X80075969Y-72474659D01*
X96770589Y-74360277D02*
X96797526Y-74441089D01*
X96878338Y-74521902D01*
X96986088Y-74575776D01*
X97093838Y-74575776D01*
X97174650Y-74548839D01*
X97309337Y-74468027D01*
X97390149Y-74387215D01*
X97470961Y-74252528D01*
X97497899Y-74171715D01*
X97497899Y-74063966D01*
X97444024Y-73956216D01*
X97390149Y-73902341D01*
X97282399Y-73848467D01*
X97228525Y-73848467D01*
X97039963Y-74037028D01*
X97147712Y-74144778D01*
X97039963Y-73552155D02*
X96474277Y-74117841D01*
X96258778Y-73902341D01*
X96231841Y-73821529D01*
X96231841Y-73767654D01*
X96258778Y-73686842D01*
X96339590Y-73606030D01*
X96420403Y-73579093D01*
X96474277Y-73579093D01*
X96555090Y-73606030D01*
X96770589Y-73821529D01*
X95989404Y-73525218D02*
X95935529Y-73525218D01*
X95854717Y-73498280D01*
X95720030Y-73363593D01*
X95693093Y-73282781D01*
X95693093Y-73228906D01*
X95720030Y-73148094D01*
X95773905Y-73094219D01*
X95881655Y-73040345D01*
X96528152Y-73040345D01*
X96177966Y-72690158D01*
X95127407Y-72770971D02*
X95235157Y-72878720D01*
X95315969Y-72905658D01*
X95369844Y-72905658D01*
X95504531Y-72878720D01*
X95639218Y-72797908D01*
X95854717Y-72582409D01*
X95881655Y-72501597D01*
X95881655Y-72447722D01*
X95854717Y-72366910D01*
X95746968Y-72259160D01*
X95666155Y-72232223D01*
X95612281Y-72232223D01*
X95531468Y-72259160D01*
X95396781Y-72393847D01*
X95369844Y-72474659D01*
X95369844Y-72528534D01*
X95396781Y-72609346D01*
X95504531Y-72717096D01*
X95585343Y-72744033D01*
X95639218Y-72744033D01*
X95720030Y-72717096D01*
X88908152Y-73863841D02*
X88935090Y-73944653D01*
X89015902Y-74025465D01*
X89123651Y-74079340D01*
X89231401Y-74079340D01*
X89312213Y-74052402D01*
X89446900Y-73971590D01*
X89527712Y-73890778D01*
X89608525Y-73756091D01*
X89635462Y-73675279D01*
X89635462Y-73567529D01*
X89581587Y-73459780D01*
X89527712Y-73405905D01*
X89419963Y-73352030D01*
X89366088Y-73352030D01*
X89177526Y-73540592D01*
X89285276Y-73648341D01*
X89177526Y-73055719D02*
X88611841Y-73621404D01*
X88854277Y-72732470D01*
X88288592Y-73298155D01*
X88584903Y-72463096D02*
X88019218Y-73028781D01*
X87884531Y-72894094D01*
X87830656Y-72786345D01*
X87830656Y-72678595D01*
X87857594Y-72597783D01*
X87938406Y-72463096D01*
X88019218Y-72382284D01*
X88153905Y-72301471D01*
X88234717Y-72274534D01*
X88342467Y-72274534D01*
X88450216Y-72328409D01*
X88584903Y-72463096D01*
X76208152Y-73863841D02*
X76235090Y-73944653D01*
X76315902Y-74025465D01*
X76423651Y-74079340D01*
X76531401Y-74079340D01*
X76612213Y-74052402D01*
X76746900Y-73971590D01*
X76827712Y-73890778D01*
X76908525Y-73756091D01*
X76935462Y-73675279D01*
X76935462Y-73567529D01*
X76881587Y-73459780D01*
X76827712Y-73405905D01*
X76719963Y-73352030D01*
X76666088Y-73352030D01*
X76477526Y-73540592D01*
X76585276Y-73648341D01*
X76477526Y-73055719D02*
X75911841Y-73621404D01*
X76154277Y-72732470D01*
X75588592Y-73298155D01*
X75884903Y-72463096D02*
X75319218Y-73028781D01*
X75184531Y-72894094D01*
X75130656Y-72786345D01*
X75130656Y-72678595D01*
X75157594Y-72597783D01*
X75238406Y-72463096D01*
X75319218Y-72382284D01*
X75453905Y-72301471D01*
X75534717Y-72274534D01*
X75642467Y-72274534D01*
X75750216Y-72328409D01*
X75884903Y-72463096D01*
X104644589Y-74360277D02*
X104671526Y-74441089D01*
X104752338Y-74521902D01*
X104860088Y-74575776D01*
X104967838Y-74575776D01*
X105048650Y-74548839D01*
X105183337Y-74468027D01*
X105264149Y-74387215D01*
X105344961Y-74252528D01*
X105371899Y-74171715D01*
X105371899Y-74063966D01*
X105318024Y-73956216D01*
X105264149Y-73902341D01*
X105156399Y-73848467D01*
X105102525Y-73848467D01*
X104913963Y-74037028D01*
X105021712Y-74144778D01*
X104913963Y-73552155D02*
X104348277Y-74117841D01*
X104132778Y-73902341D01*
X104105841Y-73821529D01*
X104105841Y-73767654D01*
X104132778Y-73686842D01*
X104213590Y-73606030D01*
X104294403Y-73579093D01*
X104348277Y-73579093D01*
X104429090Y-73606030D01*
X104644589Y-73821529D01*
X103863404Y-73525218D02*
X103809529Y-73525218D01*
X103728717Y-73498280D01*
X103594030Y-73363593D01*
X103567093Y-73282781D01*
X103567093Y-73228906D01*
X103594030Y-73148094D01*
X103647905Y-73094219D01*
X103755655Y-73040345D01*
X104402152Y-73040345D01*
X104051966Y-72690158D01*
X103405468Y-72690158D02*
X103432406Y-72770971D01*
X103432406Y-72824845D01*
X103405468Y-72905658D01*
X103378531Y-72932595D01*
X103297719Y-72959532D01*
X103243844Y-72959532D01*
X103163032Y-72932595D01*
X103055282Y-72824845D01*
X103028345Y-72744033D01*
X103028345Y-72690158D01*
X103055282Y-72609346D01*
X103082220Y-72582409D01*
X103163032Y-72555471D01*
X103216907Y-72555471D01*
X103297719Y-72582409D01*
X103405468Y-72690158D01*
X103486281Y-72717096D01*
X103540155Y-72717096D01*
X103620968Y-72690158D01*
X103728717Y-72582409D01*
X103755655Y-72501597D01*
X103755655Y-72447722D01*
X103728717Y-72366910D01*
X103620968Y-72259160D01*
X103540155Y-72232223D01*
X103486281Y-72232223D01*
X103405468Y-72259160D01*
X103297719Y-72366910D01*
X103270781Y-72447722D01*
X103270781Y-72501597D01*
X103297719Y-72582409D01*
X91690589Y-74360277D02*
X91717526Y-74441089D01*
X91798338Y-74521902D01*
X91906088Y-74575776D01*
X92013838Y-74575776D01*
X92094650Y-74548839D01*
X92229337Y-74468027D01*
X92310149Y-74387215D01*
X92390961Y-74252528D01*
X92417899Y-74171715D01*
X92417899Y-74063966D01*
X92364024Y-73956216D01*
X92310149Y-73902341D01*
X92202399Y-73848467D01*
X92148525Y-73848467D01*
X91959963Y-74037028D01*
X92067712Y-74144778D01*
X91959963Y-73552155D02*
X91394277Y-74117841D01*
X91178778Y-73902341D01*
X91151841Y-73821529D01*
X91151841Y-73767654D01*
X91178778Y-73686842D01*
X91259590Y-73606030D01*
X91340403Y-73579093D01*
X91394277Y-73579093D01*
X91475090Y-73606030D01*
X91690589Y-73821529D01*
X90909404Y-73525218D02*
X90855529Y-73525218D01*
X90774717Y-73498280D01*
X90640030Y-73363593D01*
X90613093Y-73282781D01*
X90613093Y-73228906D01*
X90640030Y-73148094D01*
X90693905Y-73094219D01*
X90801655Y-73040345D01*
X91448152Y-73040345D01*
X91097966Y-72690158D01*
X90370656Y-72986470D02*
X90316781Y-72986470D01*
X90235969Y-72959532D01*
X90101282Y-72824845D01*
X90074345Y-72744033D01*
X90074345Y-72690158D01*
X90101282Y-72609346D01*
X90155157Y-72555471D01*
X90262907Y-72501597D01*
X90909404Y-72501597D01*
X90559218Y-72151410D01*
X86600589Y-74360277D02*
X86627526Y-74441089D01*
X86708338Y-74521902D01*
X86816088Y-74575776D01*
X86923838Y-74575776D01*
X87004650Y-74548839D01*
X87139337Y-74468027D01*
X87220149Y-74387215D01*
X87300961Y-74252528D01*
X87327899Y-74171715D01*
X87327899Y-74063966D01*
X87274024Y-73956216D01*
X87220149Y-73902341D01*
X87112399Y-73848467D01*
X87058525Y-73848467D01*
X86869963Y-74037028D01*
X86977712Y-74144778D01*
X86869963Y-73552155D02*
X86304277Y-74117841D01*
X86088778Y-73902341D01*
X86061841Y-73821529D01*
X86061841Y-73767654D01*
X86088778Y-73686842D01*
X86169590Y-73606030D01*
X86250403Y-73579093D01*
X86304277Y-73579093D01*
X86385090Y-73606030D01*
X86600589Y-73821529D01*
X85819404Y-73525218D02*
X85765529Y-73525218D01*
X85684717Y-73498280D01*
X85550030Y-73363593D01*
X85523093Y-73282781D01*
X85523093Y-73228906D01*
X85550030Y-73148094D01*
X85603905Y-73094219D01*
X85711655Y-73040345D01*
X86358152Y-73040345D01*
X86007966Y-72690158D01*
X85469218Y-72151410D02*
X85792467Y-72474659D01*
X85630842Y-72313035D02*
X85065157Y-72878720D01*
X85199844Y-72851783D01*
X85307594Y-72851783D01*
X85388406Y-72878720D01*
X73910589Y-48206277D02*
X73937526Y-48287089D01*
X74018338Y-48367902D01*
X74126088Y-48421776D01*
X74233838Y-48421776D01*
X74314650Y-48394839D01*
X74449337Y-48314027D01*
X74530149Y-48233215D01*
X74610961Y-48098528D01*
X74637899Y-48017715D01*
X74637899Y-47909966D01*
X74584024Y-47802216D01*
X74530149Y-47748341D01*
X74422399Y-47694467D01*
X74368525Y-47694467D01*
X74179963Y-47883028D01*
X74287712Y-47990778D01*
X74179963Y-47398155D02*
X73614277Y-47963841D01*
X73398778Y-47748341D01*
X73371841Y-47667529D01*
X73371841Y-47613654D01*
X73398778Y-47532842D01*
X73479590Y-47452030D01*
X73560403Y-47425093D01*
X73614277Y-47425093D01*
X73695090Y-47452030D01*
X73910589Y-47667529D01*
X73317966Y-46536158D02*
X73641215Y-46859407D01*
X73479590Y-46697783D02*
X72913905Y-47263468D01*
X73048592Y-47236531D01*
X73156342Y-47236531D01*
X73237154Y-47263468D01*
X72455969Y-46428409D02*
X72833093Y-46051285D01*
X72375157Y-46778595D02*
X72913905Y-46509221D01*
X72563719Y-46159035D01*
X84070589Y-48106277D02*
X84097526Y-48187089D01*
X84178338Y-48267902D01*
X84286088Y-48321776D01*
X84393838Y-48321776D01*
X84474650Y-48294839D01*
X84609337Y-48214027D01*
X84690149Y-48133215D01*
X84770961Y-47998528D01*
X84797899Y-47917715D01*
X84797899Y-47809966D01*
X84744024Y-47702216D01*
X84690149Y-47648341D01*
X84582399Y-47594467D01*
X84528525Y-47594467D01*
X84339963Y-47783028D01*
X84447712Y-47890778D01*
X84339963Y-47298155D02*
X83774277Y-47863841D01*
X83558778Y-47648341D01*
X83531841Y-47567529D01*
X83531841Y-47513654D01*
X83558778Y-47432842D01*
X83639590Y-47352030D01*
X83720403Y-47325093D01*
X83774277Y-47325093D01*
X83855090Y-47352030D01*
X84070589Y-47567529D01*
X83477966Y-46436158D02*
X83801215Y-46759407D01*
X83639590Y-46597783D02*
X83073905Y-47163468D01*
X83208592Y-47136531D01*
X83316342Y-47136531D01*
X83397154Y-47163468D01*
X82939218Y-45897410D02*
X83262467Y-46220659D01*
X83100842Y-46059035D02*
X82535157Y-46624720D01*
X82669844Y-46597783D01*
X82777594Y-46597783D01*
X82858406Y-46624720D01*
X117359963Y-74829526D02*
X117737086Y-74075279D01*
X116982839Y-74452402D01*
X117359963Y-73752030D02*
X117306088Y-73644280D01*
X117171401Y-73509593D01*
X117090589Y-73482656D01*
X117036714Y-73482656D01*
X116955902Y-73509593D01*
X116902027Y-73563468D01*
X116875090Y-73644280D01*
X116875090Y-73698155D01*
X116902027Y-73778967D01*
X116982839Y-73913654D01*
X117009777Y-73994467D01*
X117009777Y-74048341D01*
X116982839Y-74129154D01*
X116928964Y-74183028D01*
X116848152Y-74209966D01*
X116794277Y-74209966D01*
X116713465Y-74183028D01*
X116578778Y-74048341D01*
X116524903Y-73940592D01*
X116444091Y-73321032D02*
X116713465Y-73051658D01*
X116336342Y-73805905D02*
X116444091Y-73321032D01*
X115959218Y-73428781D01*
X116336342Y-72728409D02*
X116282467Y-72620659D01*
X116147780Y-72485972D01*
X116066968Y-72459035D01*
X116013093Y-72459035D01*
X115932281Y-72485972D01*
X115878406Y-72539847D01*
X115851468Y-72620659D01*
X115851468Y-72674534D01*
X115878406Y-72755346D01*
X115959218Y-72890033D01*
X115986155Y-72970845D01*
X115986155Y-73024720D01*
X115959218Y-73105532D01*
X115905343Y-73159407D01*
X115824531Y-73186345D01*
X115770656Y-73186345D01*
X115689844Y-73159407D01*
X115555157Y-73024720D01*
X115501282Y-72916971D01*
X106661215Y-48236903D02*
X106688152Y-48317715D01*
X106768964Y-48398528D01*
X106876714Y-48452402D01*
X106984464Y-48452402D01*
X107065276Y-48425465D01*
X107199963Y-48344653D01*
X107280775Y-48263841D01*
X107361587Y-48129154D01*
X107388525Y-48048341D01*
X107388525Y-47940592D01*
X107334650Y-47832842D01*
X107280775Y-47778967D01*
X107173025Y-47725093D01*
X107119151Y-47725093D01*
X106930589Y-47913654D01*
X107038338Y-48021404D01*
X106930589Y-47428781D02*
X106364903Y-47994467D01*
X106149404Y-47778967D01*
X106122467Y-47698155D01*
X106122467Y-47644280D01*
X106149404Y-47563468D01*
X106230216Y-47482656D01*
X106311029Y-47455719D01*
X106364903Y-47455719D01*
X106445716Y-47482656D01*
X106661215Y-47698155D01*
X105745343Y-46997783D02*
X106122467Y-46620659D01*
X105664531Y-47347969D02*
X106203279Y-47078595D01*
X105853093Y-46728409D01*
X119361215Y-48236903D02*
X119388152Y-48317715D01*
X119468964Y-48398528D01*
X119576714Y-48452402D01*
X119684464Y-48452402D01*
X119765276Y-48425465D01*
X119899963Y-48344653D01*
X119980775Y-48263841D01*
X120061587Y-48129154D01*
X120088525Y-48048341D01*
X120088525Y-47940592D01*
X120034650Y-47832842D01*
X119980775Y-47778967D01*
X119873025Y-47725093D01*
X119819151Y-47725093D01*
X119630589Y-47913654D01*
X119738338Y-48021404D01*
X119630589Y-47428781D02*
X119064903Y-47994467D01*
X118849404Y-47778967D01*
X118822467Y-47698155D01*
X118822467Y-47644280D01*
X118849404Y-47563468D01*
X118930216Y-47482656D01*
X119011029Y-47455719D01*
X119064903Y-47455719D01*
X119145716Y-47482656D01*
X119361215Y-47698155D01*
X118391468Y-47321032D02*
X118337594Y-47267157D01*
X118310656Y-47186345D01*
X118310656Y-47132470D01*
X118337594Y-47051658D01*
X118418406Y-46916971D01*
X118553093Y-46782284D01*
X118687780Y-46701471D01*
X118768592Y-46674534D01*
X118822467Y-46674534D01*
X118903279Y-46701471D01*
X118957154Y-46755346D01*
X118984091Y-46836158D01*
X118984091Y-46890033D01*
X118957154Y-46970845D01*
X118876342Y-47105532D01*
X118741655Y-47240219D01*
X118606968Y-47321032D01*
X118526155Y-47347969D01*
X118472281Y-47347969D01*
X118391468Y-47321032D01*
X94513432Y-73511624D02*
X94432619Y-73969560D01*
X94836680Y-73834873D02*
X94270995Y-74400558D01*
X94055496Y-74185059D01*
X94028558Y-74104247D01*
X94028558Y-74050372D01*
X94055496Y-73969560D01*
X94136308Y-73888748D01*
X94217120Y-73861810D01*
X94270995Y-73861810D01*
X94351807Y-73888748D01*
X94567306Y-74104247D01*
X93705309Y-73834873D02*
X94163245Y-73376937D01*
X94190183Y-73296125D01*
X94190183Y-73242250D01*
X94163245Y-73161438D01*
X94055496Y-73053688D01*
X93974684Y-73026751D01*
X93920809Y-73026751D01*
X93839997Y-73053688D01*
X93382061Y-73511624D01*
X93678372Y-72676564D02*
X93112687Y-73242250D01*
X93355123Y-72353316D01*
X92789438Y-72919001D01*
X93961215Y-48236903D02*
X93988152Y-48317715D01*
X94068964Y-48398528D01*
X94176714Y-48452402D01*
X94284464Y-48452402D01*
X94365276Y-48425465D01*
X94499963Y-48344653D01*
X94580775Y-48263841D01*
X94661587Y-48129154D01*
X94688525Y-48048341D01*
X94688525Y-47940592D01*
X94634650Y-47832842D01*
X94580775Y-47778967D01*
X94473025Y-47725093D01*
X94419151Y-47725093D01*
X94230589Y-47913654D01*
X94338338Y-48021404D01*
X94230589Y-47428781D02*
X93664903Y-47994467D01*
X93449404Y-47778967D01*
X93422467Y-47698155D01*
X93422467Y-47644280D01*
X93449404Y-47563468D01*
X93530216Y-47482656D01*
X93611029Y-47455719D01*
X93664903Y-47455719D01*
X93745716Y-47482656D01*
X93961215Y-47698155D01*
X93260842Y-47105532D02*
X93287780Y-47186345D01*
X93287780Y-47240219D01*
X93260842Y-47321032D01*
X93233905Y-47347969D01*
X93153093Y-47374906D01*
X93099218Y-47374906D01*
X93018406Y-47347969D01*
X92910656Y-47240219D01*
X92883719Y-47159407D01*
X92883719Y-47105532D01*
X92910656Y-47024720D01*
X92937594Y-46997783D01*
X93018406Y-46970845D01*
X93072281Y-46970845D01*
X93153093Y-46997783D01*
X93260842Y-47105532D01*
X93341655Y-47132470D01*
X93395529Y-47132470D01*
X93476342Y-47105532D01*
X93584091Y-46997783D01*
X93611029Y-46916971D01*
X93611029Y-46863096D01*
X93584091Y-46782284D01*
X93476342Y-46674534D01*
X93395529Y-46647597D01*
X93341655Y-46647597D01*
X93260842Y-46674534D01*
X93153093Y-46782284D01*
X93126155Y-46863096D01*
X93126155Y-46916971D01*
X93153093Y-46997783D01*
X114308152Y-73863841D02*
X114335090Y-73944653D01*
X114415902Y-74025465D01*
X114523651Y-74079340D01*
X114631401Y-74079340D01*
X114712213Y-74052402D01*
X114846900Y-73971590D01*
X114927712Y-73890778D01*
X115008525Y-73756091D01*
X115035462Y-73675279D01*
X115035462Y-73567529D01*
X114981587Y-73459780D01*
X114927712Y-73405905D01*
X114819963Y-73352030D01*
X114766088Y-73352030D01*
X114577526Y-73540592D01*
X114685276Y-73648341D01*
X114577526Y-73055719D02*
X114011841Y-73621404D01*
X114254277Y-72732470D01*
X113688592Y-73298155D01*
X113984903Y-72463096D02*
X113419218Y-73028781D01*
X113284531Y-72894094D01*
X113230656Y-72786345D01*
X113230656Y-72678595D01*
X113257594Y-72597783D01*
X113338406Y-72463096D01*
X113419218Y-72382284D01*
X113553905Y-72301471D01*
X113634717Y-72274534D01*
X113742467Y-72274534D01*
X113850216Y-72328409D01*
X113984903Y-72463096D01*
G04 #@! TO.C,DECODER1*
X196433330Y-73007380D02*
X196433330Y-72007380D01*
X196671425Y-72007380D01*
X196814282Y-72055000D01*
X196909520Y-72150238D01*
X196957139Y-72245476D01*
X197004758Y-72435952D01*
X197004758Y-72578809D01*
X196957139Y-72769285D01*
X196909520Y-72864523D01*
X196814282Y-72959761D01*
X196671425Y-73007380D01*
X196433330Y-73007380D01*
X197433330Y-72483571D02*
X197766663Y-72483571D01*
X197909520Y-73007380D02*
X197433330Y-73007380D01*
X197433330Y-72007380D01*
X197909520Y-72007380D01*
X198909520Y-72912142D02*
X198861901Y-72959761D01*
X198719044Y-73007380D01*
X198623806Y-73007380D01*
X198480949Y-72959761D01*
X198385711Y-72864523D01*
X198338092Y-72769285D01*
X198290473Y-72578809D01*
X198290473Y-72435952D01*
X198338092Y-72245476D01*
X198385711Y-72150238D01*
X198480949Y-72055000D01*
X198623806Y-72007380D01*
X198719044Y-72007380D01*
X198861901Y-72055000D01*
X198909520Y-72102619D01*
X199528568Y-72007380D02*
X199719044Y-72007380D01*
X199814282Y-72055000D01*
X199909520Y-72150238D01*
X199957139Y-72340714D01*
X199957139Y-72674047D01*
X199909520Y-72864523D01*
X199814282Y-72959761D01*
X199719044Y-73007380D01*
X199528568Y-73007380D01*
X199433330Y-72959761D01*
X199338092Y-72864523D01*
X199290473Y-72674047D01*
X199290473Y-72340714D01*
X199338092Y-72150238D01*
X199433330Y-72055000D01*
X199528568Y-72007380D01*
X200385711Y-73007380D02*
X200385711Y-72007380D01*
X200623806Y-72007380D01*
X200766663Y-72055000D01*
X200861901Y-72150238D01*
X200909520Y-72245476D01*
X200957139Y-72435952D01*
X200957139Y-72578809D01*
X200909520Y-72769285D01*
X200861901Y-72864523D01*
X200766663Y-72959761D01*
X200623806Y-73007380D01*
X200385711Y-73007380D01*
X201385711Y-72483571D02*
X201719044Y-72483571D01*
X201861901Y-73007380D02*
X201385711Y-73007380D01*
X201385711Y-72007380D01*
X201861901Y-72007380D01*
X202861901Y-73007380D02*
X202528568Y-72531190D01*
X202290473Y-73007380D02*
X202290473Y-72007380D01*
X202671425Y-72007380D01*
X202766663Y-72055000D01*
X202814282Y-72102619D01*
X202861901Y-72197857D01*
X202861901Y-72340714D01*
X202814282Y-72435952D01*
X202766663Y-72483571D01*
X202671425Y-72531190D01*
X202290473Y-72531190D01*
X203814282Y-73007380D02*
X203242854Y-73007380D01*
X203528568Y-73007380D02*
X203528568Y-72007380D01*
X203433330Y-72150238D01*
X203338092Y-72245476D01*
X203242854Y-72293095D01*
G04 #@! TO.C,U1*
X162517377Y-63121904D02*
X163326901Y-63121904D01*
X163422139Y-63074285D01*
X163469758Y-63026666D01*
X163517377Y-62931428D01*
X163517377Y-62740952D01*
X163469758Y-62645714D01*
X163422139Y-62598095D01*
X163326901Y-62550476D01*
X162517377Y-62550476D01*
X163517377Y-61550476D02*
X163517377Y-62121904D01*
X163517377Y-61836190D02*
X162517377Y-61836190D01*
X162660235Y-61931428D01*
X162755473Y-62026666D01*
X162803092Y-62121904D01*
G04 #@! TO.C,U2*
X244508092Y-65142380D02*
X244508092Y-65951904D01*
X244555711Y-66047142D01*
X244603330Y-66094761D01*
X244698568Y-66142380D01*
X244889044Y-66142380D01*
X244984282Y-66094761D01*
X245031901Y-66047142D01*
X245079520Y-65951904D01*
X245079520Y-65142380D01*
X245508092Y-65237619D02*
X245555711Y-65190000D01*
X245650949Y-65142380D01*
X245889044Y-65142380D01*
X245984282Y-65190000D01*
X246031901Y-65237619D01*
X246079520Y-65332857D01*
X246079520Y-65428095D01*
X246031901Y-65570952D01*
X245460473Y-66142380D01*
X246079520Y-66142380D01*
G04 #@! TO.C,DECODER2*
X287323330Y-70802380D02*
X287323330Y-69802380D01*
X287561425Y-69802380D01*
X287704282Y-69850000D01*
X287799520Y-69945238D01*
X287847139Y-70040476D01*
X287894758Y-70230952D01*
X287894758Y-70373809D01*
X287847139Y-70564285D01*
X287799520Y-70659523D01*
X287704282Y-70754761D01*
X287561425Y-70802380D01*
X287323330Y-70802380D01*
X288323330Y-70278571D02*
X288656663Y-70278571D01*
X288799520Y-70802380D02*
X288323330Y-70802380D01*
X288323330Y-69802380D01*
X288799520Y-69802380D01*
X289799520Y-70707142D02*
X289751901Y-70754761D01*
X289609044Y-70802380D01*
X289513806Y-70802380D01*
X289370949Y-70754761D01*
X289275711Y-70659523D01*
X289228092Y-70564285D01*
X289180473Y-70373809D01*
X289180473Y-70230952D01*
X289228092Y-70040476D01*
X289275711Y-69945238D01*
X289370949Y-69850000D01*
X289513806Y-69802380D01*
X289609044Y-69802380D01*
X289751901Y-69850000D01*
X289799520Y-69897619D01*
X290418568Y-69802380D02*
X290609044Y-69802380D01*
X290704282Y-69850000D01*
X290799520Y-69945238D01*
X290847139Y-70135714D01*
X290847139Y-70469047D01*
X290799520Y-70659523D01*
X290704282Y-70754761D01*
X290609044Y-70802380D01*
X290418568Y-70802380D01*
X290323330Y-70754761D01*
X290228092Y-70659523D01*
X290180473Y-70469047D01*
X290180473Y-70135714D01*
X290228092Y-69945238D01*
X290323330Y-69850000D01*
X290418568Y-69802380D01*
X291275711Y-70802380D02*
X291275711Y-69802380D01*
X291513806Y-69802380D01*
X291656663Y-69850000D01*
X291751901Y-69945238D01*
X291799520Y-70040476D01*
X291847139Y-70230952D01*
X291847139Y-70373809D01*
X291799520Y-70564285D01*
X291751901Y-70659523D01*
X291656663Y-70754761D01*
X291513806Y-70802380D01*
X291275711Y-70802380D01*
X292275711Y-70278571D02*
X292609044Y-70278571D01*
X292751901Y-70802380D02*
X292275711Y-70802380D01*
X292275711Y-69802380D01*
X292751901Y-69802380D01*
X293751901Y-70802380D02*
X293418568Y-70326190D01*
X293180473Y-70802380D02*
X293180473Y-69802380D01*
X293561425Y-69802380D01*
X293656663Y-69850000D01*
X293704282Y-69897619D01*
X293751901Y-69992857D01*
X293751901Y-70135714D01*
X293704282Y-70230952D01*
X293656663Y-70278571D01*
X293561425Y-70326190D01*
X293180473Y-70326190D01*
X294132854Y-69897619D02*
X294180473Y-69850000D01*
X294275711Y-69802380D01*
X294513806Y-69802380D01*
X294609044Y-69850000D01*
X294656663Y-69897619D01*
X294704282Y-69992857D01*
X294704282Y-70088095D01*
X294656663Y-70230952D01*
X294085235Y-70802380D01*
X294704282Y-70802380D01*
D11*
G04 #@! TO.C,SEVEN1*
X274389997Y-142280000D02*
X259189997Y-142280000D01*
X259189997Y-142280000D02*
X259189997Y-127080000D01*
X259189997Y-127080000D02*
X274389997Y-127080000D01*
X274389997Y-127080000D02*
X274389997Y-142280000D01*
G04 #@! TO.C,FOUR1*
X194379997Y-142280000D02*
X179179997Y-142280000D01*
X179179997Y-142280000D02*
X179179997Y-127080000D01*
X179179997Y-127080000D02*
X194379997Y-127080000D01*
X194379997Y-127080000D02*
X194379997Y-142280000D01*
G04 #@! TO.C,F9*
X327729997Y-115610000D02*
X312529997Y-115610000D01*
X312529997Y-115610000D02*
X312529997Y-100410000D01*
X312529997Y-100410000D02*
X327729997Y-100410000D01*
X327729997Y-100410000D02*
X327729997Y-115610000D01*
G04 #@! TO.C,L_CTRL1*
X87699997Y-248960000D02*
X72499997Y-248960000D01*
X72499997Y-248960000D02*
X72499997Y-233760000D01*
X72499997Y-233760000D02*
X87699997Y-233760000D01*
X87699997Y-233760000D02*
X87699997Y-248960000D01*
G04 #@! TO.C,SEMI-COLON1*
X354399997Y-195620000D02*
X339199997Y-195620000D01*
X339199997Y-195620000D02*
X339199997Y-180420000D01*
X339199997Y-180420000D02*
X354399997Y-180420000D01*
X354399997Y-180420000D02*
X354399997Y-195620000D01*
G04 #@! TO.C,R_SHIFT1*
X421074997Y-222290000D02*
X405874997Y-222290000D01*
X405874997Y-222290000D02*
X405874997Y-207090000D01*
X405874997Y-207090000D02*
X421074997Y-207090000D01*
X421074997Y-207090000D02*
X421074997Y-222290000D01*
G04 #@! TO.C,F2*
X141039997Y-115610000D02*
X125839997Y-115610000D01*
X125839997Y-115610000D02*
X125839997Y-100410000D01*
X125839997Y-100410000D02*
X141039997Y-100410000D01*
X141039997Y-100410000D02*
X141039997Y-115610000D01*
G04 #@! TO.C,F12*
X407739997Y-115610000D02*
X392539997Y-115610000D01*
X392539997Y-115610000D02*
X392539997Y-100410000D01*
X392539997Y-100410000D02*
X407739997Y-100410000D01*
X407739997Y-100410000D02*
X407739997Y-115610000D01*
G04 #@! TO.C,COMMA/GTR_THN1*
X327729997Y-222290000D02*
X312529997Y-222290000D01*
X312529997Y-222290000D02*
X312529997Y-207090000D01*
X312529997Y-207090000D02*
X327729997Y-207090000D01*
X327729997Y-207090000D02*
X327729997Y-222290000D01*
G04 #@! TO.C,SIX1*
X247719997Y-142280000D02*
X232519997Y-142280000D01*
X232519997Y-142280000D02*
X232519997Y-127080000D01*
X232519997Y-127080000D02*
X247719997Y-127080000D01*
X247719997Y-127080000D02*
X247719997Y-142280000D01*
G04 #@! TO.C,O1*
X327729997Y-168950000D02*
X312529997Y-168950000D01*
X312529997Y-168950000D02*
X312529997Y-153750000D01*
X312529997Y-153750000D02*
X327729997Y-153750000D01*
X327729997Y-153750000D02*
X327729997Y-168950000D01*
G04 #@! TO.C,TWO1*
X141039997Y-142280000D02*
X125839997Y-142280000D01*
X125839997Y-142280000D02*
X125839997Y-127080000D01*
X125839997Y-127080000D02*
X141039997Y-127080000D01*
X141039997Y-127080000D02*
X141039997Y-142280000D01*
G04 #@! TO.C,L1*
X327729997Y-195620000D02*
X312529997Y-195620000D01*
X312529997Y-195620000D02*
X312529997Y-180420000D01*
X312529997Y-180420000D02*
X327729997Y-180420000D01*
X327729997Y-180420000D02*
X327729997Y-195620000D01*
G04 #@! TO.C,WINDOWS1*
X114369997Y-248960000D02*
X99169997Y-248960000D01*
X99169997Y-248960000D02*
X99169997Y-233760000D01*
X99169997Y-233760000D02*
X114369997Y-233760000D01*
X114369997Y-233760000D02*
X114369997Y-248960000D01*
G04 #@! TO.C,F1*
X114369997Y-115610000D02*
X99169997Y-115610000D01*
X99169997Y-115610000D02*
X99169997Y-100410000D01*
X99169997Y-100410000D02*
X114369997Y-100410000D01*
X114369997Y-100410000D02*
X114369997Y-115610000D01*
G04 #@! TO.C,F6*
X247719997Y-115610000D02*
X232519997Y-115610000D01*
X232519997Y-115610000D02*
X232519997Y-100410000D01*
X232519997Y-100410000D02*
X247719997Y-100410000D01*
X247719997Y-100410000D02*
X247719997Y-115610000D01*
G04 #@! TO.C,CAPSLOCK1*
X87699997Y-195620000D02*
X72499997Y-195620000D01*
X72499997Y-195620000D02*
X72499997Y-180420000D01*
X72499997Y-180420000D02*
X87699997Y-180420000D01*
X87699997Y-180420000D02*
X87699997Y-195620000D01*
G04 #@! TO.C,S1*
X141039997Y-195620000D02*
X125839997Y-195620000D01*
X125839997Y-195620000D02*
X125839997Y-180420000D01*
X125839997Y-180420000D02*
X141039997Y-180420000D01*
X141039997Y-180420000D02*
X141039997Y-195620000D01*
G04 #@! TO.C,F11*
X381069997Y-115610000D02*
X365869997Y-115610000D01*
X365869997Y-115610000D02*
X365869997Y-100410000D01*
X365869997Y-100410000D02*
X381069997Y-100410000D01*
X381069997Y-100410000D02*
X381069997Y-115610000D01*
G04 #@! TO.C,]1*
X407739997Y-168950000D02*
X392539997Y-168950000D01*
X392539997Y-168950000D02*
X392539997Y-153750000D01*
X392539997Y-153750000D02*
X407739997Y-153750000D01*
X407739997Y-153750000D02*
X407739997Y-168950000D01*
G04 #@! TO.C,RIGHT_ARROW1*
X434409997Y-275630000D02*
X419209997Y-275630000D01*
X419209997Y-275630000D02*
X419209997Y-260430000D01*
X419209997Y-260430000D02*
X434409997Y-260430000D01*
X434409997Y-260430000D02*
X434409997Y-275630000D01*
G04 #@! TO.C,K1*
X301059997Y-195620000D02*
X285859997Y-195620000D01*
X285859997Y-195620000D02*
X285859997Y-180420000D01*
X285859997Y-180420000D02*
X301059997Y-180420000D01*
X301059997Y-180420000D02*
X301059997Y-195620000D01*
G04 #@! TO.C,DOWN_ARROW1*
X407739997Y-275630000D02*
X392539997Y-275630000D01*
X392539997Y-275630000D02*
X392539997Y-260430000D01*
X392539997Y-260430000D02*
X407739997Y-260430000D01*
X407739997Y-260430000D02*
X407739997Y-275630000D01*
G04 #@! TO.C,J1*
X274389997Y-195620000D02*
X259189997Y-195620000D01*
X259189997Y-195620000D02*
X259189997Y-180420000D01*
X259189997Y-180420000D02*
X274389997Y-180420000D01*
X274389997Y-180420000D02*
X274389997Y-195620000D01*
G04 #@! TO.C,G1*
X221049997Y-195620000D02*
X205849997Y-195620000D01*
X205849997Y-195620000D02*
X205849997Y-180420000D01*
X205849997Y-180420000D02*
X221049997Y-180420000D01*
X221049997Y-180420000D02*
X221049997Y-195620000D01*
G04 #@! TO.C,H1*
X247719997Y-195620000D02*
X232519997Y-195620000D01*
X232519997Y-195620000D02*
X232519997Y-180420000D01*
X232519997Y-180420000D02*
X247719997Y-180420000D01*
X247719997Y-180420000D02*
X247719997Y-195620000D01*
G04 #@! TO.C,SPACE_BAR1*
X234384997Y-248960000D02*
X219184997Y-248960000D01*
X219184997Y-248960000D02*
X219184997Y-233760000D01*
X219184997Y-233760000D02*
X234384997Y-233760000D01*
X234384997Y-233760000D02*
X234384997Y-248960000D01*
G04 #@! TO.C,U5*
X274389997Y-168950000D02*
X259189997Y-168950000D01*
X259189997Y-168950000D02*
X259189997Y-153750000D01*
X259189997Y-153750000D02*
X274389997Y-153750000D01*
X274389997Y-153750000D02*
X274389997Y-168950000D01*
G04 #@! TO.C,L_SHIFT1*
X101034997Y-222290000D02*
X85834997Y-222290000D01*
X85834997Y-222290000D02*
X85834997Y-207090000D01*
X85834997Y-207090000D02*
X101034997Y-207090000D01*
X101034997Y-207090000D02*
X101034997Y-222290000D01*
G04 #@! TO.C,APOSTROPHE1*
X381069997Y-195620000D02*
X365869997Y-195620000D01*
X365869997Y-195620000D02*
X365869997Y-180420000D01*
X365869997Y-180420000D02*
X381069997Y-180420000D01*
X381069997Y-180420000D02*
X381069997Y-195620000D01*
G04 #@! TO.C,I1*
X301059997Y-168950000D02*
X285859997Y-168950000D01*
X285859997Y-168950000D02*
X285859997Y-153750000D01*
X285859997Y-153750000D02*
X301059997Y-153750000D01*
X301059997Y-153750000D02*
X301059997Y-168950000D01*
G04 #@! TO.C,REF\u002A\u002A*
X167599997Y-248960000D02*
X152399997Y-248960000D01*
X152399997Y-248960000D02*
X152399997Y-233760000D01*
X152399997Y-233760000D02*
X167599997Y-233760000D01*
X167599997Y-233760000D02*
X167599997Y-248960000D01*
G04 #@! TO.C,W1*
X141039997Y-168950000D02*
X125839997Y-168950000D01*
X125839997Y-168950000D02*
X125839997Y-153750000D01*
X125839997Y-153750000D02*
X141039997Y-153750000D01*
X141039997Y-153750000D02*
X141039997Y-168950000D01*
G04 #@! TO.C,B1*
X247719997Y-222290000D02*
X232519997Y-222290000D01*
X232519997Y-222290000D02*
X232519997Y-207090000D01*
X232519997Y-207090000D02*
X247719997Y-207090000D01*
X247719997Y-207090000D02*
X247719997Y-222290000D01*
G04 #@! TO.C,EQUALS1*
X407739997Y-142280000D02*
X392539997Y-142280000D01*
X392539997Y-142280000D02*
X392539997Y-127080000D01*
X392539997Y-127080000D02*
X407739997Y-127080000D01*
X407739997Y-127080000D02*
X407739997Y-142280000D01*
G04 #@! TO.C,A1*
X114369997Y-195620000D02*
X99169997Y-195620000D01*
X99169997Y-195620000D02*
X99169997Y-180420000D01*
X99169997Y-180420000D02*
X114369997Y-180420000D01*
X114369997Y-180420000D02*
X114369997Y-195620000D01*
G04 #@! TO.C,ZERO1*
X354399997Y-142280000D02*
X339199997Y-142280000D01*
X339199997Y-142280000D02*
X339199997Y-127080000D01*
X339199997Y-127080000D02*
X354399997Y-127080000D01*
X354399997Y-127080000D02*
X354399997Y-142280000D01*
G04 #@! TO.C,EIGHT1*
X301059997Y-142280000D02*
X285859997Y-142280000D01*
X285859997Y-142280000D02*
X285859997Y-127080000D01*
X285859997Y-127080000D02*
X301059997Y-127080000D01*
X301059997Y-127080000D02*
X301059997Y-142280000D01*
G04 #@! TO.C,F13*
X194379997Y-195620000D02*
X179179997Y-195620000D01*
X179179997Y-195620000D02*
X179179997Y-180420000D01*
X179179997Y-180420000D02*
X194379997Y-180420000D01*
X194379997Y-180420000D02*
X194379997Y-195620000D01*
G04 #@! TO.C,TAB1*
X87699997Y-168950000D02*
X72499997Y-168950000D01*
X72499997Y-168950000D02*
X72499997Y-153750000D01*
X72499997Y-153750000D02*
X87699997Y-153750000D01*
X87699997Y-153750000D02*
X87699997Y-168950000D01*
G04 #@! TO.C,MACRO_1*
X181044997Y-275630000D02*
X165844997Y-275630000D01*
X165844997Y-275630000D02*
X165844997Y-260430000D01*
X165844997Y-260430000D02*
X181044997Y-260430000D01*
X181044997Y-260430000D02*
X181044997Y-275630000D01*
G04 #@! TO.C,PERIOD/LSS_THN1*
X354399997Y-222290000D02*
X339199997Y-222290000D01*
X339199997Y-222290000D02*
X339199997Y-207090000D01*
X339199997Y-207090000D02*
X354399997Y-207090000D01*
X354399997Y-207090000D02*
X354399997Y-222290000D01*
G04 #@! TO.C,X1*
X167709997Y-222290000D02*
X152509997Y-222290000D01*
X152509997Y-222290000D02*
X152509997Y-207090000D01*
X152509997Y-207090000D02*
X167709997Y-207090000D01*
X167709997Y-207090000D02*
X167709997Y-222290000D01*
G04 #@! TO.C,C1*
X194379997Y-222290000D02*
X179179997Y-222290000D01*
X179179997Y-222290000D02*
X179179997Y-207090000D01*
X179179997Y-207090000D02*
X194379997Y-207090000D01*
X194379997Y-207090000D02*
X194379997Y-222290000D01*
G04 #@! TO.C,Y1*
X247719997Y-168950000D02*
X232519997Y-168950000D01*
X232519997Y-168950000D02*
X232519997Y-153750000D01*
X232519997Y-153750000D02*
X247719997Y-153750000D01*
X247719997Y-153750000D02*
X247719997Y-168950000D01*
G04 #@! TO.C,F8*
X301059997Y-115610000D02*
X285859997Y-115610000D01*
X285859997Y-115610000D02*
X285859997Y-100410000D01*
X285859997Y-100410000D02*
X301059997Y-100410000D01*
X301059997Y-100410000D02*
X301059997Y-115610000D01*
G04 #@! TO.C,D1*
X167709997Y-195620000D02*
X152509997Y-195620000D01*
X152509997Y-195620000D02*
X152509997Y-180420000D01*
X152509997Y-180420000D02*
X167709997Y-180420000D01*
X167709997Y-180420000D02*
X167709997Y-195620000D01*
G04 #@! TO.C,MACRO_3*
X287724997Y-275630000D02*
X272524997Y-275630000D01*
X272524997Y-275630000D02*
X272524997Y-260430000D01*
X272524997Y-260430000D02*
X287724997Y-260430000D01*
X287724997Y-260430000D02*
X287724997Y-275630000D01*
G04 #@! TO.C,BACKSPACE1*
X434409997Y-142280000D02*
X419209997Y-142280000D01*
X419209997Y-142280000D02*
X419209997Y-127080000D01*
X419209997Y-127080000D02*
X434409997Y-127080000D01*
X434409997Y-127080000D02*
X434409997Y-142280000D01*
G04 #@! TO.C,T1*
X221049997Y-168950000D02*
X205849997Y-168950000D01*
X205849997Y-168950000D02*
X205849997Y-153750000D01*
X205849997Y-153750000D02*
X221049997Y-153750000D01*
X221049997Y-153750000D02*
X221049997Y-168950000D01*
G04 #@! TO.C,MINUS1*
X381069997Y-142280000D02*
X365869997Y-142280000D01*
X365869997Y-142280000D02*
X365869997Y-127080000D01*
X365869997Y-127080000D02*
X381069997Y-127080000D01*
X381069997Y-127080000D02*
X381069997Y-142280000D01*
G04 #@! TO.C,/1*
X381069997Y-222290000D02*
X365869997Y-222290000D01*
X365869997Y-222290000D02*
X365869997Y-207090000D01*
X365869997Y-207090000D02*
X381069997Y-207090000D01*
X381069997Y-207090000D02*
X381069997Y-222290000D01*
G04 #@! TO.C,M1*
X301059997Y-222290000D02*
X285859997Y-222290000D01*
X285859997Y-222290000D02*
X285859997Y-207090000D01*
X285859997Y-207090000D02*
X301059997Y-207090000D01*
X301059997Y-207090000D02*
X301059997Y-222290000D01*
G04 #@! TO.C,UP_ARROW1*
X407739997Y-248960000D02*
X392539997Y-248960000D01*
X392539997Y-248960000D02*
X392539997Y-233760000D01*
X392539997Y-233760000D02*
X407739997Y-233760000D01*
X407739997Y-233760000D02*
X407739997Y-248960000D01*
G04 #@! TO.C,F7*
X274389997Y-115610000D02*
X259189997Y-115610000D01*
X259189997Y-115610000D02*
X259189997Y-100410000D01*
X259189997Y-100410000D02*
X274389997Y-100410000D01*
X274389997Y-100410000D02*
X274389997Y-115610000D01*
G04 #@! TO.C,Z1*
X141039997Y-222290000D02*
X125839997Y-222290000D01*
X125839997Y-222290000D02*
X125839997Y-207090000D01*
X125839997Y-207090000D02*
X141039997Y-207090000D01*
X141039997Y-207090000D02*
X141039997Y-222290000D01*
G04 #@! TO.C,MACRO_2*
X234384997Y-275630000D02*
X219184997Y-275630000D01*
X219184997Y-275630000D02*
X219184997Y-260430000D01*
X219184997Y-260430000D02*
X234384997Y-260430000D01*
X234384997Y-260430000D02*
X234384997Y-275630000D01*
G04 #@! TO.C,F4*
X194379997Y-115610000D02*
X179179997Y-115610000D01*
X179179997Y-115610000D02*
X179179997Y-100410000D01*
X179179997Y-100410000D02*
X194379997Y-100410000D01*
X194379997Y-100410000D02*
X194379997Y-115610000D01*
G04 #@! TO.C,Q1*
X114369997Y-168950000D02*
X99169997Y-168950000D01*
X99169997Y-168950000D02*
X99169997Y-153750000D01*
X99169997Y-153750000D02*
X114369997Y-153750000D01*
X114369997Y-153750000D02*
X114369997Y-168950000D01*
G04 #@! TO.C,BACK_TICK/TILDE1*
X87699997Y-142280000D02*
X72499997Y-142280000D01*
X72499997Y-142280000D02*
X72499997Y-127080000D01*
X72499997Y-127080000D02*
X87699997Y-127080000D01*
X87699997Y-127080000D02*
X87699997Y-142280000D01*
G04 #@! TO.C,NINE1*
X327729997Y-142280000D02*
X312529997Y-142280000D01*
X312529997Y-142280000D02*
X312529997Y-127080000D01*
X312529997Y-127080000D02*
X327729997Y-127080000D01*
X327729997Y-127080000D02*
X327729997Y-142280000D01*
G04 #@! TO.C,N1*
X274389997Y-222290000D02*
X259189997Y-222290000D01*
X259189997Y-222290000D02*
X259189997Y-207090000D01*
X259189997Y-207090000D02*
X274389997Y-207090000D01*
X274389997Y-207090000D02*
X274389997Y-222290000D01*
G04 #@! TO.C,THREE1*
X167709997Y-142280000D02*
X152509997Y-142280000D01*
X152509997Y-142280000D02*
X152509997Y-127080000D01*
X152509997Y-127080000D02*
X167709997Y-127080000D01*
X167709997Y-127080000D02*
X167709997Y-142280000D01*
G04 #@! TO.C,ENTER1*
X421074997Y-195620000D02*
X405874997Y-195620000D01*
X405874997Y-195620000D02*
X405874997Y-180420000D01*
X405874997Y-180420000D02*
X421074997Y-180420000D01*
X421074997Y-180420000D02*
X421074997Y-195620000D01*
G04 #@! TO.C,R2*
X194379997Y-168950000D02*
X179179997Y-168950000D01*
X179179997Y-168950000D02*
X179179997Y-153750000D01*
X179179997Y-153750000D02*
X194379997Y-153750000D01*
X194379997Y-153750000D02*
X194379997Y-168950000D01*
G04 #@! TO.C,ONE1*
X114369997Y-142280000D02*
X99169997Y-142280000D01*
X99169997Y-142280000D02*
X99169997Y-127080000D01*
X99169997Y-127080000D02*
X114369997Y-127080000D01*
X114369997Y-127080000D02*
X114369997Y-142280000D01*
G04 #@! TO.C,R_ALT1*
X327729997Y-248960000D02*
X312529997Y-248960000D01*
X312529997Y-248960000D02*
X312529997Y-233760000D01*
X312529997Y-233760000D02*
X327729997Y-233760000D01*
X327729997Y-233760000D02*
X327729997Y-248960000D01*
G04 #@! TO.C,V1*
X221049997Y-222290000D02*
X205849997Y-222290000D01*
X205849997Y-222290000D02*
X205849997Y-207090000D01*
X205849997Y-207090000D02*
X221049997Y-207090000D01*
X221049997Y-207090000D02*
X221049997Y-222290000D01*
G04 #@! TO.C,E1*
X167709997Y-168950000D02*
X152509997Y-168950000D01*
X152509997Y-168950000D02*
X152509997Y-153750000D01*
X152509997Y-153750000D02*
X167709997Y-153750000D01*
X167709997Y-153750000D02*
X167709997Y-168950000D01*
G04 #@! TO.C,R_CTRL1*
X367734997Y-248960000D02*
X352534997Y-248960000D01*
X352534997Y-248960000D02*
X352534997Y-233760000D01*
X352534997Y-233760000D02*
X367734997Y-233760000D01*
X367734997Y-233760000D02*
X367734997Y-248960000D01*
G04 #@! TO.C,F3*
X167709997Y-115610000D02*
X152509997Y-115610000D01*
X152509997Y-115610000D02*
X152509997Y-100410000D01*
X152509997Y-100410000D02*
X167709997Y-100410000D01*
X167709997Y-100410000D02*
X167709997Y-115610000D01*
G04 #@! TO.C,[1*
X381069997Y-168950000D02*
X365869997Y-168950000D01*
X365869997Y-168950000D02*
X365869997Y-153750000D01*
X365869997Y-153750000D02*
X381069997Y-153750000D01*
X381069997Y-153750000D02*
X381069997Y-168950000D01*
G04 #@! TO.C,DEL1*
X434409997Y-115610000D02*
X419209997Y-115610000D01*
X419209997Y-115610000D02*
X419209997Y-100410000D01*
X419209997Y-100410000D02*
X434409997Y-100410000D01*
X434409997Y-100410000D02*
X434409997Y-115610000D01*
G04 #@! TO.C,\u005C1*
X434409997Y-168950000D02*
X419209997Y-168950000D01*
X419209997Y-168950000D02*
X419209997Y-153750000D01*
X419209997Y-153750000D02*
X434409997Y-153750000D01*
X434409997Y-153750000D02*
X434409997Y-168950000D01*
G04 #@! TO.C,L_ALT1*
X141039997Y-248960000D02*
X125839997Y-248960000D01*
X125839997Y-248960000D02*
X125839997Y-233760000D01*
X125839997Y-233760000D02*
X141039997Y-233760000D01*
X141039997Y-233760000D02*
X141039997Y-248960000D01*
G04 #@! TO.C,P1*
X354399997Y-168950000D02*
X339199997Y-168950000D01*
X339199997Y-168950000D02*
X339199997Y-153750000D01*
X339199997Y-153750000D02*
X354399997Y-153750000D01*
X354399997Y-153750000D02*
X354399997Y-168950000D01*
G04 #@! TO.C,F10*
X354399997Y-115610000D02*
X339199997Y-115610000D01*
X339199997Y-115610000D02*
X339199997Y-100410000D01*
X339199997Y-100410000D02*
X354399997Y-100410000D01*
X354399997Y-100410000D02*
X354399997Y-115610000D01*
G04 #@! TO.C,ESC1*
X87699997Y-115610000D02*
X72499997Y-115610000D01*
X72499997Y-115610000D02*
X72499997Y-100410000D01*
X72499997Y-100410000D02*
X87699997Y-100410000D01*
X87699997Y-100410000D02*
X87699997Y-115610000D01*
G04 #@! TO.C,F5*
X221049997Y-115610000D02*
X205849997Y-115610000D01*
X205849997Y-115610000D02*
X205849997Y-100410000D01*
X205849997Y-100410000D02*
X221049997Y-100410000D01*
X221049997Y-100410000D02*
X221049997Y-115610000D01*
G04 #@! TO.C,REF\u002A\u002A*
X301499997Y-249030000D02*
X286299997Y-249030000D01*
X286299997Y-249030000D02*
X286299997Y-233830000D01*
X286299997Y-233830000D02*
X301499997Y-233830000D01*
X301499997Y-233830000D02*
X301499997Y-249030000D01*
G04 #@! TO.C,LEFT_ARROW1*
X381069997Y-275630000D02*
X365869997Y-275630000D01*
X365869997Y-275630000D02*
X365869997Y-260430000D01*
X365869997Y-260430000D02*
X381069997Y-260430000D01*
X381069997Y-260430000D02*
X381069997Y-275630000D01*
G04 #@! TO.C,FIVE1*
X221049997Y-142280000D02*
X205849997Y-142280000D01*
X205849997Y-142280000D02*
X205849997Y-127080000D01*
X205849997Y-127080000D02*
X221049997Y-127080000D01*
X221049997Y-127080000D02*
X221049997Y-142280000D01*
G04 #@! TO.C,U3*
X327929997Y-66690000D02*
X326279997Y-66690000D01*
X327929997Y-84590000D02*
X327929997Y-66690000D01*
X324279997Y-66690000D02*
X322629997Y-66690000D01*
X322629997Y-84590000D02*
X327929997Y-84590000D01*
X322629997Y-66690000D02*
X322629997Y-84590000D01*
X324279997Y-66690000D02*
G75*
G03*
X326279997Y-66690000I1000000J0D01*
G01*
G04 #@! TO.C,U4*
X108009997Y-70850000D02*
X107609997Y-70850000D01*
X95309997Y-70850000D02*
X94909997Y-70850000D01*
X87709997Y-70850000D02*
X87309997Y-70850000D01*
X120609997Y-49850000D02*
X120309997Y-49850000D01*
X90209997Y-49850000D02*
X89809997Y-49850000D01*
X120609997Y-49850000D02*
X120609997Y-70850000D01*
X82609997Y-70850000D02*
X82209997Y-70850000D01*
X120609997Y-70850000D02*
X120309997Y-70850000D01*
X90209997Y-70850000D02*
X89809997Y-70850000D01*
X117942997Y-52857000D02*
X120609997Y-52857000D01*
X118209997Y-70850000D02*
X117809997Y-70850000D01*
X87709997Y-49850000D02*
X87309997Y-49850000D01*
X102909997Y-70850000D02*
X102509997Y-70850000D01*
X77509997Y-49850000D02*
X77109997Y-49850000D01*
X117942997Y-49850000D02*
X117942997Y-52857000D01*
X80009997Y-49850000D02*
X79609997Y-49850000D01*
X102909997Y-49850000D02*
X102509997Y-49850000D01*
X110509997Y-49850000D02*
X110109997Y-49850000D01*
X97809997Y-49850000D02*
X97409997Y-49850000D01*
X85109997Y-70850000D02*
X84709997Y-70850000D01*
X108009997Y-49850000D02*
X107609997Y-49850000D01*
X75009997Y-70850000D02*
X74609997Y-70850000D01*
X92809997Y-70850000D02*
X92409997Y-70850000D01*
X105509997Y-70850000D02*
X105109997Y-70850000D01*
X115609997Y-49850000D02*
X115209997Y-49850000D01*
X115609997Y-70850000D02*
X115209997Y-70850000D01*
X85109997Y-49850000D02*
X84709997Y-49850000D01*
X72409997Y-70850000D02*
X72009997Y-70850000D01*
X75009997Y-49850000D02*
X74609997Y-49850000D01*
X72409997Y-49850000D02*
X72009997Y-49850000D01*
X69609997Y-61450000D02*
X69609997Y-61850000D01*
X100409997Y-49850000D02*
X100009997Y-49850000D01*
X69609997Y-56650000D02*
X69609997Y-49850000D01*
X113109997Y-70850000D02*
X112709997Y-70850000D01*
X110509997Y-70850000D02*
X110109997Y-70850000D01*
X92809997Y-49850000D02*
X92409997Y-49850000D01*
X105509997Y-49850000D02*
X105109997Y-49850000D01*
X95309997Y-49850000D02*
X94909997Y-49850000D01*
X118209997Y-49850000D02*
X117809997Y-49850000D01*
X82609997Y-49850000D02*
X82209997Y-49850000D01*
X77509997Y-70850000D02*
X77109997Y-70850000D01*
X100409997Y-70850000D02*
X100009997Y-70850000D01*
X69609997Y-58850000D02*
X69609997Y-59250000D01*
X69609997Y-70850000D02*
X69609997Y-64050000D01*
X80009997Y-70850000D02*
X79609997Y-70850000D01*
X97809997Y-70850000D02*
X97409997Y-70850000D01*
X113109997Y-49850000D02*
X112709997Y-49850000D01*
G04 #@! TO.C,DECODER1*
X197449997Y-71555000D02*
X199099997Y-71555000D01*
X202749997Y-71555000D02*
X202749997Y-51115000D01*
X201099997Y-71555000D02*
X202749997Y-71555000D01*
X202749997Y-51115000D02*
X197449997Y-51115000D01*
X197449997Y-51115000D02*
X197449997Y-71555000D01*
X201099997Y-71555000D02*
G75*
G03*
X199099997Y-71555000I-1000000J0D01*
G01*
G04 #@! TO.C,U1*
X162064997Y-61360000D02*
X162064997Y-59710000D01*
X162064997Y-59710000D02*
X144164997Y-59710000D01*
X162064997Y-65010000D02*
X162064997Y-63360000D01*
X144164997Y-65010000D02*
X162064997Y-65010000D01*
X144164997Y-59710000D02*
X144164997Y-65010000D01*
X162064997Y-61360000D02*
G75*
G03*
X162064997Y-63360000I0J-1000000D01*
G01*
G04 #@! TO.C,U2*
X247919997Y-84590000D02*
X247919997Y-66690000D01*
X242619997Y-66690000D02*
X242619997Y-84590000D01*
X242619997Y-84590000D02*
X247919997Y-84590000D01*
X244269997Y-66690000D02*
X242619997Y-66690000D01*
X247919997Y-66690000D02*
X246269997Y-66690000D01*
X244269997Y-66690000D02*
G75*
G03*
X246269997Y-66690000I1000000J0D01*
G01*
G04 #@! TO.C,DECODER2*
X293639997Y-69350000D02*
X293639997Y-48910000D01*
X293639997Y-48910000D02*
X288339997Y-48910000D01*
X291989997Y-69350000D02*
X293639997Y-69350000D01*
X288339997Y-69350000D02*
X289989997Y-69350000D01*
X288339997Y-48910000D02*
X288339997Y-69350000D01*
X291989997Y-69350000D02*
G75*
G03*
X289989997Y-69350000I-1000000J0D01*
G01*
G04 #@! TD*
M02*
