M48
; DRILL file {KiCad (6.0.8)} date Fri Nov  4 15:43:17 2022
; FORMAT={-:-/ absolute / inch / decimal}
; #@! TF.CreationDate,2022-11-04T15:43:17-05:00
; #@! TF.GenerationSoftware,Kicad,Pcbnew,(6.0.8)
; #@! TF.FileFunction,Plated,1,2,PTH
FMAT,2
INCH
; #@! TA.AperFunction,Plated,PTH,ViaDrill
T1C0.0157
; #@! TA.AperFunction,Plated,PTH,ComponentDrill
T2C0.0315
; #@! TA.AperFunction,Plated,PTH,ComponentDrill
T3C0.0379
; #@! TA.AperFunction,Plated,PTH,ComponentDrill
T4C0.0394
; #@! TA.AperFunction,Plated,PTH,ComponentDrill
T5C0.0402
%
G90
G05
T1
X4.9098Y-2.9941
X4.9925Y-3.0768
X5.0555Y-3.1594
X6.213Y-2.502
X6.7917Y-2.9941
X6.7957Y-3.0768
X6.7957Y-3.1594
X8.028Y-2.9941
X8.2169Y-2.9941
X8.3035Y-2.998
X10.335Y-2.3602
X10.335Y-2.4075
X10.335Y-2.4626
T2
X5.7281Y-2.3051
X5.7281Y-2.6051
X5.8281Y-2.3051
X5.8281Y-2.6051
X5.9281Y-2.3051
X5.9281Y-2.6051
X6.0281Y-2.3051
X6.0281Y-2.6051
X6.1281Y-2.3051
X6.1281Y-2.6051
X6.2281Y-2.3051
X6.2281Y-2.6051
X6.3281Y-2.3051
X6.3281Y-2.6051
X7.728Y-2.0648
X7.728Y-2.1648
X7.728Y-2.2648
X7.728Y-2.3648
X7.728Y-2.4648
X7.728Y-2.5648
X7.728Y-2.6648
X7.728Y-2.7648
X8.028Y-2.0648
X8.028Y-2.1648
X8.028Y-2.2648
X8.028Y-2.3648
X8.028Y-2.4648
X8.028Y-2.5648
X8.028Y-2.6648
X8.028Y-2.7648
X9.5063Y-2.678
X9.5063Y-2.778
X9.5063Y-2.878
X9.5063Y-2.978
X9.5063Y-3.078
X9.5063Y-3.178
X9.5063Y-3.278
X9.8063Y-2.678
X9.8063Y-2.778
X9.8063Y-2.878
X9.8063Y-2.978
X9.8063Y-3.078
X9.8063Y-3.178
X9.8063Y-3.278
X11.3063Y-1.978
X11.3063Y-2.078
X11.3063Y-2.178
X11.3063Y-2.278
X11.3063Y-2.378
X11.3063Y-2.478
X11.3063Y-2.578
X11.3063Y-2.678
X11.6063Y-1.978
X11.6063Y-2.078
X11.6063Y-2.178
X11.6063Y-2.278
X11.6063Y-2.378
X11.6063Y-2.478
X11.6063Y-2.578
X11.6063Y-2.678
X12.6563Y-2.678
X12.6563Y-2.778
X12.6563Y-2.878
X12.6563Y-2.978
X12.6563Y-3.078
X12.6563Y-3.178
X12.6563Y-3.278
X12.9563Y-2.678
X12.9563Y-2.778
X12.9563Y-2.878
X12.9563Y-2.978
X12.9563Y-3.078
X12.9563Y-3.178
X12.9563Y-3.278
T3
X2.9803Y-4.4374
X2.9803Y-5.4874
X2.9803Y-6.5374
X2.9803Y-7.5874
X2.9803Y-9.6874
X3.5053Y-8.6374
X4.0303Y-4.4374
X4.0303Y-5.4874
X4.0303Y-6.5374
X4.0303Y-7.5874
X4.0303Y-9.6874
X5.0803Y-4.4374
X5.0803Y-5.4874
X5.0803Y-6.5374
X5.0803Y-7.5874
X5.0803Y-8.6374
X5.0803Y-9.6874
X6.126Y-9.6874
X6.1303Y-4.4374
X6.1303Y-5.4874
X6.1303Y-6.5374
X6.1303Y-7.5874
X6.1303Y-8.6374
X6.6553Y-10.7374
X7.1803Y-4.4374
X7.1803Y-5.4874
X7.1803Y-6.5374
X7.1803Y-7.5874
X7.1803Y-8.6374
X8.2303Y-4.4374
X8.2303Y-5.4874
X8.2303Y-6.5374
X8.2303Y-7.5874
X8.2303Y-8.6374
X8.7553Y-9.6874
X8.7553Y-10.7374
X9.2803Y-4.4374
X9.2803Y-5.4874
X9.2803Y-6.5374
X9.2803Y-7.5874
X9.2803Y-8.6374
X10.3303Y-4.4374
X10.3303Y-5.4874
X10.3303Y-6.5374
X10.3303Y-7.5874
X10.3303Y-8.6374
X10.8553Y-10.7374
X11.3803Y-4.4374
X11.3803Y-5.4874
X11.3803Y-6.5374
X11.3803Y-7.5874
X11.3803Y-8.6374
X11.3976Y-9.6902
X12.4303Y-4.4374
X12.4303Y-5.4874
X12.4303Y-6.5374
X12.4303Y-7.5874
X12.4303Y-8.6374
X12.4303Y-9.6874
X13.4803Y-4.4374
X13.4803Y-5.4874
X13.4803Y-6.5374
X13.4803Y-7.5874
X13.4803Y-8.6374
X14.0053Y-9.6874
X14.5303Y-4.4374
X14.5303Y-5.4874
X14.5303Y-6.5374
X14.5303Y-7.5874
X14.5303Y-8.6374
X14.5303Y-10.7374
X15.5803Y-4.4374
X15.5803Y-5.4874
X15.5803Y-6.5374
X15.5803Y-9.6874
X15.5803Y-10.7374
X16.1053Y-7.5874
X16.1053Y-8.6374
X16.6303Y-4.4374
X16.6303Y-5.4874
X16.6303Y-6.5374
X16.6303Y-10.7374
T4
X3.2559Y-4.4787
X3.2559Y-5.5287
X3.2559Y-6.5787
X3.2559Y-7.6287
X3.2559Y-9.7287
X3.7809Y-8.6787
X4.3059Y-4.4787
X4.3059Y-5.5287
X4.3059Y-6.5787
X4.3059Y-7.6287
X4.3059Y-9.7287
X5.3559Y-4.4787
X5.3559Y-5.5287
X5.3559Y-6.5787
X5.3559Y-7.6287
X5.3559Y-8.6787
X5.3559Y-9.7287
X6.4016Y-9.7287
X6.4059Y-4.4787
X6.4059Y-5.5287
X6.4059Y-6.5787
X6.4059Y-7.6287
X6.4059Y-8.6787
X6.9309Y-10.7787
X7.4559Y-4.4787
X7.4559Y-5.5287
X7.4559Y-6.5787
X7.4559Y-7.6287
X7.4559Y-8.6787
X8.5059Y-4.4787
X8.5059Y-5.5287
X8.5059Y-6.5787
X8.5059Y-7.6287
X8.5059Y-8.6787
X9.0309Y-9.7287
X9.0309Y-10.7787
X9.5559Y-4.4787
X9.5559Y-5.5287
X9.5559Y-6.5787
X9.5559Y-7.6287
X9.5559Y-8.6787
X10.6059Y-4.4787
X10.6059Y-5.5287
X10.6059Y-6.5787
X10.6059Y-7.6287
X10.6059Y-8.6787
X11.1309Y-10.7787
X11.6559Y-4.4787
X11.6559Y-5.5287
X11.6559Y-6.5787
X11.6559Y-7.6287
X11.6559Y-8.6787
X11.6732Y-9.7315
X12.7059Y-4.4787
X12.7059Y-5.5287
X12.7059Y-6.5787
X12.7059Y-7.6287
X12.7059Y-8.6787
X12.7059Y-9.7287
X13.7559Y-4.4787
X13.7559Y-5.5287
X13.7559Y-6.5787
X13.7559Y-7.6287
X13.7559Y-8.6787
X14.2809Y-9.7287
X14.8059Y-4.4787
X14.8059Y-5.5287
X14.8059Y-6.5787
X14.8059Y-7.6287
X14.8059Y-8.6787
X14.8059Y-10.7787
X15.8559Y-4.4787
X15.8559Y-5.5287
X15.8559Y-6.5787
X15.8559Y-9.7287
X15.8559Y-10.7787
X16.3809Y-7.6287
X16.3809Y-8.6787
X16.9059Y-4.4787
X16.9059Y-5.5287
X16.9059Y-6.5787
X16.9059Y-10.7787
T5
X2.7945Y-2.026
X2.7945Y-2.726
X2.8035Y-2.276
X2.8035Y-2.376
X2.8035Y-2.476
X2.8945Y-2.026
X2.8945Y-2.726
X2.9945Y-2.026
X2.9945Y-2.726
X3.0945Y-2.026
X3.0945Y-2.726
X3.1945Y-2.026
X3.1945Y-2.726
X3.2945Y-2.026
X3.2945Y-2.726
X3.3945Y-2.026
X3.3945Y-2.726
X3.4945Y-2.026
X3.4945Y-2.726
X3.5945Y-2.026
X3.5945Y-2.726
X3.6945Y-2.026
X3.6945Y-2.726
X3.7945Y-2.026
X3.7945Y-2.726
X3.8945Y-2.026
X3.8945Y-2.726
X3.9945Y-2.026
X3.9945Y-2.726
X4.0945Y-2.026
X4.0945Y-2.726
X4.1945Y-2.026
X4.1945Y-2.726
X4.2945Y-2.026
X4.2945Y-2.726
X4.3945Y-2.026
X4.3945Y-2.726
X4.4945Y-2.026
X4.4945Y-2.726
X4.5945Y-2.026
X4.5945Y-2.726
X4.6945Y-2.026
X4.6945Y-2.726
T0
M30
